<svg width="411" height="531" viewBox="0 0 411 531" fill="none" xmlns="http://www.w3.org/2000/svg">
<g clip-path="url(#clip0_804_201)">
<line y1="64.4226" x2="409.369" y2="64.4226" stroke="#222222" stroke-width="1.63095"/>
<line y1="-0.815476" x2="414.535" y2="-0.815476" transform="matrix(0.987539 0.157377 -0.86968 0.493617 1.63086 0)" stroke="#D8D8D8" stroke-width="1.63095"/>
<line y1="-0.815476" x2="414.535" y2="-0.815476" transform="matrix(0.987539 -0.157377 0.86968 0.493617 1.63086 65.2381)" stroke="#D8D8D8" stroke-width="1.63095"/>
<path d="M190.834 93.1606V105.44H188.923V93.1606H184.47V91.4404H195.488V93.1606H190.834ZM198.833 91.3353C199.145 91.3353 199.409 91.4468 199.626 91.6698C199.849 91.8864 199.96 92.1476 199.96 92.4534C199.96 92.7656 199.849 93.0331 199.626 93.2561C199.409 93.4727 199.145 93.581 198.833 93.581C198.527 93.581 198.263 93.4727 198.04 93.2561C197.823 93.0331 197.715 92.7656 197.715 92.4534C197.715 92.1412 197.823 91.8768 198.04 91.6602C198.256 91.4436 198.521 91.3353 198.833 91.3353ZM197.839 105.44V96.7346H196.434V95.2056H199.655V105.44H197.839ZM203.191 96.6391H202.006V95.2056H203.191V93.065L205.006 92.3674V95.2056H207.816V96.6391H205.006V101.723C205.006 102.583 205.15 103.195 205.436 103.558C205.729 103.921 206.198 104.103 206.841 104.103C207.306 104.103 207.787 103.985 208.284 103.749L208.552 105.345C207.8 105.536 206.975 105.632 206.077 105.632C205.267 105.632 204.583 105.332 204.022 104.733C203.468 104.128 203.191 103.367 203.191 102.449V96.6391ZM210.444 102.545V91.0104H212.26V102.239C212.26 102.787 212.416 103.22 212.728 103.539C213.046 103.851 213.46 104.007 213.97 104.007V105.632C211.619 105.632 210.444 104.603 210.444 102.545ZM224.692 100.5H217.315C217.315 101.698 217.643 102.618 218.299 103.262C218.879 103.822 219.624 104.103 220.535 104.103C221.574 104.103 222.44 103.8 223.135 103.195L223.899 104.504C223.619 104.784 223.189 105.026 222.609 105.23C221.883 105.498 221.074 105.632 220.182 105.632C218.895 105.632 217.802 105.195 216.904 104.322C215.904 103.36 215.404 102.067 215.404 100.443C215.404 98.7542 215.916 97.4004 216.942 96.3811C217.86 95.47 218.946 95.0145 220.201 95.0145C221.66 95.0145 222.803 95.4254 223.632 96.2473C224.434 97.0373 224.836 98.0853 224.836 99.3913C224.836 99.7927 224.788 100.162 224.692 100.5ZM220.287 96.5435C219.478 96.5435 218.799 96.8047 218.251 97.3271C217.729 97.8241 217.433 98.442 217.363 99.1811H223.03C223.03 98.4484 222.8 97.8368 222.341 97.3463C221.838 96.8111 221.153 96.5435 220.287 96.5435Z" fill="#222222"/>
<path d="M85.9945 131.06V121.726H87.2686V129.913H91.4862V131.06H85.9945ZM92.0659 127.632C92.0659 126.579 92.3484 125.729 92.9133 125.084C93.4824 124.434 94.2299 124.109 95.1558 124.109C96.1327 124.109 96.8908 124.421 97.4302 125.045C97.9696 125.665 98.2393 126.528 98.2393 127.632C98.2393 128.732 97.9633 129.601 97.4111 130.238C96.859 130.871 96.1072 131.187 95.1558 131.187C94.1832 131.187 93.4251 130.866 92.8814 130.225C92.3378 129.584 92.0659 128.719 92.0659 127.632ZM93.3401 127.632C93.3401 129.344 93.9453 130.199 95.1558 130.199C95.7207 130.199 96.1624 129.97 96.481 129.511C96.8038 129.053 96.9652 128.426 96.9652 127.632C96.9652 125.942 96.362 125.096 95.1558 125.096C94.6037 125.096 94.162 125.321 93.8307 125.772C93.5036 126.222 93.3401 126.842 93.3401 127.632ZM103.228 125.402C102.964 125.22 102.699 125.128 102.431 125.128C102.002 125.128 101.627 125.326 101.304 125.721C100.985 126.116 100.826 126.591 100.826 127.148V131.06H99.6155V124.236H100.826V125.326C101.268 124.514 101.924 124.109 102.795 124.109C103.011 124.109 103.323 124.147 103.731 124.224L103.228 125.402ZM110.338 127.766H105.419C105.419 128.564 105.638 129.178 106.076 129.607C106.462 129.981 106.959 130.168 107.566 130.168C108.259 130.168 108.836 129.966 109.299 129.562L109.809 130.435C109.622 130.622 109.335 130.783 108.949 130.919C108.465 131.098 107.925 131.187 107.331 131.187C106.473 131.187 105.744 130.896 105.145 130.314C104.479 129.673 104.145 128.811 104.145 127.728C104.145 126.602 104.487 125.699 105.171 125.02C105.782 124.413 106.507 124.109 107.343 124.109C108.316 124.109 109.078 124.383 109.631 124.931C110.166 125.457 110.433 126.156 110.433 127.027C110.433 127.294 110.401 127.541 110.338 127.766ZM107.401 125.128C106.861 125.128 106.409 125.302 106.044 125.651C105.695 125.982 105.498 126.394 105.451 126.887H109.229C109.229 126.398 109.076 125.99 108.77 125.663C108.435 125.307 107.978 125.128 107.401 125.128ZM119.614 131.06V126.74C119.614 125.665 119.149 125.128 118.219 125.128C117.925 125.128 117.651 125.22 117.397 125.402C117.142 125.581 116.968 125.784 116.874 126.014V131.06H115.664V126.211C115.664 125.876 115.536 125.612 115.282 125.421C115.031 125.226 114.698 125.128 114.281 125.128C114.039 125.128 113.78 125.222 113.504 125.409C113.232 125.595 113.039 125.801 112.924 126.026V131.06H111.714V124.236H112.504L112.905 125.026C113.372 124.415 113.956 124.109 114.657 124.109C115.634 124.109 116.318 124.413 116.709 125.02C116.845 124.761 117.097 124.544 117.467 124.37C117.836 124.196 118.216 124.109 118.607 124.109C119.312 124.109 119.858 124.319 120.244 124.74C120.631 125.156 120.824 125.742 120.824 126.498V131.06H119.614ZM126.8 131.06V121.726H128.074V131.06H126.8ZM131.323 130.684V133.735H130.113V124.236H131.323V124.797C131.782 124.338 132.336 124.109 132.986 124.109C133.955 124.109 134.709 124.41 135.248 125.014C135.787 125.617 136.057 126.5 136.057 127.664C136.057 128.7 135.785 129.547 135.242 130.206C134.698 130.86 133.912 131.187 132.884 131.187C132.596 131.187 132.285 131.136 131.954 131.034C131.627 130.932 131.417 130.815 131.323 130.684ZM131.323 125.708V129.683C131.4 129.798 131.561 129.908 131.808 130.015C132.054 130.117 132.294 130.168 132.528 130.168C134.031 130.168 134.783 129.318 134.783 127.619C134.783 126.757 134.604 126.126 134.248 125.727C133.891 125.328 133.32 125.128 132.534 125.128C132.364 125.128 132.156 125.188 131.91 125.307C131.663 125.426 131.468 125.559 131.323 125.708ZM136.943 130.652L137.369 129.505C138.045 129.947 138.588 130.168 139 130.168C139.748 130.168 140.122 129.853 140.122 129.225C140.122 128.774 139.761 128.388 139.039 128.065C138.482 127.81 138.106 127.617 137.911 127.485C137.72 127.354 137.552 127.205 137.408 127.039C137.268 126.87 137.161 126.691 137.089 126.504C137.021 126.313 136.987 126.109 136.987 125.893C136.987 125.332 137.191 124.895 137.599 124.58C138.007 124.266 138.54 124.109 139.198 124.109C139.695 124.109 140.321 124.266 141.077 124.58L140.733 125.702C140.253 125.319 139.771 125.128 139.287 125.128C138.998 125.128 138.754 125.196 138.554 125.332C138.359 125.468 138.261 125.64 138.261 125.848C138.261 126.286 138.51 126.617 139.007 126.842L139.873 127.237C140.404 127.479 140.791 127.755 141.033 128.065C141.275 128.375 141.396 128.764 141.396 129.231C141.396 129.843 141.181 130.323 140.752 130.671C140.323 131.015 139.729 131.187 138.969 131.187C138.251 131.187 137.575 131.009 136.943 130.652ZM143.823 124.236V128.588C143.823 129.641 144.28 130.168 145.193 130.168C145.592 130.168 145.957 130.053 146.289 129.824C146.62 129.594 146.839 129.329 146.945 129.027V124.236H148.155V131.06H146.945V130.117C146.809 130.384 146.535 130.631 146.123 130.856C145.715 131.076 145.316 131.187 144.925 131.187C144.178 131.187 143.604 130.972 143.205 130.543C142.81 130.114 142.613 129.505 142.613 128.715V124.236H143.823ZM157.712 131.06V126.74C157.712 125.665 157.247 125.128 156.317 125.128C156.023 125.128 155.75 125.22 155.495 125.402C155.24 125.581 155.066 125.784 154.972 126.014V131.06H153.762V126.211C153.762 125.876 153.634 125.612 153.38 125.421C153.129 125.226 152.796 125.128 152.379 125.128C152.137 125.128 151.878 125.222 151.602 125.409C151.33 125.595 151.137 125.801 151.022 126.026V131.06H149.812V124.236H150.602L151.003 125.026C151.47 124.415 152.054 124.109 152.755 124.109C153.732 124.109 154.416 124.413 154.807 125.02C154.943 124.761 155.195 124.544 155.565 124.37C155.934 124.196 156.314 124.109 156.705 124.109C157.41 124.109 157.956 124.319 158.342 124.74C158.729 125.156 158.922 125.742 158.922 126.498V131.06H157.712ZM165.828 121.656C166.036 121.656 166.213 121.73 166.357 121.879C166.506 122.023 166.58 122.198 166.58 122.401C166.58 122.61 166.506 122.788 166.357 122.937C166.213 123.081 166.036 123.153 165.828 123.153C165.624 123.153 165.448 123.081 165.3 122.937C165.155 122.788 165.083 122.61 165.083 122.401C165.083 122.193 165.155 122.017 165.3 121.873C165.444 121.728 165.62 121.656 165.828 121.656ZM165.166 131.06V125.256H164.229V124.236H166.376V131.06H165.166ZM167.854 130.652L168.281 129.505C168.956 129.947 169.5 130.168 169.912 130.168C170.66 130.168 171.033 129.853 171.033 129.225C171.033 128.774 170.672 128.388 169.95 128.065C169.394 127.81 169.018 127.617 168.823 127.485C168.631 127.354 168.464 127.205 168.319 127.039C168.179 126.87 168.073 126.691 168.001 126.504C167.933 126.313 167.899 126.109 167.899 125.893C167.899 125.332 168.103 124.895 168.51 124.58C168.918 124.266 169.451 124.109 170.11 124.109C170.606 124.109 171.233 124.266 171.989 124.58L171.645 125.702C171.165 125.319 170.683 125.128 170.199 125.128C169.91 125.128 169.666 125.196 169.466 125.332C169.271 125.468 169.173 125.64 169.173 125.848C169.173 126.286 169.421 126.617 169.918 126.842L170.785 127.237C171.316 127.479 171.702 127.755 171.944 128.065C172.186 128.375 172.308 128.764 172.308 129.231C172.308 129.843 172.093 130.323 171.664 130.671C171.235 131.015 170.64 131.187 169.88 131.187C169.162 131.187 168.487 131.009 167.854 130.652ZM177.079 130.652L177.506 129.505C178.181 129.947 178.725 130.168 179.137 130.168C179.885 130.168 180.258 129.853 180.258 129.225C180.258 128.774 179.897 128.388 179.175 128.065C178.619 127.81 178.243 127.617 178.048 127.485C177.857 127.354 177.689 127.205 177.544 127.039C177.404 126.87 177.298 126.691 177.226 126.504C177.158 126.313 177.124 126.109 177.124 125.893C177.124 125.332 177.328 124.895 177.736 124.58C178.143 124.266 178.676 124.109 179.335 124.109C179.832 124.109 180.458 124.266 181.214 124.58L180.87 125.702C180.39 125.319 179.908 125.128 179.424 125.128C179.135 125.128 178.891 125.196 178.691 125.332C178.496 125.468 178.398 125.64 178.398 125.848C178.398 126.286 178.647 126.617 179.143 126.842L180.01 127.237C180.541 127.479 180.927 127.755 181.169 128.065C181.412 128.375 181.533 128.764 181.533 129.231C181.533 129.843 181.318 130.323 180.889 130.671C180.46 131.015 179.866 131.187 179.105 131.187C178.387 131.187 177.712 131.009 177.079 130.652ZM184.062 121.656C184.27 121.656 184.446 121.73 184.591 121.879C184.739 122.023 184.814 122.198 184.814 122.401C184.814 122.61 184.739 122.788 184.591 122.937C184.446 123.081 184.27 123.153 184.062 123.153C183.858 123.153 183.682 123.081 183.533 122.937C183.389 122.788 183.316 122.61 183.316 122.401C183.316 122.193 183.389 122.017 183.533 121.873C183.677 121.728 183.854 121.656 184.062 121.656ZM183.399 131.06V125.256H182.463V124.236H184.61V131.06H183.399ZM194.434 131.06V126.74C194.434 125.665 193.969 125.128 193.038 125.128C192.745 125.128 192.471 125.22 192.217 125.402C191.962 125.581 191.788 125.784 191.694 126.014V131.06H190.484V126.211C190.484 125.876 190.356 125.612 190.101 125.421C189.851 125.226 189.517 125.128 189.101 125.128C188.859 125.128 188.6 125.222 188.324 125.409C188.052 125.595 187.859 125.801 187.744 126.026V131.06H186.534V124.236H187.324L187.725 125.026C188.192 124.415 188.776 124.109 189.477 124.109C190.454 124.109 191.138 124.413 191.529 125.02C191.664 124.761 191.917 124.544 192.287 124.37C192.656 124.196 193.036 124.109 193.427 124.109C194.132 124.109 194.678 124.319 195.064 124.74C195.451 125.156 195.644 125.742 195.644 126.498V131.06H194.434ZM198.575 130.684V133.735H197.364V124.236H198.575V124.797C199.033 124.338 199.588 124.109 200.238 124.109C201.206 124.109 201.96 124.41 202.499 125.014C203.039 125.617 203.308 126.5 203.308 127.664C203.308 128.7 203.037 129.547 202.493 130.206C201.949 130.86 201.163 131.187 200.136 131.187C199.847 131.187 199.537 131.136 199.205 131.034C198.878 130.932 198.668 130.815 198.575 130.684ZM198.575 125.708V129.683C198.651 129.798 198.813 129.908 199.059 130.015C199.305 130.117 199.545 130.168 199.779 130.168C201.282 130.168 202.034 129.318 202.034 127.619C202.034 126.757 201.856 126.126 201.499 125.727C201.142 125.328 200.571 125.128 199.785 125.128C199.615 125.128 199.407 125.188 199.161 125.307C198.915 125.426 198.719 125.559 198.575 125.708ZM204.735 129.129V121.439H205.946V128.925C205.946 129.291 206.05 129.579 206.258 129.792C206.47 130 206.747 130.104 207.086 130.104V131.187C205.519 131.187 204.735 130.501 204.735 129.129ZM211.094 132.219C210.936 132.652 210.605 133.013 210.1 133.302C209.599 133.591 209.038 133.735 208.418 133.735V132.652C208.923 132.652 209.356 132.533 209.717 132.295C210.078 132.062 210.259 131.775 210.259 131.435C210.259 131.062 210.193 130.694 210.062 130.333C209.93 129.968 209.76 129.518 209.552 128.983L207.704 124.236H208.94L210.947 129.511L212.75 124.236H213.986L211.094 132.219ZM223.186 131.053V130.55C222.765 130.97 222.153 131.181 221.351 131.181C220.497 131.181 219.805 130.875 219.274 130.263C218.743 129.652 218.477 128.836 218.477 127.817C218.477 126.793 218.783 125.92 219.395 125.198C220.007 124.472 220.735 124.109 221.58 124.109C222.285 124.109 222.82 124.274 223.186 124.606V121.439H224.396V131.053H223.186ZM223.186 125.816C222.88 125.358 222.461 125.128 221.931 125.128C221.281 125.128 220.754 125.37 220.351 125.854C219.951 126.339 219.752 126.955 219.752 127.702C219.752 129.346 220.499 130.168 221.994 130.168C222.185 130.168 222.415 130.108 222.682 129.989C222.95 129.866 223.118 129.736 223.186 129.601V125.816ZM227.282 124.236V128.588C227.282 129.641 227.739 130.168 228.652 130.168C229.051 130.168 229.416 130.053 229.748 129.824C230.079 129.594 230.298 129.329 230.404 129.027V124.236H231.614V131.06H230.404V130.117C230.268 130.384 229.994 130.631 229.582 130.856C229.174 131.076 228.775 131.187 228.384 131.187C227.637 131.187 227.063 130.972 226.664 130.543C226.269 130.114 226.072 129.505 226.072 128.715V124.236H227.282ZM241.171 131.06V126.74C241.171 125.665 240.706 125.128 239.775 125.128C239.482 125.128 239.208 125.22 238.954 125.402C238.699 125.581 238.525 125.784 238.431 126.014V131.06H237.221V126.211C237.221 125.876 237.093 125.612 236.838 125.421C236.588 125.226 236.254 125.128 235.838 125.128C235.596 125.128 235.337 125.222 235.061 125.409C234.789 125.595 234.596 125.801 234.481 126.026V131.06H233.271V124.236H234.061L234.462 125.026C234.929 124.415 235.513 124.109 236.214 124.109C237.191 124.109 237.875 124.413 238.266 125.02C238.401 124.761 238.654 124.544 239.024 124.37C239.393 124.196 239.773 124.109 240.164 124.109C240.869 124.109 241.415 124.319 241.801 124.74C242.188 125.156 242.381 125.742 242.381 126.498V131.06H241.171ZM252.001 131.06V126.74C252.001 125.665 251.536 125.128 250.606 125.128C250.313 125.128 250.039 125.22 249.784 125.402C249.529 125.581 249.355 125.784 249.262 126.014V131.06H248.051V126.211C248.051 125.876 247.924 125.612 247.669 125.421C247.418 125.226 247.085 125.128 246.669 125.128C246.427 125.128 246.168 125.222 245.891 125.409C245.62 125.595 245.426 125.801 245.312 126.026V131.06H244.101V124.236H244.891L245.293 125.026C245.76 124.415 246.344 124.109 247.045 124.109C248.022 124.109 248.705 124.413 249.096 125.02C249.232 124.761 249.485 124.544 249.854 124.37C250.224 124.196 250.604 124.109 250.995 124.109C251.7 124.109 252.245 124.319 252.632 124.74C253.018 125.156 253.212 125.742 253.212 126.498V131.06H252.001ZM257.538 132.219C257.38 132.652 257.049 133.013 256.544 133.302C256.042 133.591 255.482 133.735 254.862 133.735V132.652C255.367 132.652 255.8 132.533 256.161 132.295C256.522 132.062 256.703 131.775 256.703 131.435C256.703 131.062 256.637 130.694 256.505 130.333C256.374 129.968 256.204 129.518 255.996 128.983L254.148 124.236H255.384L257.391 129.511L259.194 124.236H260.43L257.538 132.219ZM265.737 125.192H264.947V124.236H265.737V122.809L266.947 122.344V124.236H268.82V125.192H266.947V128.581C266.947 129.155 267.043 129.562 267.234 129.804C267.429 130.047 267.742 130.168 268.171 130.168C268.481 130.168 268.801 130.089 269.133 129.932L269.311 130.996C268.81 131.123 268.26 131.187 267.661 131.187C267.121 131.187 266.665 130.987 266.291 130.588C265.922 130.185 265.737 129.677 265.737 129.065V125.192ZM276.223 127.766H271.305C271.305 128.564 271.524 129.178 271.961 129.607C272.348 129.981 272.845 130.168 273.452 130.168C274.144 130.168 274.722 129.966 275.185 129.562L275.695 130.435C275.508 130.622 275.221 130.783 274.835 130.919C274.35 131.098 273.811 131.187 273.216 131.187C272.358 131.187 271.63 130.896 271.031 130.314C270.364 129.673 270.031 128.811 270.031 127.728C270.031 126.602 270.373 125.699 271.057 125.02C271.668 124.413 272.392 124.109 273.229 124.109C274.202 124.109 274.964 124.383 275.516 124.931C276.051 125.457 276.319 126.156 276.319 127.027C276.319 127.294 276.287 127.541 276.223 127.766ZM273.286 125.128C272.747 125.128 272.295 125.302 271.929 125.651C271.581 125.982 271.384 126.394 271.337 126.887H275.115C275.115 126.398 274.962 125.99 274.656 125.663C274.321 125.307 273.864 125.128 273.286 125.128ZM281.753 131.06L279.893 128.575L278.23 131.06H276.816L279.294 127.568L277.02 124.236H278.383L279.912 126.581L281.626 124.236H282.964L280.486 127.568L283.2 131.06H281.753ZM284.569 125.192H283.779V124.236H284.569V122.809L285.78 122.344V124.236H287.653V125.192H285.78V128.581C285.78 129.155 285.875 129.562 286.066 129.804C286.262 130.047 286.574 130.168 287.003 130.168C287.313 130.168 287.634 130.089 287.965 129.932L288.143 130.996C287.642 131.123 287.092 131.187 286.493 131.187C285.954 131.187 285.497 130.987 285.124 130.588C284.754 130.185 284.569 129.677 284.569 129.065V125.192ZM292.8 127.632C292.8 126.579 293.083 125.729 293.648 125.084C294.217 124.434 294.964 124.109 295.89 124.109C296.867 124.109 297.625 124.421 298.165 125.045C298.704 125.665 298.974 126.528 298.974 127.632C298.974 128.732 298.698 129.601 298.146 130.238C297.594 130.871 296.842 131.187 295.89 131.187C294.918 131.187 294.16 130.866 293.616 130.225C293.072 129.584 292.8 128.719 292.8 127.632ZM294.075 127.632C294.075 129.344 294.68 130.199 295.89 130.199C296.455 130.199 296.897 129.97 297.216 129.511C297.538 129.053 297.7 128.426 297.7 127.632C297.7 125.942 297.097 125.096 295.89 125.096C295.338 125.096 294.897 125.321 294.565 125.772C294.238 126.222 294.075 126.842 294.075 127.632ZM303.943 122.522C303.697 122.438 303.468 122.395 303.255 122.395C302.886 122.395 302.58 122.535 302.338 122.816C302.1 123.096 301.981 123.451 301.981 123.879C301.981 123.994 301.992 124.113 302.013 124.236H303.402V125.256H302.013V131.06H300.802V125.256H299.808V124.236H300.802C300.802 123.366 301.017 122.682 301.446 122.185C301.875 121.688 302.442 121.439 303.147 121.439C303.499 121.439 303.877 121.503 304.281 121.631L303.943 122.522ZM309.454 125.192H308.664V124.236H309.454V122.809L310.665 122.344V124.236H312.538V125.192H310.665V128.581C310.665 129.155 310.76 129.562 310.951 129.804C311.147 130.047 311.459 130.168 311.888 130.168C312.198 130.168 312.518 130.089 312.85 129.932L313.028 130.996C312.527 131.123 311.977 131.187 311.378 131.187C310.839 131.187 310.382 130.987 310.008 130.588C309.639 130.185 309.454 129.677 309.454 129.065V125.192ZM318.399 131.06V126.772C318.399 126.262 318.274 125.861 318.023 125.568C317.772 125.275 317.42 125.128 316.965 125.128C316.672 125.128 316.377 125.215 316.08 125.389C315.787 125.559 315.562 125.759 315.404 125.988V131.06H314.194V121.439H315.404V124.988C315.566 124.737 315.825 124.529 316.182 124.364C316.543 124.194 316.914 124.109 317.297 124.109C318.019 124.109 318.584 124.347 318.991 124.822C319.403 125.298 319.609 125.948 319.609 126.772V131.06H318.399ZM327.076 127.766H322.158C322.158 128.564 322.376 129.178 322.814 129.607C323.2 129.981 323.697 130.168 324.305 130.168C324.997 130.168 325.575 129.966 326.038 129.562L326.547 130.435C326.36 130.622 326.074 130.783 325.687 130.919C325.203 131.098 324.664 131.187 324.069 131.187C323.211 131.187 322.483 130.896 321.884 130.314C321.217 129.673 320.883 128.811 320.883 127.728C320.883 126.602 321.225 125.699 321.909 125.02C322.521 124.413 323.245 124.109 324.082 124.109C325.054 124.109 325.817 124.383 326.369 124.931C326.904 125.457 327.172 126.156 327.172 127.027C327.172 127.294 327.14 127.541 327.076 127.766ZM324.139 125.128C323.6 125.128 323.147 125.302 322.782 125.651C322.434 125.982 322.236 126.394 322.189 126.887H325.967C325.967 126.398 325.815 125.99 325.509 125.663C325.173 125.307 324.717 125.128 324.139 125.128ZM70.5195 145.684V148.735H69.309V139.236H70.5195V139.797C70.9782 139.338 71.5325 139.109 72.1823 139.109C73.1507 139.109 73.9046 139.41 74.444 140.014C74.9834 140.617 75.2531 141.5 75.2531 142.664C75.2531 143.7 74.9813 144.547 74.4376 145.206C73.894 145.86 73.1082 146.187 72.0804 146.187C71.7916 146.187 71.4815 146.136 71.1502 146.034C70.8232 145.932 70.613 145.815 70.5195 145.684ZM70.5195 140.708V144.683C70.596 144.798 70.7574 144.908 71.0037 145.015C71.2501 145.117 71.49 145.168 71.7236 145.168C73.2272 145.168 73.9789 144.318 73.9789 142.619C73.9789 141.757 73.8005 141.126 73.4438 140.727C73.087 140.328 72.5157 140.128 71.73 140.128C71.5601 140.128 71.352 140.188 71.1056 140.307C70.8593 140.426 70.6639 140.559 70.5195 140.708ZM80.2925 140.402C80.0292 140.22 79.7637 140.128 79.4961 140.128C79.0672 140.128 78.6913 140.326 78.3685 140.721C78.0499 141.116 77.8907 141.591 77.8907 142.148V146.06H76.6802V139.236H77.8907V140.326C78.3324 139.514 78.9886 139.109 79.8593 139.109C80.0759 139.109 80.3881 139.147 80.7958 139.224L80.2925 140.402ZM82.9046 136.656C83.1127 136.656 83.2889 136.73 83.4333 136.879C83.582 137.023 83.6563 137.198 83.6563 137.401C83.6563 137.61 83.582 137.788 83.4333 137.937C83.2889 138.081 83.1127 138.153 82.9046 138.153C82.7007 138.153 82.5244 138.081 82.3758 137.937C82.2314 137.788 82.1592 137.61 82.1592 137.401C82.1592 137.193 82.2314 137.017 82.3758 136.873C82.5202 136.728 82.6964 136.656 82.9046 136.656ZM82.242 146.06V140.256H81.3055V139.236H83.4525V146.06H82.242ZM89.5749 146.06V142.09C89.5749 141.364 89.4645 140.857 89.2436 140.568C89.027 140.275 88.6617 140.128 88.1478 140.128C87.8717 140.128 87.5829 140.211 87.2814 140.377C86.9798 140.542 86.7483 140.746 86.5869 140.988V146.06H85.3765V139.236H86.2047L86.5869 140.115C86.9862 139.444 87.6381 139.109 88.5428 139.109C90.0379 139.109 90.7854 140.018 90.7854 141.836V146.06H89.5749ZM92.9451 140.192H92.1551V139.236H92.9451V137.809L94.1556 137.344V139.236H96.0286V140.192H94.1556V143.581C94.1556 144.155 94.2512 144.562 94.4423 144.804C94.6377 145.047 94.9498 145.168 95.3788 145.168C95.6889 145.168 96.0095 145.089 96.3408 144.932L96.5192 145.996C96.018 146.123 95.468 146.187 94.8691 146.187C94.3297 146.187 93.8731 145.987 93.4994 145.588C93.1299 145.185 92.9451 144.677 92.9451 144.065V140.192ZM98.9338 136.656C99.1419 136.656 99.3181 136.73 99.4626 136.879C99.6112 137.023 99.6855 137.198 99.6855 137.401C99.6855 137.61 99.6112 137.788 99.4626 137.937C99.3181 138.081 99.1419 138.153 98.9338 138.153C98.7299 138.153 98.5536 138.081 98.405 137.937C98.2606 137.788 98.1884 137.61 98.1884 137.401C98.1884 137.193 98.2606 137.017 98.405 136.873C98.5494 136.728 98.7257 136.656 98.9338 136.656ZM98.2712 146.06V140.256H97.3347V139.236H99.4817V146.06H98.2712ZM105.604 146.06V142.09C105.604 141.364 105.494 140.857 105.273 140.568C105.056 140.275 104.691 140.128 104.177 140.128C103.901 140.128 103.612 140.211 103.311 140.377C103.009 140.542 102.778 140.746 102.616 140.988V146.06H101.406V139.236H102.234L102.616 140.115C103.015 139.444 103.667 139.109 104.572 139.109C106.067 139.109 106.815 140.018 106.815 141.836V146.06H105.604ZM108.293 147.926L108.949 146.958C109.654 147.429 110.304 147.665 110.898 147.665C111.446 147.665 111.877 147.569 112.192 147.378C112.51 147.191 112.669 146.958 112.669 146.677C112.669 146.125 112.27 145.849 111.472 145.849C111.336 145.849 111.089 145.883 110.733 145.951C110.376 146.019 110.098 146.053 109.898 146.053C108.93 146.053 108.446 145.688 108.446 144.957C108.446 144.732 108.558 144.528 108.783 144.346C109.013 144.163 109.295 144.031 109.631 143.951C108.671 143.501 108.191 142.719 108.191 141.606C108.191 140.893 108.439 140.298 108.936 139.822C109.433 139.347 110.047 139.109 110.777 139.109C111.448 139.109 111.973 139.247 112.351 139.523L112.956 138.797L113.746 139.542L113.02 140.09C113.33 140.493 113.485 141.02 113.485 141.67C113.485 142.358 113.27 142.936 112.841 143.403C112.412 143.87 111.85 144.138 111.153 144.206L110.153 144.308C110.034 144.32 109.875 144.367 109.675 144.448C109.475 144.524 109.376 144.626 109.376 144.753C109.376 144.928 109.584 145.015 110 145.015C110.183 145.015 110.467 144.983 110.854 144.919C111.24 144.851 111.527 144.817 111.714 144.817C112.385 144.817 112.907 144.979 113.281 145.301C113.659 145.62 113.848 146.064 113.848 146.633C113.848 147.261 113.566 147.769 113.001 148.156C112.44 148.542 111.729 148.735 110.866 148.735C110.425 148.735 109.96 148.657 109.471 148.5C108.983 148.342 108.59 148.151 108.293 147.926ZM110.86 140.084C110.44 140.084 110.096 140.232 109.828 140.53C109.565 140.827 109.433 141.188 109.433 141.613C109.433 142.088 109.56 142.483 109.815 142.798C110.074 143.108 110.423 143.263 110.86 143.263C111.289 143.263 111.625 143.112 111.867 142.81C112.109 142.505 112.23 142.105 112.23 141.613C112.23 141.188 112.098 140.827 111.835 140.53C111.576 140.232 111.251 140.084 110.86 140.084ZM122.882 145.276C122.398 145.883 121.657 146.187 120.659 146.187C120.123 146.187 119.658 145.994 119.263 145.607C118.873 145.216 118.677 144.732 118.677 144.155C118.677 143.462 118.979 142.878 119.582 142.403C120.189 141.923 120.962 141.683 121.901 141.683C122.156 141.683 122.445 141.738 122.767 141.848C122.767 140.744 122.275 140.192 121.289 140.192C120.533 140.192 119.951 140.396 119.544 140.804L119.034 139.791C119.263 139.604 119.58 139.444 119.983 139.313C120.391 139.177 120.78 139.109 121.149 139.109C122.139 139.109 122.857 139.334 123.302 139.784C123.753 140.234 123.978 140.95 123.978 141.931V144.378C123.978 144.976 124.156 145.376 124.513 145.575V146.181C124.02 146.181 123.651 146.11 123.404 145.97C123.162 145.83 122.988 145.599 122.882 145.276ZM122.767 142.708C122.385 142.623 122.118 142.581 121.965 142.581C121.353 142.581 120.854 142.738 120.467 143.052C120.081 143.367 119.888 143.738 119.888 144.167C119.888 144.877 120.306 145.231 121.143 145.231C121.754 145.231 122.296 144.94 122.767 144.358V142.708ZM130.081 146.06V142.09C130.081 141.364 129.971 140.857 129.75 140.568C129.533 140.275 129.168 140.128 128.654 140.128C128.378 140.128 128.089 140.211 127.788 140.377C127.486 140.542 127.255 140.746 127.093 140.988V146.06H125.883V139.236H126.711L127.093 140.115C127.492 139.444 128.144 139.109 129.049 139.109C130.544 139.109 131.292 140.018 131.292 141.836V146.06H130.081ZM137.344 146.053V145.55C136.923 145.97 136.312 146.181 135.509 146.181C134.655 146.181 133.963 145.875 133.432 145.263C132.901 144.652 132.636 143.836 132.636 142.817C132.636 141.793 132.942 140.92 133.553 140.198C134.165 139.472 134.893 139.109 135.739 139.109C136.444 139.109 136.979 139.274 137.344 139.606V136.439H138.554V146.053H137.344ZM137.344 140.816C137.038 140.358 136.62 140.128 136.089 140.128C135.439 140.128 134.912 140.37 134.509 140.854C134.11 141.339 133.91 141.955 133.91 142.702C133.91 144.346 134.658 145.168 136.153 145.168C136.344 145.168 136.573 145.108 136.841 144.989C137.108 144.866 137.276 144.736 137.344 144.601V140.816ZM144.664 140.192H143.874V139.236H144.664V137.809L145.875 137.344V139.236H147.748V140.192H145.875V143.581C145.875 144.155 145.97 144.562 146.161 144.804C146.357 145.047 146.669 145.168 147.098 145.168C147.408 145.168 147.729 145.089 148.06 144.932L148.238 145.996C147.737 146.123 147.187 146.187 146.588 146.187C146.049 146.187 145.592 145.987 145.218 145.588C144.849 145.185 144.664 144.677 144.664 144.065V140.192ZM152.01 147.219C151.853 147.652 151.521 148.013 151.016 148.302C150.515 148.591 149.954 148.735 149.334 148.735V147.652C149.839 147.652 150.273 147.533 150.634 147.295C150.995 147.062 151.175 146.775 151.175 146.435C151.175 146.062 151.109 145.694 150.978 145.333C150.846 144.968 150.676 144.518 150.468 143.983L148.62 139.236H149.856L151.863 144.511L153.666 139.236H154.902L152.01 147.219ZM157.049 145.684V148.735H155.839V139.236H157.049V139.797C157.508 139.338 158.062 139.109 158.712 139.109C159.68 139.109 160.434 139.41 160.974 140.014C161.513 140.617 161.783 141.5 161.783 142.664C161.783 143.7 161.511 144.547 160.967 145.206C160.424 145.86 159.638 146.187 158.61 146.187C158.321 146.187 158.011 146.136 157.68 146.034C157.353 145.932 157.143 145.815 157.049 145.684ZM157.049 140.708V144.683C157.126 144.798 157.287 144.908 157.533 145.015C157.78 145.117 158.02 145.168 158.253 145.168C159.757 145.168 160.509 144.318 160.509 142.619C160.509 141.757 160.33 141.126 159.973 140.727C159.617 140.328 159.045 140.128 158.26 140.128C158.09 140.128 157.882 140.188 157.635 140.307C157.389 140.426 157.194 140.559 157.049 140.708ZM168.861 142.766H163.943C163.943 143.564 164.161 144.178 164.599 144.607C164.985 144.981 165.482 145.168 166.09 145.168C166.782 145.168 167.359 144.966 167.822 144.562L168.332 145.435C168.145 145.622 167.858 145.783 167.472 145.919C166.988 146.098 166.448 146.187 165.854 146.187C164.996 146.187 164.267 145.896 163.669 145.314C163.002 144.673 162.668 143.811 162.668 142.728C162.668 141.602 163.01 140.699 163.694 140.02C164.306 139.413 165.03 139.109 165.867 139.109C166.839 139.109 167.602 139.383 168.154 139.931C168.689 140.457 168.956 141.156 168.956 142.027C168.956 142.294 168.925 142.541 168.861 142.766ZM165.924 140.128C165.384 140.128 164.932 140.302 164.567 140.651C164.219 140.982 164.021 141.394 163.974 141.887H167.752C167.752 141.398 167.599 140.99 167.294 140.663C166.958 140.307 166.501 140.128 165.924 140.128ZM169.791 145.652L170.218 144.505C170.893 144.947 171.437 145.168 171.849 145.168C172.596 145.168 172.97 144.853 172.97 144.225C172.97 143.774 172.609 143.388 171.887 143.065C171.331 142.81 170.955 142.617 170.759 142.485C170.568 142.354 170.4 142.205 170.256 142.039C170.116 141.87 170.01 141.691 169.938 141.504C169.87 141.313 169.836 141.109 169.836 140.893C169.836 140.332 170.039 139.895 170.447 139.58C170.855 139.266 171.388 139.109 172.046 139.109C172.543 139.109 173.17 139.266 173.926 139.58L173.582 140.702C173.102 140.319 172.62 140.128 172.135 140.128C171.847 140.128 171.602 140.196 171.403 140.332C171.207 140.468 171.11 140.64 171.11 140.848C171.11 141.286 171.358 141.617 171.855 141.842L172.722 142.237C173.253 142.479 173.639 142.755 173.881 143.065C174.123 143.375 174.244 143.764 174.244 144.231C174.244 144.843 174.03 145.323 173.601 145.671C173.172 146.015 172.577 146.187 171.817 146.187C171.099 146.187 170.424 146.009 169.791 145.652ZM181.271 142.766H176.353C176.353 143.564 176.572 144.178 177.009 144.607C177.396 144.981 177.893 145.168 178.5 145.168C179.192 145.168 179.77 144.966 180.233 144.562L180.743 145.435C180.556 145.622 180.269 145.783 179.883 145.919C179.398 146.098 178.859 146.187 178.264 146.187C177.406 146.187 176.678 145.896 176.079 145.314C175.412 144.673 175.079 143.811 175.079 142.728C175.079 141.602 175.421 140.699 176.105 140.02C176.716 139.413 177.44 139.109 178.277 139.109C179.25 139.109 180.012 139.383 180.564 139.931C181.099 140.457 181.367 141.156 181.367 142.027C181.367 142.294 181.335 142.541 181.271 142.766ZM178.334 140.128C177.795 140.128 177.343 140.302 176.977 140.651C176.629 140.982 176.432 141.394 176.385 141.887H180.163C180.163 141.398 180.01 140.99 179.704 140.663C179.369 140.307 178.912 140.128 178.334 140.128ZM183.081 140.192H182.291V139.236H183.081V137.809L184.291 137.344V139.236H186.164V140.192H184.291V143.581C184.291 144.155 184.387 144.562 184.578 144.804C184.773 145.047 185.085 145.168 185.514 145.168C185.824 145.168 186.145 145.089 186.476 144.932L186.655 145.996C186.154 146.123 185.604 146.187 185.005 146.187C184.465 146.187 184.009 145.987 183.635 145.588C183.265 145.185 183.081 144.677 183.081 144.065V140.192ZM188.254 140.192H187.464V139.236H188.254V137.809L189.464 137.344V139.236H191.337V140.192H189.464V143.581C189.464 144.155 189.56 144.562 189.751 144.804C189.946 145.047 190.259 145.168 190.688 145.168C190.998 145.168 191.318 145.089 191.65 144.932L191.828 145.996C191.327 146.123 190.777 146.187 190.178 146.187C189.639 146.187 189.182 145.987 188.808 145.588C188.439 145.185 188.254 144.677 188.254 144.065V140.192ZM194.243 136.656C194.451 136.656 194.627 136.73 194.771 136.879C194.92 137.023 194.994 137.198 194.994 137.401C194.994 137.61 194.92 137.788 194.771 137.937C194.627 138.081 194.451 138.153 194.243 138.153C194.039 138.153 193.862 138.081 193.714 137.937C193.569 137.788 193.497 137.61 193.497 137.401C193.497 137.193 193.569 137.017 193.714 136.873C193.858 136.728 194.034 136.656 194.243 136.656ZM193.58 146.06V140.256H192.643V139.236H194.79V146.06H193.58ZM200.913 146.06V142.09C200.913 141.364 200.802 140.857 200.582 140.568C200.365 140.275 200 140.128 199.486 140.128C199.21 140.128 198.921 140.211 198.619 140.377C198.318 140.542 198.086 140.746 197.925 140.988V146.06H196.714V139.236H197.543L197.925 140.115C198.324 139.444 198.976 139.109 199.881 139.109C201.376 139.109 202.123 140.018 202.123 141.836V146.06H200.913ZM203.601 147.926L204.258 146.958C204.963 147.429 205.612 147.665 206.207 147.665C206.755 147.665 207.186 147.569 207.5 147.378C207.819 147.191 207.978 146.958 207.978 146.677C207.978 146.125 207.579 145.849 206.78 145.849C206.645 145.849 206.398 145.883 206.041 145.951C205.685 146.019 205.407 146.053 205.207 146.053C204.239 146.053 203.754 145.688 203.754 144.957C203.754 144.732 203.867 144.528 204.092 144.346C204.321 144.163 204.604 144.031 204.939 143.951C203.979 143.501 203.499 142.719 203.499 141.606C203.499 140.893 203.748 140.298 204.245 139.822C204.742 139.347 205.356 139.109 206.086 139.109C206.757 139.109 207.282 139.247 207.66 139.523L208.265 138.797L209.055 139.542L208.329 140.09C208.639 140.493 208.794 141.02 208.794 141.67C208.794 142.358 208.579 142.936 208.15 143.403C207.721 143.87 207.159 144.138 206.462 144.206L205.462 144.308C205.343 144.32 205.184 144.367 204.984 144.448C204.784 144.524 204.684 144.626 204.684 144.753C204.684 144.928 204.893 145.015 205.309 145.015C205.491 145.015 205.776 144.983 206.163 144.919C206.549 144.851 206.836 144.817 207.023 144.817C207.694 144.817 208.216 144.979 208.59 145.301C208.968 145.62 209.157 146.064 209.157 146.633C209.157 147.261 208.874 147.769 208.31 148.156C207.749 148.542 207.037 148.735 206.175 148.735C205.734 148.735 205.268 148.657 204.78 148.5C204.292 148.342 203.899 148.151 203.601 147.926ZM206.169 140.084C205.748 140.084 205.404 140.232 205.137 140.53C204.873 140.827 204.742 141.188 204.742 141.613C204.742 142.088 204.869 142.483 205.124 142.798C205.383 143.108 205.731 143.263 206.169 143.263C206.598 143.263 206.933 143.112 207.175 142.81C207.418 142.505 207.539 142.105 207.539 141.613C207.539 141.188 207.407 140.827 207.144 140.53C206.885 140.232 206.56 140.084 206.169 140.084ZM215.585 136.656C215.793 136.656 215.969 136.73 216.114 136.879C216.263 137.023 216.337 137.198 216.337 137.401C216.337 137.61 216.263 137.788 216.114 137.937C215.969 138.081 215.793 138.153 215.585 138.153C215.381 138.153 215.205 138.081 215.056 137.937C214.912 137.788 214.84 137.61 214.84 137.401C214.84 137.193 214.912 137.017 215.056 136.873C215.201 136.728 215.377 136.656 215.585 136.656ZM214.923 146.06V140.256H213.986V139.236H216.133V146.06H214.923ZM222.255 146.06V142.09C222.255 141.364 222.145 140.857 221.924 140.568C221.708 140.275 221.342 140.128 220.828 140.128C220.552 140.128 220.263 140.211 219.962 140.377C219.66 140.542 219.429 140.746 219.267 140.988V146.06H218.057V139.236H218.885L219.267 140.115C219.667 139.444 220.319 139.109 221.223 139.109C222.718 139.109 223.466 140.018 223.466 141.836V146.06H222.255ZM229.518 146.053V145.55C229.098 145.97 228.486 146.181 227.683 146.181C226.83 146.181 226.137 145.875 225.607 145.263C225.076 144.652 224.81 143.836 224.81 142.817C224.81 141.793 225.116 140.92 225.728 140.198C226.339 139.472 227.068 139.109 227.913 139.109C228.618 139.109 229.153 139.274 229.518 139.606V136.439H230.729V146.053H229.518ZM229.518 140.816C229.212 140.358 228.794 140.128 228.263 140.128C227.613 140.128 227.087 140.37 226.683 140.854C226.284 141.339 226.084 141.955 226.084 142.702C226.084 144.346 226.832 145.168 228.327 145.168C228.518 145.168 228.747 145.108 229.015 144.989C229.283 144.866 229.45 144.736 229.518 144.601V140.816ZM233.615 139.236V143.588C233.615 144.641 234.071 145.168 234.985 145.168C235.384 145.168 235.749 145.053 236.08 144.824C236.412 144.594 236.63 144.329 236.737 144.027V139.236H237.947V146.06H236.737V145.117C236.601 145.384 236.327 145.631 235.915 145.856C235.507 146.076 235.108 146.187 234.717 146.187C233.969 146.187 233.396 145.972 232.997 145.543C232.602 145.114 232.404 144.505 232.404 143.715V139.236H233.615ZM239.157 145.652L239.584 144.505C240.26 144.947 240.803 145.168 241.215 145.168C241.963 145.168 242.337 144.853 242.337 144.225C242.337 143.774 241.976 143.388 241.253 143.065C240.697 142.81 240.321 142.617 240.126 142.485C239.935 142.354 239.767 142.205 239.623 142.039C239.482 141.87 239.376 141.691 239.304 141.504C239.236 141.313 239.202 141.109 239.202 140.893C239.202 140.332 239.406 139.895 239.814 139.58C240.221 139.266 240.754 139.109 241.413 139.109C241.91 139.109 242.536 139.266 243.292 139.58L242.948 140.702C242.468 140.319 241.986 140.128 241.502 140.128C241.213 140.128 240.969 140.196 240.769 140.332C240.574 140.468 240.476 140.64 240.476 140.848C240.476 141.286 240.725 141.617 241.222 141.842L242.088 142.237C242.619 142.479 243.005 142.755 243.248 143.065C243.49 143.375 243.611 143.764 243.611 144.231C243.611 144.843 243.396 145.323 242.967 145.671C242.538 146.015 241.944 146.187 241.183 146.187C240.466 146.187 239.79 146.009 239.157 145.652ZM245.324 140.192H244.534V139.236H245.324V137.809L246.535 137.344V139.236H248.408V140.192H246.535V143.581C246.535 144.155 246.631 144.562 246.822 144.804C247.017 145.047 247.329 145.168 247.758 145.168C248.068 145.168 248.389 145.089 248.72 144.932L248.899 145.996C248.397 146.123 247.847 146.187 247.248 146.187C246.709 146.187 246.253 145.987 245.879 145.588C245.509 145.185 245.324 144.677 245.324 144.065V140.192ZM253.772 140.402C253.509 140.22 253.244 140.128 252.976 140.128C252.547 140.128 252.171 140.326 251.848 140.721C251.53 141.116 251.37 141.591 251.37 142.148V146.06H250.16V139.236H251.37V140.326C251.812 139.514 252.468 139.109 253.339 139.109C253.556 139.109 253.868 139.147 254.276 139.224L253.772 140.402ZM257.741 147.219C257.584 147.652 257.253 148.013 256.748 148.302C256.246 148.591 255.686 148.735 255.066 148.735V147.652C255.571 147.652 256.004 147.533 256.365 147.295C256.726 147.062 256.907 146.775 256.907 146.435C256.907 146.062 256.841 145.694 256.709 145.333C256.578 144.968 256.408 144.518 256.2 143.983L254.352 139.236H255.588L257.595 144.511L259.398 139.236H260.634L257.741 147.219ZM262.966 144.269C263.229 144.269 263.454 144.363 263.641 144.55C263.828 144.736 263.921 144.962 263.921 145.225C263.921 145.488 263.828 145.715 263.641 145.907C263.454 146.093 263.229 146.187 262.966 146.187C262.702 146.187 262.477 146.093 262.29 145.907C262.103 145.715 262.01 145.488 262.01 145.225C262.01 144.962 262.103 144.736 262.29 144.55C262.477 144.363 262.702 144.269 262.966 144.269ZM270.394 146.06V136.726H271.668V144.913H275.886V146.06H270.394ZM276.465 142.632C276.465 141.579 276.748 140.729 277.313 140.084C277.882 139.434 278.629 139.109 279.555 139.109C280.532 139.109 281.29 139.421 281.83 140.045C282.369 140.665 282.639 141.528 282.639 142.632C282.639 143.732 282.363 144.601 281.811 145.238C281.259 145.871 280.507 146.187 279.555 146.187C278.583 146.187 277.825 145.866 277.281 145.225C276.737 144.584 276.465 143.719 276.465 142.632ZM277.74 142.632C277.74 144.344 278.345 145.199 279.555 145.199C280.12 145.199 280.562 144.97 280.881 144.511C281.203 144.053 281.365 143.426 281.365 142.632C281.365 140.942 280.762 140.096 279.555 140.096C279.003 140.096 278.562 140.321 278.23 140.772C277.903 141.222 277.74 141.842 277.74 142.632ZM287.627 140.402C287.364 140.22 287.099 140.128 286.831 140.128C286.402 140.128 286.026 140.326 285.703 140.721C285.385 141.116 285.225 141.591 285.225 142.148V146.06H284.015V139.236H285.225V140.326C285.667 139.514 286.323 139.109 287.194 139.109C287.411 139.109 287.723 139.147 288.131 139.224L287.627 140.402ZM294.737 142.766H289.819C289.819 143.564 290.038 144.178 290.475 144.607C290.862 144.981 291.359 145.168 291.966 145.168C292.658 145.168 293.236 144.966 293.699 144.562L294.208 145.435C294.022 145.622 293.735 145.783 293.348 145.919C292.864 146.098 292.325 146.187 291.73 146.187C290.872 146.187 290.144 145.896 289.545 145.314C288.878 144.673 288.545 143.811 288.545 142.728C288.545 141.602 288.887 140.699 289.57 140.02C290.182 139.413 290.906 139.109 291.743 139.109C292.716 139.109 293.478 139.383 294.03 139.931C294.565 140.457 294.833 141.156 294.833 142.027C294.833 142.294 294.801 142.541 294.737 142.766ZM291.8 140.128C291.261 140.128 290.809 140.302 290.443 140.651C290.095 140.982 289.897 141.394 289.851 141.887H293.629C293.629 141.398 293.476 140.99 293.17 140.663C292.834 140.307 292.378 140.128 291.8 140.128ZM304.013 146.06V141.74C304.013 140.665 303.548 140.128 302.618 140.128C302.325 140.128 302.051 140.22 301.796 140.402C301.541 140.581 301.367 140.784 301.274 141.014V146.06H300.063V141.211C300.063 140.876 299.936 140.612 299.681 140.421C299.43 140.226 299.097 140.128 298.681 140.128C298.439 140.128 298.18 140.222 297.904 140.409C297.632 140.595 297.439 140.801 297.324 141.026V146.06H296.113V139.236H296.903L297.305 140.026C297.772 139.415 298.356 139.109 299.057 139.109C300.034 139.109 300.717 139.413 301.108 140.02C301.244 139.761 301.497 139.544 301.866 139.37C302.236 139.196 302.616 139.109 303.007 139.109C303.712 139.109 304.257 139.319 304.644 139.74C305.031 140.156 305.224 140.742 305.224 141.498V146.06H304.013ZM311.2 146.06V136.726H312.474V146.06H311.2ZM315.723 145.684V148.735H314.513V139.236H315.723V139.797C316.182 139.338 316.736 139.109 317.386 139.109C318.354 139.109 319.108 139.41 319.647 140.014C320.187 140.617 320.457 141.5 320.457 142.664C320.457 143.7 320.185 144.547 319.641 145.206C319.097 145.86 318.312 146.187 317.284 146.187C316.995 146.187 316.685 146.136 316.354 146.034C316.027 145.932 315.816 145.815 315.723 145.684ZM315.723 140.708V144.683C315.799 144.798 315.961 144.908 316.207 145.015C316.454 145.117 316.694 145.168 316.927 145.168C318.431 145.168 319.182 144.318 319.182 142.619C319.182 141.757 319.004 141.126 318.647 140.727C318.29 140.328 317.719 140.128 316.933 140.128C316.764 140.128 316.555 140.188 316.309 140.307C316.063 140.426 315.867 140.559 315.723 140.708ZM321.342 145.652L321.769 144.505C322.444 144.947 322.988 145.168 323.4 145.168C324.147 145.168 324.521 144.853 324.521 144.225C324.521 143.774 324.16 143.388 323.438 143.065C322.882 142.81 322.506 142.617 322.311 142.485C322.119 142.354 321.952 142.205 321.807 142.039C321.667 141.87 321.561 141.691 321.489 141.504C321.421 141.313 321.387 141.109 321.387 140.893C321.387 140.332 321.591 139.895 321.998 139.58C322.406 139.266 322.939 139.109 323.597 139.109C324.094 139.109 324.721 139.266 325.477 139.58L325.133 140.702C324.653 140.319 324.171 140.128 323.687 140.128C323.398 140.128 323.154 140.196 322.954 140.332C322.759 140.468 322.661 140.64 322.661 140.848C322.661 141.286 322.909 141.617 323.406 141.842L324.273 142.237C324.804 142.479 325.19 142.755 325.432 143.065C325.674 143.375 325.795 143.764 325.795 144.231C325.795 144.843 325.581 145.323 325.152 145.671C324.723 146.015 324.128 146.187 323.368 146.187C322.65 146.187 321.975 146.009 321.342 145.652ZM328.223 139.236V143.588C328.223 144.641 328.679 145.168 329.592 145.168C329.992 145.168 330.357 145.053 330.688 144.824C331.02 144.594 331.238 144.329 331.344 144.027V139.236H332.555V146.06H331.344V145.117C331.209 145.384 330.935 145.631 330.523 145.856C330.115 146.076 329.716 146.187 329.325 146.187C328.577 146.187 328.004 145.972 327.605 145.543C327.21 145.114 327.012 144.505 327.012 143.715V139.236H328.223ZM342.111 146.06V141.74C342.111 140.665 341.646 140.128 340.716 140.128C340.423 140.128 340.149 140.22 339.894 140.402C339.639 140.581 339.465 140.784 339.372 141.014V146.06H338.161V141.211C338.161 140.876 338.034 140.612 337.779 140.421C337.529 140.226 337.195 140.128 336.779 140.128C336.537 140.128 336.278 140.222 336.002 140.409C335.73 140.595 335.537 140.801 335.422 141.026V146.06H334.211V139.236H335.001L335.403 140.026C335.87 139.415 336.454 139.109 337.155 139.109C338.132 139.109 338.815 139.413 339.206 140.02C339.342 139.761 339.595 139.544 339.964 139.37C340.334 139.196 340.714 139.109 341.105 139.109C341.81 139.109 342.356 139.319 342.742 139.74C343.129 140.156 343.322 140.742 343.322 141.498V146.06H342.111ZM77.4638 161.06V156.772C77.4638 156.262 77.3385 155.861 77.0879 155.568C76.8373 155.275 76.4848 155.128 76.0304 155.128C75.7373 155.128 75.4421 155.215 75.1448 155.389C74.8517 155.559 74.6266 155.759 74.4695 155.988V161.06H73.259V151.439H74.4695V154.988C74.6309 154.737 74.89 154.529 75.2467 154.364C75.6078 154.194 75.9794 154.109 76.3616 154.109C77.0837 154.109 77.6486 154.347 78.0563 154.822C78.4683 155.298 78.6743 155.948 78.6743 156.772V161.06H77.4638ZM84.2488 160.276C83.7646 160.883 83.0235 161.187 82.0254 161.187C81.4902 161.187 81.0251 160.994 80.6302 160.607C80.2394 160.216 80.044 159.732 80.044 159.155C80.044 158.462 80.3456 157.878 80.9487 157.403C81.5561 156.923 82.3291 156.683 83.2677 156.683C83.5225 156.683 83.8114 156.738 84.1342 156.848C84.1342 155.744 83.6415 155.192 82.6561 155.192C81.9001 155.192 81.3182 155.396 80.9105 155.804L80.4008 154.791C80.6302 154.604 80.9466 154.444 81.3501 154.313C81.7578 154.177 82.1464 154.109 82.5159 154.109C83.5056 154.109 84.2233 154.334 84.6693 154.784C85.1195 155.234 85.3446 155.95 85.3446 156.931V159.378C85.3446 159.976 85.523 160.376 85.8798 160.575V161.181C85.3871 161.181 85.0176 161.11 84.7712 160.97C84.5291 160.83 84.355 160.599 84.2488 160.276ZM84.1342 157.708C83.7519 157.623 83.4843 157.581 83.3314 157.581C82.7198 157.581 82.2208 157.738 81.8343 158.052C81.4478 158.367 81.2545 158.738 81.2545 159.167C81.2545 159.877 81.6729 160.231 82.5096 160.231C83.1212 160.231 83.6627 159.94 84.1342 159.358V157.708ZM86.8036 160.652L87.2304 159.505C87.9057 159.947 88.4494 160.168 88.8614 160.168C89.6089 160.168 89.9826 159.853 89.9826 159.225C89.9826 158.774 89.6216 158.388 88.8996 158.065C88.3432 157.81 87.9673 157.617 87.7719 157.485C87.5808 157.354 87.413 157.205 87.2686 157.039C87.1285 156.87 87.0223 156.691 86.9501 156.504C86.8821 156.313 86.8482 156.109 86.8482 155.893C86.8482 155.332 87.052 154.895 87.4598 154.58C87.8675 154.266 88.4005 154.109 89.0589 154.109C89.5558 154.109 90.1823 154.266 90.9383 154.58L90.5943 155.702C90.1143 155.319 89.6322 155.128 89.1481 155.128C88.8592 155.128 88.615 155.196 88.4154 155.332C88.22 155.468 88.1223 155.64 88.1223 155.848C88.1223 156.286 88.3708 156.617 88.8677 156.842L89.7342 157.237C90.2651 157.479 90.6516 157.755 90.8937 158.065C91.1358 158.375 91.2568 158.764 91.2568 159.231C91.2568 159.843 91.0423 160.323 90.6134 160.671C90.1844 161.015 89.5898 161.187 88.8295 161.187C88.1117 161.187 87.4364 161.009 86.8036 160.652ZM97.5067 160.569L97.0798 161.187H96.4746V151.439H97.6851V154.74C97.7997 154.582 98.0142 154.438 98.3285 154.306C98.6471 154.175 98.9593 154.109 99.2651 154.109C100.199 154.109 100.955 154.432 101.533 155.077C102.115 155.723 102.406 156.538 102.406 157.524C102.406 158.662 102.115 159.558 101.533 160.212C100.951 160.862 100.163 161.187 99.1695 161.187C98.8467 161.187 98.5282 161.127 98.2139 161.009C97.9038 160.885 97.6681 160.739 97.5067 160.569ZM97.6851 155.663V159.601C97.6851 159.669 97.8359 159.781 98.1374 159.938C98.439 160.091 98.6683 160.168 98.8255 160.168C99.6494 160.168 100.24 159.97 100.597 159.575C100.953 159.18 101.132 158.518 101.132 157.587C101.132 156.814 100.924 156.211 100.507 155.778C100.091 155.345 99.5305 155.128 98.8255 155.128C98.6768 155.128 98.4687 155.192 98.2011 155.319C97.9378 155.447 97.7658 155.561 97.6851 155.663ZM109.497 157.766H104.578C104.578 158.564 104.797 159.178 105.235 159.607C105.621 159.981 106.118 160.168 106.725 160.168C107.418 160.168 107.995 159.966 108.458 159.562L108.968 160.435C108.781 160.622 108.494 160.783 108.108 160.919C107.624 161.098 107.084 161.187 106.49 161.187C105.632 161.187 104.903 160.896 104.304 160.314C103.638 159.673 103.304 158.811 103.304 157.728C103.304 156.602 103.646 155.699 104.33 155.02C104.942 154.413 105.666 154.109 106.502 154.109C107.475 154.109 108.237 154.383 108.79 154.931C109.325 155.457 109.592 156.156 109.592 157.027C109.592 157.294 109.56 157.541 109.497 157.766ZM106.56 155.128C106.02 155.128 105.568 155.302 105.203 155.651C104.854 155.982 104.657 156.394 104.61 156.887H108.388C108.388 156.398 108.235 155.99 107.929 155.663C107.594 155.307 107.137 155.128 106.56 155.128ZM116.619 157.766H111.701C111.701 158.564 111.92 159.178 112.357 159.607C112.744 159.981 113.241 160.168 113.848 160.168C114.54 160.168 115.118 159.966 115.581 159.562L116.091 160.435C115.904 160.622 115.617 160.783 115.231 160.919C114.746 161.098 114.207 161.187 113.612 161.187C112.754 161.187 112.026 160.896 111.427 160.314C110.76 159.673 110.427 158.811 110.427 157.728C110.427 156.602 110.769 155.699 111.453 155.02C112.064 154.413 112.788 154.109 113.625 154.109C114.598 154.109 115.36 154.383 115.912 154.931C116.447 155.457 116.715 156.156 116.715 157.027C116.715 157.294 116.683 157.541 116.619 157.766ZM113.682 155.128C113.143 155.128 112.691 155.302 112.325 155.651C111.977 155.982 111.78 156.394 111.733 156.887H115.511C115.511 156.398 115.358 155.99 115.052 155.663C114.717 155.307 114.26 155.128 113.682 155.128ZM122.194 161.06V157.09C122.194 156.364 122.084 155.857 121.863 155.568C121.646 155.275 121.281 155.128 120.767 155.128C120.491 155.128 120.202 155.211 119.9 155.377C119.599 155.542 119.367 155.746 119.206 155.988V161.06H117.996V154.236H118.824L119.206 155.115C119.605 154.444 120.257 154.109 121.162 154.109C122.657 154.109 123.404 155.018 123.404 156.836V161.06H122.194ZM129.501 155.192H128.711V154.236H129.501V152.809L130.712 152.344V154.236H132.585V155.192H130.712V158.581C130.712 159.155 130.807 159.562 130.999 159.804C131.194 160.047 131.506 160.168 131.935 160.168C132.245 160.168 132.566 160.089 132.897 159.932L133.075 160.996C132.574 161.123 132.024 161.187 131.425 161.187C130.886 161.187 130.429 160.987 130.056 160.588C129.686 160.185 129.501 159.677 129.501 159.065V155.192ZM138.446 161.06V156.772C138.446 156.262 138.321 155.861 138.07 155.568C137.82 155.275 137.467 155.128 137.013 155.128C136.72 155.128 136.424 155.215 136.127 155.389C135.834 155.559 135.609 155.759 135.452 155.988V161.06H134.241V151.439H135.452V154.988C135.613 154.737 135.872 154.529 136.229 154.364C136.59 154.194 136.962 154.109 137.344 154.109C138.066 154.109 138.631 154.347 139.039 154.822C139.451 155.298 139.657 155.948 139.657 156.772V161.06H138.446ZM147.123 157.766H142.205C142.205 158.564 142.424 159.178 142.861 159.607C143.248 159.981 143.745 160.168 144.352 160.168C145.044 160.168 145.622 159.966 146.085 159.562L146.595 160.435C146.408 160.622 146.121 160.783 145.734 160.919C145.25 161.098 144.711 161.187 144.116 161.187C143.258 161.187 142.53 160.896 141.931 160.314C141.264 159.673 140.931 158.811 140.931 157.728C140.931 156.602 141.273 155.699 141.957 155.02C142.568 154.413 143.292 154.109 144.129 154.109C145.102 154.109 145.864 154.383 146.416 154.931C146.951 155.457 147.219 156.156 147.219 157.027C147.219 157.294 147.187 157.541 147.123 157.766ZM144.186 155.128C143.647 155.128 143.195 155.302 142.829 155.651C142.481 155.982 142.284 156.394 142.237 156.887H146.015C146.015 156.398 145.862 155.99 145.556 155.663C145.221 155.307 144.764 155.128 144.186 155.128ZM153.685 151.656C153.893 151.656 154.07 151.73 154.214 151.879C154.363 152.023 154.437 152.198 154.437 152.401C154.437 152.61 154.363 152.788 154.214 152.937C154.07 153.081 153.893 153.153 153.685 153.153C153.481 153.153 153.305 153.081 153.157 152.937C153.012 152.788 152.94 152.61 152.94 152.401C152.94 152.193 153.012 152.017 153.157 151.873C153.301 151.728 153.477 151.656 153.685 151.656ZM153.023 161.06V155.256H152.086V154.236H154.233V161.06H153.023ZM160.356 161.06V157.09C160.356 156.364 160.245 155.857 160.024 155.568C159.808 155.275 159.443 155.128 158.929 155.128C158.653 155.128 158.364 155.211 158.062 155.377C157.761 155.542 157.529 155.746 157.368 155.988V161.06H156.157V154.236H156.985L157.368 155.115C157.767 154.444 158.419 154.109 159.324 154.109C160.819 154.109 161.566 155.018 161.566 156.836V161.06H160.356ZM167.619 161.053V160.55C167.198 160.97 166.586 161.181 165.784 161.181C164.93 161.181 164.238 160.875 163.707 160.263C163.176 159.652 162.91 158.836 162.91 157.817C162.91 156.793 163.216 155.92 163.828 155.198C164.439 154.472 165.168 154.109 166.013 154.109C166.718 154.109 167.253 154.274 167.619 154.606V151.439H168.829V161.053H167.619ZM167.619 155.816C167.313 155.358 166.894 155.128 166.363 155.128C165.714 155.128 165.187 155.37 164.783 155.854C164.384 156.339 164.185 156.955 164.185 157.702C164.185 159.346 164.932 160.168 166.427 160.168C166.618 160.168 166.848 160.108 167.115 159.989C167.383 159.866 167.551 159.736 167.619 159.601V155.816ZM171.715 154.236V158.588C171.715 159.641 172.172 160.168 173.085 160.168C173.484 160.168 173.849 160.053 174.181 159.824C174.512 159.594 174.731 159.329 174.837 159.027V154.236H176.047V161.06H174.837V160.117C174.701 160.384 174.427 160.631 174.015 160.856C173.607 161.076 173.208 161.187 172.817 161.187C172.07 161.187 171.496 160.972 171.097 160.543C170.702 160.114 170.505 159.505 170.505 158.715V154.236H171.715ZM177.258 160.652L177.685 159.505C178.36 159.947 178.904 160.168 179.316 160.168C180.063 160.168 180.437 159.853 180.437 159.225C180.437 158.774 180.076 158.388 179.354 158.065C178.797 157.81 178.421 157.617 178.226 157.485C178.035 157.354 177.867 157.205 177.723 157.039C177.583 156.87 177.476 156.691 177.404 156.504C177.336 156.313 177.302 156.109 177.302 155.893C177.302 155.332 177.506 154.895 177.914 154.58C178.322 154.266 178.855 154.109 179.513 154.109C180.01 154.109 180.636 154.266 181.392 154.58L181.048 155.702C180.568 155.319 180.086 155.128 179.602 155.128C179.313 155.128 179.069 155.196 178.87 155.332C178.674 155.468 178.576 155.64 178.576 155.848C178.576 156.286 178.825 156.617 179.322 156.842L180.188 157.237C180.719 157.479 181.106 157.755 181.348 158.065C181.59 158.375 181.711 158.764 181.711 159.231C181.711 159.843 181.496 160.323 181.068 160.671C180.639 161.015 180.044 161.187 179.284 161.187C178.566 161.187 177.891 161.009 177.258 160.652ZM183.425 155.192H182.635V154.236H183.425V152.809L184.635 152.344V154.236H186.508V155.192H184.635V158.581C184.635 159.155 184.731 159.562 184.922 159.804C185.117 160.047 185.429 160.168 185.858 160.168C186.168 160.168 186.489 160.089 186.82 159.932L186.999 160.996C186.498 161.123 185.948 161.187 185.349 161.187C184.809 161.187 184.353 160.987 183.979 160.588C183.61 160.185 183.425 159.677 183.425 159.065V155.192ZM191.873 155.402C191.609 155.22 191.344 155.128 191.076 155.128C190.647 155.128 190.271 155.326 189.949 155.721C189.63 156.116 189.471 156.591 189.471 157.148V161.06H188.26V154.236H189.471V155.326C189.912 154.514 190.569 154.109 191.439 154.109C191.656 154.109 191.968 154.147 192.376 154.224L191.873 155.402ZM195.842 162.219C195.685 162.652 195.353 163.013 194.848 163.302C194.347 163.591 193.786 163.735 193.166 163.735V162.652C193.671 162.652 194.105 162.533 194.466 162.295C194.827 162.062 195.007 161.775 195.007 161.435C195.007 161.062 194.941 160.694 194.81 160.333C194.678 159.968 194.508 159.518 194.3 158.983L192.452 154.236H193.688L195.695 159.511L197.498 154.236H198.734L195.842 162.219ZM200.269 154.141H199.422L199.269 151.713H200.441L200.269 154.141ZM201.314 160.652L201.741 159.505C202.416 159.947 202.96 160.168 203.372 160.168C204.12 160.168 204.493 159.853 204.493 159.225C204.493 158.774 204.132 158.388 203.41 158.065C202.854 157.81 202.478 157.617 202.283 157.485C202.092 157.354 201.924 157.205 201.779 157.039C201.639 156.87 201.533 156.691 201.461 156.504C201.393 156.313 201.359 156.109 201.359 155.893C201.359 155.332 201.563 154.895 201.97 154.58C202.378 154.266 202.911 154.109 203.57 154.109C204.066 154.109 204.693 154.266 205.449 154.58L205.105 155.702C204.625 155.319 204.143 155.128 203.659 155.128C203.37 155.128 203.126 155.196 202.926 155.332C202.731 155.468 202.633 155.64 202.633 155.848C202.633 156.286 202.881 156.617 203.378 156.842L204.245 157.237C204.776 157.479 205.162 157.755 205.404 158.065C205.646 158.375 205.768 158.764 205.768 159.231C205.768 159.843 205.553 160.323 205.124 160.671C204.695 161.015 204.1 161.187 203.34 161.187C202.622 161.187 201.947 161.009 201.314 160.652ZM210.539 160.652L210.966 159.505C211.642 159.947 212.185 160.168 212.597 160.168C213.345 160.168 213.718 159.853 213.718 159.225C213.718 158.774 213.357 158.388 212.635 158.065C212.079 157.81 211.703 157.617 211.508 157.485C211.317 157.354 211.149 157.205 211.004 157.039C210.864 156.87 210.758 156.691 210.686 156.504C210.618 156.313 210.584 156.109 210.584 155.893C210.584 155.332 210.788 154.895 211.196 154.58C211.603 154.266 212.136 154.109 212.795 154.109C213.292 154.109 213.918 154.266 214.674 154.58L214.33 155.702C213.85 155.319 213.368 155.128 212.884 155.128C212.595 155.128 212.351 155.196 212.151 155.332C211.956 155.468 211.858 155.64 211.858 155.848C211.858 156.286 212.107 156.617 212.604 156.842L213.47 157.237C214.001 157.479 214.387 157.755 214.629 158.065C214.872 158.375 214.993 158.764 214.993 159.231C214.993 159.843 214.778 160.323 214.349 160.671C213.92 161.015 213.326 161.187 212.565 161.187C211.847 161.187 211.172 161.009 210.539 160.652ZM216.706 155.192H215.916V154.236H216.706V152.809L217.917 152.344V154.236H219.79V155.192H217.917V158.581C217.917 159.155 218.012 159.562 218.204 159.804C218.399 160.047 218.711 160.168 219.14 160.168C219.45 160.168 219.771 160.089 220.102 159.932L220.28 160.996C219.779 161.123 219.229 161.187 218.63 161.187C218.091 161.187 217.634 160.987 217.261 160.588C216.891 160.185 216.706 159.677 216.706 159.065V155.192ZM225.301 160.276C224.817 160.883 224.075 161.187 223.077 161.187C222.542 161.187 222.077 160.994 221.682 160.607C221.291 160.216 221.096 159.732 221.096 159.155C221.096 158.462 221.397 157.878 222.001 157.403C222.608 156.923 223.381 156.683 224.32 156.683C224.574 156.683 224.863 156.738 225.186 156.848C225.186 155.744 224.693 155.192 223.708 155.192C222.952 155.192 222.37 155.396 221.962 155.804L221.453 154.791C221.682 154.604 221.998 154.444 222.402 154.313C222.81 154.177 223.198 154.109 223.568 154.109C224.557 154.109 225.275 154.334 225.721 154.784C226.171 155.234 226.397 155.95 226.397 156.931V159.378C226.397 159.976 226.575 160.376 226.932 160.575V161.181C226.439 161.181 226.069 161.11 225.823 160.97C225.581 160.83 225.407 160.599 225.301 160.276ZM225.186 157.708C224.804 157.623 224.536 157.581 224.383 157.581C223.772 157.581 223.273 157.738 222.886 158.052C222.5 158.367 222.306 158.738 222.306 159.167C222.306 159.877 222.725 160.231 223.561 160.231C224.173 160.231 224.715 159.94 225.186 159.358V157.708ZM232.5 161.06V157.09C232.5 156.364 232.389 155.857 232.169 155.568C231.952 155.275 231.587 155.128 231.073 155.128C230.797 155.128 230.508 155.211 230.206 155.377C229.905 155.542 229.673 155.746 229.512 155.988V161.06H228.301V154.236H229.13L229.512 155.115C229.911 154.444 230.563 154.109 231.468 154.109C232.963 154.109 233.71 155.018 233.71 156.836V161.06H232.5ZM239.763 161.053V160.55C239.342 160.97 238.731 161.181 237.928 161.181C237.074 161.181 236.382 160.875 235.851 160.263C235.32 159.652 235.055 158.836 235.055 157.817C235.055 156.793 235.36 155.92 235.972 155.198C236.584 154.472 237.312 154.109 238.157 154.109C238.862 154.109 239.397 154.274 239.763 154.606V151.439H240.973V161.053H239.763ZM239.763 155.816C239.457 155.358 239.039 155.128 238.508 155.128C237.858 155.128 237.331 155.37 236.928 155.854C236.528 156.339 236.329 156.955 236.329 157.702C236.329 159.346 237.076 160.168 238.571 160.168C238.762 160.168 238.992 160.108 239.259 159.989C239.527 159.866 239.695 159.736 239.763 159.601V155.816ZM246.567 160.276C246.083 160.883 245.341 161.187 244.343 161.187C243.808 161.187 243.343 160.994 242.948 160.607C242.557 160.216 242.362 159.732 242.362 159.155C242.362 158.462 242.664 157.878 243.267 157.403C243.874 156.923 244.647 156.683 245.586 156.683C245.841 156.683 246.129 156.738 246.452 156.848C246.452 155.744 245.959 155.192 244.974 155.192C244.218 155.192 243.636 155.396 243.228 155.804L242.719 154.791C242.948 154.604 243.265 154.444 243.668 154.313C244.076 154.177 244.464 154.109 244.834 154.109C245.824 154.109 246.541 154.334 246.987 154.784C247.438 155.234 247.663 155.95 247.663 156.931V159.378C247.663 159.976 247.841 160.376 248.198 160.575V161.181C247.705 161.181 247.336 161.11 247.089 160.97C246.847 160.83 246.673 160.599 246.567 160.276ZM246.452 157.708C246.07 157.623 245.802 157.581 245.649 157.581C245.038 157.581 244.539 157.738 244.152 158.052C243.766 158.367 243.572 158.738 243.572 159.167C243.572 159.877 243.991 160.231 244.828 160.231C245.439 160.231 245.981 159.94 246.452 159.358V157.708ZM253.275 155.402C253.012 155.22 252.747 155.128 252.479 155.128C252.05 155.128 251.674 155.326 251.351 155.721C251.033 156.116 250.874 156.591 250.874 157.148V161.06H249.663V154.236H250.874V155.326C251.315 154.514 251.971 154.109 252.842 154.109C253.059 154.109 253.371 154.147 253.779 154.224L253.275 155.402ZM258.965 161.053V160.55C258.544 160.97 257.933 161.181 257.13 161.181C256.276 161.181 255.584 160.875 255.053 160.263C254.522 159.652 254.257 158.836 254.257 157.817C254.257 156.793 254.562 155.92 255.174 155.198C255.786 154.472 256.514 154.109 257.359 154.109C258.064 154.109 258.599 154.274 258.965 154.606V151.439H260.175V161.053H258.965ZM258.965 155.816C258.659 155.358 258.24 155.128 257.71 155.128C257.06 155.128 256.533 155.37 256.13 155.854C255.73 156.339 255.531 156.955 255.531 157.702C255.531 159.346 256.278 160.168 257.773 160.168C257.964 160.168 258.194 160.108 258.461 159.989C258.729 159.866 258.897 159.736 258.965 159.601V155.816ZM270.177 161.053V160.55C269.757 160.97 269.145 161.181 268.343 161.181C267.489 161.181 266.797 160.875 266.266 160.263C265.735 159.652 265.469 158.836 265.469 157.817C265.469 156.793 265.775 155.92 266.387 155.198C266.998 154.472 267.727 154.109 268.572 154.109C269.277 154.109 269.812 154.274 270.177 154.606V151.439H271.388V161.053H270.177ZM270.177 155.816C269.872 155.358 269.453 155.128 268.922 155.128C268.273 155.128 267.746 155.37 267.342 155.854C266.943 156.339 266.743 156.955 266.743 157.702C266.743 159.346 267.491 160.168 268.986 160.168C269.177 160.168 269.407 160.108 269.674 159.989C269.942 159.866 270.109 159.736 270.177 159.601V155.816ZM274.274 154.236V158.588C274.274 159.641 274.73 160.168 275.644 160.168C276.043 160.168 276.408 160.053 276.739 159.824C277.071 159.594 277.289 159.329 277.396 159.027V154.236H278.606V161.06H277.396V160.117C277.26 160.384 276.986 160.631 276.574 160.856C276.166 161.076 275.767 161.187 275.376 161.187C274.629 161.187 274.055 160.972 273.656 160.543C273.261 160.114 273.063 159.505 273.063 158.715V154.236H274.274ZM288.162 161.06V156.74C288.162 155.665 287.697 155.128 286.767 155.128C286.474 155.128 286.2 155.22 285.945 155.402C285.691 155.581 285.516 155.784 285.423 156.014V161.06H284.213V156.211C284.213 155.876 284.085 155.612 283.83 155.421C283.58 155.226 283.246 155.128 282.83 155.128C282.588 155.128 282.329 155.222 282.053 155.409C281.781 155.595 281.588 155.801 281.473 156.026V161.06H280.263V154.236H281.053L281.454 155.026C281.921 154.415 282.505 154.109 283.206 154.109C284.183 154.109 284.867 154.413 285.257 155.02C285.393 154.761 285.646 154.544 286.015 154.37C286.385 154.196 286.765 154.109 287.156 154.109C287.861 154.109 288.407 154.319 288.793 154.74C289.18 155.156 289.373 155.742 289.373 156.498V161.06H288.162ZM298.993 161.06V156.74C298.993 155.665 298.528 155.128 297.598 155.128C297.305 155.128 297.031 155.22 296.776 155.402C296.521 155.581 296.347 155.784 296.254 156.014V161.06H295.043V156.211C295.043 155.876 294.916 155.612 294.661 155.421C294.41 155.226 294.077 155.128 293.661 155.128C293.418 155.128 293.159 155.222 292.883 155.409C292.611 155.595 292.418 155.801 292.304 156.026V161.06H291.093V154.236H291.883L292.284 155.026C292.752 154.415 293.336 154.109 294.036 154.109C295.013 154.109 295.697 154.413 296.088 155.02C296.224 154.761 296.477 154.544 296.846 154.37C297.216 154.196 297.596 154.109 297.986 154.109C298.691 154.109 299.237 154.319 299.624 154.74C300.01 155.156 300.203 155.742 300.203 156.498V161.06H298.993ZM304.529 162.219C304.372 162.652 304.041 163.013 303.535 163.302C303.034 163.591 302.474 163.735 301.854 163.735V162.652C302.359 162.652 302.792 162.533 303.153 162.295C303.514 162.062 303.695 161.775 303.695 161.435C303.695 161.062 303.629 160.694 303.497 160.333C303.366 159.968 303.196 159.518 302.988 158.983L301.14 154.236H302.376L304.383 159.511L306.186 154.236H307.422L304.529 162.219ZM312.729 155.192H311.939V154.236H312.729V152.809L313.939 152.344V154.236H315.812V155.192H313.939V158.581C313.939 159.155 314.035 159.562 314.226 159.804C314.421 160.047 314.733 160.168 315.162 160.168C315.472 160.168 315.793 160.089 316.124 159.932L316.303 160.996C315.802 161.123 315.252 161.187 314.653 161.187C314.113 161.187 313.657 160.987 313.283 160.588C312.913 160.185 312.729 159.677 312.729 159.065V155.192ZM323.215 157.766H318.297C318.297 158.564 318.516 159.178 318.953 159.607C319.34 159.981 319.836 160.168 320.444 160.168C321.136 160.168 321.714 159.966 322.177 159.562L322.686 160.435C322.5 160.622 322.213 160.783 321.826 160.919C321.342 161.098 320.803 161.187 320.208 161.187C319.35 161.187 318.622 160.896 318.023 160.314C317.356 159.673 317.023 158.811 317.023 157.728C317.023 156.602 317.365 155.699 318.048 155.02C318.66 154.413 319.384 154.109 320.221 154.109C321.193 154.109 321.956 154.383 322.508 154.931C323.043 155.457 323.311 156.156 323.311 157.027C323.311 157.294 323.279 157.541 323.215 157.766ZM320.278 155.128C319.739 155.128 319.286 155.302 318.921 155.651C318.573 155.982 318.375 156.394 318.329 156.887H322.107C322.107 156.398 321.954 155.99 321.648 155.663C321.312 155.307 320.856 155.128 320.278 155.128ZM328.745 161.06L326.885 158.575L325.222 161.06H323.808L326.286 157.568L324.012 154.236H325.375L326.904 156.581L328.618 154.236H329.956L327.477 157.568L330.191 161.06H328.745ZM331.561 155.192H330.771V154.236H331.561V152.809L332.772 152.344V154.236H334.645V155.192H332.772V158.581C332.772 159.155 332.867 159.562 333.058 159.804C333.254 160.047 333.566 160.168 333.995 160.168C334.305 160.168 334.626 160.089 334.957 159.932L335.135 160.996C334.634 161.123 334.084 161.187 333.485 161.187C332.946 161.187 332.489 160.987 332.115 160.588C331.746 160.185 331.561 159.677 331.561 159.065V155.192ZM337.696 159.269C337.96 159.269 338.185 159.363 338.372 159.55C338.558 159.736 338.652 159.962 338.652 160.225C338.652 160.488 338.558 160.715 338.372 160.907C338.185 161.093 337.96 161.187 337.696 161.187C337.433 161.187 337.208 161.093 337.021 160.907C336.834 160.715 336.741 160.488 336.741 160.225C336.741 159.962 336.834 159.736 337.021 159.55C337.208 159.363 337.433 159.269 337.696 159.269Z" fill="#222222"/>
<rect y="481.131" width="411" height="48.9286" fill="#D9D9D9"/>
<rect x="109.346" y="184.733" width="122.249" height="64.3683" stroke="#D8D8D8" stroke-width="0.869841"/>
<line x1="109.115" y1="183.913" x2="232.233" y2="249.151" stroke="#D8D8D8" stroke-width="0.869841"/>
<line x1="108.708" y1="249.151" x2="231.826" y2="183.913" stroke="#D8D8D8" stroke-width="0.869841"/>
<rect x="58.834" y="207.251" width="33.6184" height="17.7013" stroke="#D8D8D8" stroke-width="0.239206"/>
<line x1="58.7704" y1="207.025" x2="92.6279" y2="224.966" stroke="#D8D8D8" stroke-width="0.239206"/>
<line x1="58.6584" y1="224.966" x2="92.5159" y2="207.025" stroke="#D8D8D8" stroke-width="0.239206"/>
<rect x="239.823" y="184.733" width="122.249" height="64.3683" stroke="#D8D8D8" stroke-width="0.869841"/>
<line x1="239.591" y1="183.913" x2="362.71" y2="249.151" stroke="#D8D8D8" stroke-width="0.869841"/>
<line x1="239.184" y1="249.151" x2="362.303" y2="183.913" stroke="#D8D8D8" stroke-width="0.869841"/>
<rect x="47.7325" y="184.733" width="53.4952" height="64.3683" stroke="#D8D8D8" stroke-width="0.869841"/>
<rect x="109.346" y="259.756" width="122.249" height="64.3683" stroke="#D8D8D8" stroke-width="0.869841"/>
<line x1="109.115" y1="258.937" x2="232.233" y2="324.175" stroke="#D8D8D8" stroke-width="0.869841"/>
<line x1="108.708" y1="324.175" x2="231.826" y2="258.937" stroke="#D8D8D8" stroke-width="0.869841"/>
<rect x="57.208" y="282.279" width="35.0552" height="18.4578" stroke="#D8D8D8" stroke-width="0.249429"/>
<line x1="57.1416" y1="282.044" x2="92.4462" y2="300.752" stroke="#D8D8D8" stroke-width="0.249429"/>
<line x1="57.0249" y1="300.752" x2="92.3295" y2="282.045" stroke="#D8D8D8" stroke-width="0.249429"/>
<rect x="239.823" y="259.756" width="122.249" height="64.3683" stroke="#D8D8D8" stroke-width="0.869841"/>
<line x1="239.591" y1="258.937" x2="362.71" y2="324.175" stroke="#D8D8D8" stroke-width="0.869841"/>
<line x1="239.184" y1="324.175" x2="362.303" y2="258.937" stroke="#D8D8D8" stroke-width="0.869841"/>
<rect x="47.7325" y="259.756" width="53.4952" height="64.3683" stroke="#D8D8D8" stroke-width="0.869841"/>
<rect x="109.346" y="334.78" width="122.249" height="64.3683" stroke="#D8D8D8" stroke-width="0.869841"/>
<line x1="109.115" y1="333.961" x2="232.233" y2="399.199" stroke="#D8D8D8" stroke-width="0.869841"/>
<line x1="108.708" y1="399.199" x2="231.826" y2="333.961" stroke="#D8D8D8" stroke-width="0.869841"/>
<rect x="239.823" y="334.78" width="122.249" height="64.3683" stroke="#D8D8D8" stroke-width="0.869841"/>
<line x1="239.591" y1="333.961" x2="362.71" y2="399.199" stroke="#D8D8D8" stroke-width="0.869841"/>
<line x1="239.184" y1="399.199" x2="362.303" y2="333.961" stroke="#D8D8D8" stroke-width="0.869841"/>
<rect x="47.7325" y="334.78" width="53.4952" height="64.3683" stroke="#D8D8D8" stroke-width="0.869841"/>
<rect x="57.208" y="357.303" width="35.0552" height="18.4578" stroke="#D8D8D8" stroke-width="0.249429"/>
<line x1="57.1416" y1="357.068" x2="92.4462" y2="375.776" stroke="#D8D8D8" stroke-width="0.249429"/>
<line x1="57.0249" y1="375.776" x2="92.3295" y2="357.069" stroke="#D8D8D8" stroke-width="0.249429"/>
<rect x="109.346" y="409.804" width="122.249" height="64.3683" stroke="#D8D8D8" stroke-width="0.869841"/>
<line x1="109.115" y1="408.985" x2="232.233" y2="474.223" stroke="#D8D8D8" stroke-width="0.869841"/>
<line x1="108.708" y1="474.223" x2="231.826" y2="408.985" stroke="#D8D8D8" stroke-width="0.869841"/>
<rect x="239.823" y="409.804" width="122.249" height="64.3683" stroke="#D8D8D8" stroke-width="0.869841"/>
<line x1="239.591" y1="408.985" x2="362.71" y2="474.223" stroke="#D8D8D8" stroke-width="0.869841"/>
<line x1="239.184" y1="474.223" x2="362.303" y2="408.985" stroke="#D8D8D8" stroke-width="0.869841"/>
<rect x="47.7325" y="409.804" width="53.4952" height="64.3683" stroke="#D8D8D8" stroke-width="0.869841"/>
<rect x="57.208" y="432.327" width="35.0552" height="18.4578" stroke="#D8D8D8" stroke-width="0.249429"/>
<line x1="57.1416" y1="432.092" x2="92.4462" y2="450.799" stroke="#D8D8D8" stroke-width="0.249429"/>
<line x1="57.0249" y1="450.799" x2="92.3295" y2="432.092" stroke="#D8D8D8" stroke-width="0.249429"/>
</g>
<rect x="0.815476" y="0.815476" width="409.369" height="528.429" stroke="#222222" stroke-width="1.63095"/>
<defs>
<clipPath id="clip0_804_201">
<rect width="411" height="530.06" fill="white"/>
</clipPath>
</defs>
</svg>
