<svg width="411" height="530" viewBox="0 0 411 530" fill="none" xmlns="http://www.w3.org/2000/svg">
<g clip-path="url(#clip0_804_252)">
<line y1="64.4155" x2="409.323" y2="64.4155" stroke="#222222" stroke-width="1.63077"/>
<line y1="-0.815385" x2="414.488" y2="-0.815385" transform="matrix(0.987539 0.157377 -0.86968 0.493617 1.63086 0)" stroke="#D8D8D8" stroke-width="1.63077"/>
<line y1="-0.815385" x2="414.488" y2="-0.815385" transform="matrix(0.987539 -0.157377 0.86968 0.493617 1.63086 65.2308)" stroke="#D8D8D8" stroke-width="1.63077"/>
<path d="M190.813 93.1521V105.431H188.902V93.1521H184.449V91.4322H195.466V93.1521H190.813ZM198.81 91.3271C199.123 91.3271 199.387 91.4385 199.604 91.6615C199.826 91.8781 199.938 92.1393 199.938 92.445C199.938 92.7572 199.826 93.0247 199.604 93.2477C199.387 93.4643 199.123 93.5726 198.81 93.5726C198.505 93.5726 198.24 93.4643 198.017 93.2477C197.801 93.0247 197.692 92.7572 197.692 92.445C197.692 92.1329 197.801 91.8685 198.017 91.6519C198.234 91.4354 198.498 91.3271 198.81 91.3271ZM197.817 105.431V96.7258H196.412V95.197H199.632V105.431H197.817ZM203.168 96.6302H201.983V95.197H203.168V93.0566L204.983 92.359V95.197H207.792V96.6302H204.983V101.714C204.983 102.574 205.126 103.185 205.413 103.548C205.706 103.911 206.174 104.093 206.818 104.093C207.283 104.093 207.764 103.975 208.261 103.739L208.528 105.335C207.776 105.526 206.952 105.622 206.053 105.622C205.244 105.622 204.56 105.322 203.999 104.724C203.445 104.118 203.168 103.357 203.168 102.44V96.6302ZM210.42 102.535V91.0022H212.236V102.23C212.236 102.777 212.392 103.211 212.704 103.529C213.022 103.841 213.436 103.997 213.946 103.997V105.622C211.595 105.622 210.42 104.593 210.42 102.535ZM224.667 100.491H217.29C217.29 101.688 217.618 102.609 218.275 103.252C218.854 103.813 219.6 104.093 220.511 104.093C221.549 104.093 222.415 103.79 223.11 103.185L223.874 104.494C223.594 104.775 223.164 105.017 222.584 105.22C221.858 105.488 221.049 105.622 220.157 105.622C218.87 105.622 217.778 105.185 216.879 104.313C215.879 103.351 215.379 102.058 215.379 100.433C215.379 98.7451 215.892 97.3915 216.918 96.3723C217.835 95.4613 218.921 95.0058 220.176 95.0058C221.635 95.0058 222.778 95.4167 223.606 96.2385C224.409 97.0284 224.81 98.0763 224.81 99.3822C224.81 99.7835 224.763 100.153 224.667 100.491ZM220.262 96.5347C219.453 96.5347 218.775 96.7959 218.227 97.3182C217.704 97.8151 217.408 98.433 217.338 99.172H223.004C223.004 98.4394 222.775 97.8278 222.316 97.3373C221.813 96.8022 221.128 96.5347 220.262 96.5347Z" fill="#222222"/>
<path d="M85.9848 131.046V121.714H87.2589V129.9H91.4759V131.046H85.9848ZM92.0556 127.619C92.0556 126.566 92.338 125.717 92.9028 125.071C93.4719 124.421 94.2194 124.096 95.1452 124.096C96.1219 124.096 96.88 124.409 97.4193 125.033C97.9587 125.653 98.2283 126.515 98.2283 127.619C98.2283 128.719 97.9523 129.587 97.4002 130.225C96.8481 130.857 96.0964 131.174 95.1452 131.174C94.1726 131.174 93.4146 130.853 92.871 130.212C92.3274 129.571 92.0556 128.706 92.0556 127.619ZM93.3296 127.619C93.3296 129.331 93.9348 130.186 95.1452 130.186C95.71 130.186 96.1516 129.957 96.4702 129.498C96.7929 129.04 96.9543 128.413 96.9543 127.619C96.9543 125.929 96.3512 125.084 95.1452 125.084C94.5931 125.084 94.1514 125.309 93.8202 125.759C93.4932 126.209 93.3296 126.829 93.3296 127.619ZM103.216 125.39C102.953 125.207 102.687 125.116 102.42 125.116C101.991 125.116 101.615 125.313 101.292 125.708C100.974 126.103 100.815 126.579 100.815 127.135V131.046H99.6043V124.224H100.815V125.313C101.256 124.502 101.912 124.096 102.783 124.096C103 124.096 103.312 124.135 103.719 124.211L103.216 125.39ZM110.325 127.753H105.408C105.408 128.551 105.626 129.165 106.064 129.594C106.45 129.968 106.947 130.154 107.554 130.154C108.247 130.154 108.824 129.953 109.287 129.549L109.797 130.422C109.61 130.609 109.323 130.77 108.937 130.906C108.452 131.084 107.913 131.174 107.319 131.174C106.461 131.174 105.732 130.883 105.134 130.301C104.467 129.66 104.133 128.798 104.133 127.715C104.133 126.589 104.475 125.687 105.159 125.007C105.771 124.4 106.495 124.096 107.331 124.096C108.304 124.096 109.066 124.37 109.618 124.918C110.153 125.445 110.421 126.143 110.421 127.014C110.421 127.281 110.389 127.528 110.325 127.753ZM107.389 125.116C106.849 125.116 106.397 125.29 106.032 125.638C105.684 125.969 105.486 126.381 105.439 126.874H109.217C109.217 126.385 109.064 125.978 108.758 125.651C108.423 125.294 107.966 125.116 107.389 125.116ZM119.6 131.046V126.727C119.6 125.653 119.135 125.116 118.205 125.116C117.912 125.116 117.638 125.207 117.383 125.39C117.129 125.568 116.955 125.772 116.861 126.001V131.046H115.651V126.199C115.651 125.863 115.523 125.6 115.269 125.409C115.018 125.213 114.685 125.116 114.268 125.116C114.026 125.116 113.767 125.209 113.491 125.396C113.22 125.583 113.026 125.789 112.912 126.014V131.046H111.701V124.224H112.491L112.893 125.014C113.36 124.402 113.944 124.096 114.644 124.096C115.621 124.096 116.305 124.4 116.696 125.007C116.831 124.748 117.084 124.532 117.454 124.358C117.823 124.183 118.203 124.096 118.594 124.096C119.299 124.096 119.845 124.307 120.231 124.727C120.617 125.143 120.811 125.729 120.811 126.485V131.046H119.6ZM126.786 131.046V121.714H128.06V131.046H126.786ZM131.309 130.67V133.722H130.098V124.224H131.309V124.784C131.767 124.326 132.322 124.096 132.971 124.096C133.94 124.096 134.693 124.398 135.233 125.001C135.772 125.604 136.042 126.487 136.042 127.651C136.042 128.687 135.77 129.534 135.226 130.193C134.683 130.847 133.897 131.174 132.869 131.174C132.581 131.174 132.271 131.123 131.939 131.021C131.612 130.919 131.402 130.802 131.309 130.67ZM131.309 125.695V129.67C131.385 129.785 131.547 129.895 131.793 130.002C132.039 130.103 132.279 130.154 132.513 130.154C134.016 130.154 134.768 129.305 134.768 127.606C134.768 126.744 134.589 126.114 134.233 125.714C133.876 125.315 133.305 125.116 132.519 125.116C132.349 125.116 132.141 125.175 131.895 125.294C131.648 125.413 131.453 125.547 131.309 125.695ZM136.927 130.639L137.354 129.492C138.029 129.934 138.573 130.154 138.985 130.154C139.732 130.154 140.106 129.84 140.106 129.212C140.106 128.761 139.745 128.375 139.023 128.052C138.467 127.797 138.091 127.604 137.896 127.473C137.704 127.341 137.537 127.192 137.392 127.027C137.252 126.857 137.146 126.678 137.074 126.492C137.006 126.3 136.972 126.097 136.972 125.88C136.972 125.319 137.176 124.882 137.583 124.568C137.991 124.254 138.524 124.096 139.182 124.096C139.679 124.096 140.306 124.254 141.062 124.568L140.718 125.689C140.238 125.307 139.756 125.116 139.271 125.116C138.983 125.116 138.739 125.184 138.539 125.319C138.344 125.455 138.246 125.627 138.246 125.835C138.246 126.273 138.494 126.604 138.991 126.829L139.858 127.224C140.388 127.466 140.775 127.742 141.017 128.052C141.259 128.362 141.38 128.751 141.38 129.218C141.38 129.83 141.166 130.309 140.737 130.658C140.308 131.002 139.713 131.174 138.953 131.174C138.235 131.174 137.56 130.995 136.927 130.639ZM143.807 124.224V128.575C143.807 129.628 144.264 130.154 145.177 130.154C145.576 130.154 145.941 130.04 146.272 129.81C146.604 129.581 146.822 129.316 146.928 129.014V124.224H148.139V131.046H146.928V130.103C146.793 130.371 146.519 130.617 146.107 130.842C145.699 131.063 145.3 131.174 144.909 131.174C144.162 131.174 143.588 130.959 143.189 130.53C142.794 130.101 142.597 129.492 142.597 128.702V124.224H143.807ZM157.694 131.046V126.727C157.694 125.653 157.229 125.116 156.299 125.116C156.006 125.116 155.732 125.207 155.477 125.39C155.222 125.568 155.048 125.772 154.955 126.001V131.046H153.745V126.199C153.745 125.863 153.617 125.6 153.362 125.409C153.112 125.213 152.778 125.116 152.362 125.116C152.12 125.116 151.861 125.209 151.585 125.396C151.313 125.583 151.12 125.789 151.005 126.014V131.046H149.795V124.224H150.585L150.986 125.014C151.453 124.402 152.037 124.096 152.738 124.096C153.715 124.096 154.399 124.4 154.789 125.007C154.925 124.748 155.178 124.532 155.547 124.358C155.917 124.183 156.297 124.096 156.688 124.096C157.393 124.096 157.938 124.307 158.325 124.727C158.711 125.143 158.904 125.729 158.904 126.485V131.046H157.694ZM165.81 121.644C166.018 121.644 166.194 121.718 166.338 121.867C166.487 122.011 166.561 122.185 166.561 122.389C166.561 122.597 166.487 122.776 166.338 122.924C166.194 123.069 166.018 123.141 165.81 123.141C165.606 123.141 165.43 123.069 165.281 122.924C165.137 122.776 165.064 122.597 165.064 122.389C165.064 122.181 165.137 122.005 165.281 121.86C165.425 121.716 165.602 121.644 165.81 121.644ZM165.147 131.046V125.243H164.211V124.224H166.358V131.046H165.147ZM167.835 130.639L168.262 129.492C168.937 129.934 169.481 130.154 169.893 130.154C170.64 130.154 171.014 129.84 171.014 129.212C171.014 128.761 170.653 128.375 169.931 128.052C169.375 127.797 168.999 127.604 168.804 127.473C168.613 127.341 168.445 127.192 168.3 127.027C168.16 126.857 168.054 126.678 167.982 126.492C167.914 126.3 167.88 126.097 167.88 125.88C167.88 125.319 168.084 124.882 168.492 124.568C168.899 124.254 169.432 124.096 170.09 124.096C170.587 124.096 171.214 124.254 171.97 124.568L171.626 125.689C171.146 125.307 170.664 125.116 170.18 125.116C169.891 125.116 169.647 125.184 169.447 125.319C169.252 125.455 169.154 125.627 169.154 125.835C169.154 126.273 169.402 126.604 169.899 126.829L170.766 127.224C171.297 127.466 171.683 127.742 171.925 128.052C172.167 128.362 172.288 128.751 172.288 129.218C172.288 129.83 172.074 130.309 171.645 130.658C171.216 131.002 170.621 131.174 169.861 131.174C169.143 131.174 168.468 130.995 167.835 130.639ZM177.059 130.639L177.486 129.492C178.161 129.934 178.705 130.154 179.117 130.154C179.864 130.154 180.238 129.84 180.238 129.212C180.238 128.761 179.877 128.375 179.155 128.052C178.599 127.797 178.223 127.604 178.028 127.473C177.837 127.341 177.669 127.192 177.524 127.027C177.384 126.857 177.278 126.678 177.206 126.492C177.138 126.3 177.104 126.097 177.104 125.88C177.104 125.319 177.308 124.882 177.716 124.568C178.123 124.254 178.656 124.096 179.315 124.096C179.811 124.096 180.438 124.254 181.194 124.568L180.85 125.689C180.37 125.307 179.888 125.116 179.404 125.116C179.115 125.116 178.871 125.184 178.671 125.319C178.476 125.455 178.378 125.627 178.378 125.835C178.378 126.273 178.627 126.604 179.123 126.829L179.99 127.224C180.521 127.466 180.907 127.742 181.149 128.052C181.391 128.362 181.512 128.751 181.512 129.218C181.512 129.83 181.298 130.309 180.869 130.658C180.44 131.002 179.845 131.174 179.085 131.174C178.367 131.174 177.692 130.995 177.059 130.639ZM184.041 121.644C184.249 121.644 184.426 121.718 184.57 121.867C184.719 122.011 184.793 122.185 184.793 122.389C184.793 122.597 184.719 122.776 184.57 122.924C184.426 123.069 184.249 123.141 184.041 123.141C183.837 123.141 183.661 123.069 183.512 122.924C183.368 122.776 183.296 122.597 183.296 122.389C183.296 122.181 183.368 122.005 183.512 121.86C183.657 121.716 183.833 121.644 184.041 121.644ZM183.379 131.046V125.243H182.442V124.224H184.589V131.046H183.379ZM194.412 131.046V126.727C194.412 125.653 193.947 125.116 193.017 125.116C192.724 125.116 192.45 125.207 192.195 125.39C191.94 125.568 191.766 125.772 191.673 126.001V131.046H190.462V126.199C190.462 125.863 190.335 125.6 190.08 125.409C189.83 125.213 189.496 125.116 189.08 125.116C188.838 125.116 188.579 125.209 188.303 125.396C188.031 125.583 187.838 125.789 187.723 126.014V131.046H186.513V124.224H187.303L187.704 125.014C188.171 124.402 188.755 124.096 189.456 124.096C190.433 124.096 191.116 124.4 191.507 125.007C191.643 124.748 191.896 124.532 192.265 124.358C192.635 124.183 193.015 124.096 193.405 124.096C194.11 124.096 194.656 124.307 195.043 124.727C195.429 125.143 195.622 125.729 195.622 126.485V131.046H194.412ZM198.552 130.67V133.722H197.342V124.224H198.552V124.784C199.011 124.326 199.565 124.096 200.215 124.096C201.183 124.096 201.937 124.398 202.477 125.001C203.016 125.604 203.286 126.487 203.286 127.651C203.286 128.687 203.014 129.534 202.47 130.193C201.927 130.847 201.141 131.174 200.113 131.174C199.824 131.174 199.514 131.123 199.183 131.021C198.856 130.919 198.646 130.802 198.552 130.67ZM198.552 125.695V129.67C198.629 129.785 198.79 129.895 199.037 130.002C199.283 130.103 199.523 130.154 199.756 130.154C201.26 130.154 202.012 129.305 202.012 127.606C202.012 126.744 201.833 126.114 201.476 125.714C201.12 125.315 200.548 125.116 199.763 125.116C199.593 125.116 199.385 125.175 199.139 125.294C198.892 125.413 198.697 125.547 198.552 125.695ZM204.712 129.116V121.427H205.923V128.912C205.923 129.277 206.027 129.566 206.235 129.779C206.447 129.987 206.723 130.091 207.063 130.091V131.174C205.496 131.174 204.712 130.488 204.712 129.116ZM211.07 132.206C210.913 132.639 210.582 133 210.076 133.289C209.575 133.577 209.014 133.722 208.394 133.722V132.639C208.9 132.639 209.333 132.52 209.694 132.282C210.055 132.049 210.235 131.762 210.235 131.422C210.235 131.048 210.17 130.681 210.038 130.32C209.906 129.955 209.736 129.505 209.528 128.97L207.681 124.224H208.917L210.923 129.498L212.726 124.224H213.962L211.07 132.206ZM223.161 131.04V130.537C222.74 130.957 222.129 131.167 221.326 131.167C220.472 131.167 219.78 130.862 219.249 130.25C218.718 129.638 218.453 128.823 218.453 127.804C218.453 126.78 218.759 125.908 219.37 125.186C219.982 124.459 220.71 124.096 221.555 124.096C222.26 124.096 222.795 124.262 223.161 124.593V121.427H224.371V131.04H223.161ZM223.161 125.804C222.855 125.345 222.436 125.116 221.906 125.116C221.256 125.116 220.729 125.358 220.326 125.842C219.927 126.326 219.727 126.942 219.727 127.689C219.727 129.333 220.474 130.154 221.969 130.154C222.16 130.154 222.39 130.095 222.657 129.976C222.925 129.853 223.093 129.723 223.161 129.587V125.804ZM227.257 124.224V128.575C227.257 129.628 227.713 130.154 228.626 130.154C229.025 130.154 229.391 130.04 229.722 129.81C230.053 129.581 230.272 129.316 230.378 129.014V124.224H231.588V131.046H230.378V130.103C230.242 130.371 229.968 130.617 229.556 130.842C229.149 131.063 228.749 131.174 228.359 131.174C227.611 131.174 227.038 130.959 226.639 130.53C226.244 130.101 226.046 129.492 226.046 128.702V124.224H227.257ZM241.144 131.046V126.727C241.144 125.653 240.679 125.116 239.749 125.116C239.455 125.116 239.182 125.207 238.927 125.39C238.672 125.568 238.498 125.772 238.404 126.001V131.046H237.194V126.199C237.194 125.863 237.067 125.6 236.812 125.409C236.561 125.213 236.228 125.116 235.812 125.116C235.57 125.116 235.311 125.209 235.035 125.396C234.763 125.583 234.57 125.789 234.455 126.014V131.046H233.245V124.224H234.034L234.436 125.014C234.903 124.402 235.487 124.096 236.188 124.096C237.164 124.096 237.848 124.4 238.239 125.007C238.375 124.748 238.627 124.532 238.997 124.358C239.366 124.183 239.746 124.096 240.137 124.096C240.842 124.096 241.388 124.307 241.774 124.727C242.161 125.143 242.354 125.729 242.354 126.485V131.046H241.144ZM251.973 131.046V126.727C251.973 125.653 251.508 125.116 250.578 125.116C250.285 125.116 250.011 125.207 249.756 125.39C249.501 125.568 249.327 125.772 249.234 126.001V131.046H248.023V126.199C248.023 125.863 247.896 125.6 247.641 125.409C247.391 125.213 247.057 125.116 246.641 125.116C246.399 125.116 246.14 125.209 245.864 125.396C245.592 125.583 245.399 125.789 245.284 126.014V131.046H244.074V124.224H244.864L245.265 125.014C245.732 124.402 246.316 124.096 247.017 124.096C247.994 124.096 248.677 124.4 249.068 125.007C249.204 124.748 249.457 124.532 249.826 124.358C250.196 124.183 250.576 124.096 250.966 124.096C251.671 124.096 252.217 124.307 252.604 124.727C252.99 125.143 253.183 125.729 253.183 126.485V131.046H251.973ZM257.509 132.206C257.351 132.639 257.02 133 256.515 133.289C256.014 133.577 255.453 133.722 254.833 133.722V132.639C255.339 132.639 255.772 132.52 256.133 132.282C256.494 132.049 256.674 131.762 256.674 131.422C256.674 131.048 256.608 130.681 256.477 130.32C256.345 129.955 256.175 129.505 255.967 128.97L254.12 124.224H255.356L257.362 129.498L259.165 124.224H260.401L257.509 132.206ZM265.707 125.179H264.917V124.224H265.707V122.797L266.917 122.332V124.224H268.79V125.179H266.917V128.568C266.917 129.142 267.013 129.549 267.204 129.791C267.399 130.033 267.712 130.154 268.14 130.154C268.45 130.154 268.771 130.076 269.102 129.919L269.281 130.983C268.78 131.11 268.23 131.174 267.631 131.174C267.092 131.174 266.635 130.974 266.261 130.575C265.892 130.171 265.707 129.664 265.707 129.052V125.179ZM276.192 127.753H271.275C271.275 128.551 271.493 129.165 271.931 129.594C272.317 129.968 272.814 130.154 273.421 130.154C274.114 130.154 274.691 129.953 275.154 129.549L275.664 130.422C275.477 130.609 275.19 130.77 274.804 130.906C274.32 131.084 273.78 131.174 273.186 131.174C272.328 131.174 271.599 130.883 271.001 130.301C270.334 129.66 270.001 128.798 270.001 127.715C270.001 126.589 270.342 125.687 271.026 125.007C271.638 124.4 272.362 124.096 273.198 124.096C274.171 124.096 274.933 124.37 275.485 124.918C276.02 125.445 276.288 126.143 276.288 127.014C276.288 127.281 276.256 127.528 276.192 127.753ZM273.256 125.116C272.716 125.116 272.264 125.29 271.899 125.638C271.551 125.969 271.353 126.381 271.306 126.874H275.084C275.084 126.385 274.931 125.978 274.625 125.651C274.29 125.294 273.833 125.116 273.256 125.116ZM281.722 131.046L279.862 128.562L278.199 131.046H276.785L279.263 127.555L276.989 124.224H278.352L279.881 126.568L281.594 124.224H282.932L280.454 127.555L283.168 131.046H281.722ZM284.537 125.179H283.747V124.224H284.537V122.797L285.748 122.332V124.224H287.621V125.179H285.748V128.568C285.748 129.142 285.843 129.549 286.034 129.791C286.23 130.033 286.542 130.154 286.971 130.154C287.281 130.154 287.601 130.076 287.933 129.919L288.111 130.983C287.61 131.11 287.06 131.174 286.461 131.174C285.922 131.174 285.465 130.974 285.092 130.575C284.722 130.171 284.537 129.664 284.537 129.052V125.179ZM292.768 127.619C292.768 126.566 293.05 125.717 293.615 125.071C294.184 124.421 294.931 124.096 295.857 124.096C296.834 124.096 297.592 124.409 298.131 125.033C298.671 125.653 298.94 126.515 298.94 127.619C298.94 128.719 298.664 129.587 298.112 130.225C297.56 130.857 296.808 131.174 295.857 131.174C294.885 131.174 294.127 130.853 293.583 130.212C293.039 129.571 292.768 128.706 292.768 127.619ZM294.042 127.619C294.042 129.331 294.647 130.186 295.857 130.186C296.422 130.186 296.864 129.957 297.182 129.498C297.505 129.04 297.666 128.413 297.666 127.619C297.666 125.929 297.063 125.084 295.857 125.084C295.305 125.084 294.863 125.309 294.532 125.759C294.205 126.209 294.042 126.829 294.042 127.619ZM303.909 122.51C303.663 122.425 303.433 122.383 303.221 122.383C302.852 122.383 302.546 122.523 302.304 122.803C302.066 123.084 301.947 123.438 301.947 123.867C301.947 123.982 301.958 124.101 301.979 124.224H303.368V125.243H301.979V131.046H300.769V125.243H299.775V124.224H300.769C300.769 123.353 300.983 122.669 301.412 122.173C301.841 121.676 302.408 121.427 303.113 121.427C303.465 121.427 303.843 121.491 304.247 121.618L303.909 122.51ZM309.419 125.179H308.629V124.224H309.419V122.797L310.63 122.332V124.224H312.502V125.179H310.63V128.568C310.63 129.142 310.725 129.549 310.916 129.791C311.112 130.033 311.424 130.154 311.853 130.154C312.163 130.154 312.483 130.076 312.815 129.919L312.993 130.983C312.492 131.11 311.942 131.174 311.343 131.174C310.804 131.174 310.347 130.974 309.974 130.575C309.604 130.171 309.419 129.664 309.419 129.052V125.179ZM318.363 131.046V126.759C318.363 126.25 318.238 125.848 317.987 125.555C317.737 125.262 317.384 125.116 316.93 125.116C316.637 125.116 316.342 125.203 316.044 125.377C315.751 125.547 315.526 125.746 315.369 125.976V131.046H314.159V121.427H315.369V124.975C315.53 124.725 315.79 124.517 316.146 124.351C316.507 124.181 316.879 124.096 317.261 124.096C317.983 124.096 318.548 124.334 318.955 124.81C319.367 125.285 319.573 125.935 319.573 126.759V131.046H318.363ZM327.039 127.753H322.121C322.121 128.551 322.34 129.165 322.778 129.594C323.164 129.968 323.661 130.154 324.268 130.154C324.96 130.154 325.538 129.953 326.001 129.549L326.511 130.422C326.324 130.609 326.037 130.77 325.651 130.906C325.166 131.084 324.627 131.174 324.033 131.174C323.175 131.174 322.446 130.883 321.848 130.301C321.181 129.66 320.847 128.798 320.847 127.715C320.847 126.589 321.189 125.687 321.873 125.007C322.485 124.4 323.209 124.096 324.045 124.096C325.018 124.096 325.78 124.37 326.332 124.918C326.867 125.445 327.135 126.143 327.135 127.014C327.135 127.281 327.103 127.528 327.039 127.753ZM324.103 125.116C323.563 125.116 323.111 125.29 322.746 125.638C322.398 125.969 322.2 126.381 322.153 126.874H325.931C325.931 126.385 325.778 125.978 325.472 125.651C325.137 125.294 324.68 125.116 324.103 125.116ZM70.5116 145.67V148.722H69.3013V139.224H70.5116V139.784C70.9703 139.326 71.5245 139.096 72.1742 139.096C73.1425 139.096 73.8963 139.398 74.4357 140.001C74.975 140.604 75.2447 141.487 75.2447 142.651C75.2447 143.687 74.9729 144.534 74.4293 145.193C73.8857 145.847 73.1 146.174 72.0723 146.174C71.7835 146.174 71.4735 146.123 71.1423 146.021C70.8153 145.919 70.605 145.802 70.5116 145.67ZM70.5116 140.695V144.67C70.5881 144.785 70.7494 144.895 70.9957 145.002C71.2421 145.103 71.482 145.154 71.7156 145.154C73.2189 145.154 73.9706 144.305 73.9706 142.606C73.9706 141.744 73.7923 141.114 73.4355 140.714C73.0788 140.315 72.5076 140.116 71.7219 140.116C71.5521 140.116 71.344 140.175 71.0977 140.294C70.8514 140.413 70.656 140.547 70.5116 140.695ZM80.2835 140.39C80.0202 140.207 79.7548 140.116 79.4872 140.116C79.0583 140.116 78.6824 140.313 78.3597 140.708C78.0412 141.103 77.8819 141.579 77.8819 142.135V146.046H76.6716V139.224H77.8819V140.313C78.3236 139.502 78.9797 139.096 79.8503 139.096C80.0669 139.096 80.379 139.135 80.7867 139.211L80.2835 140.39ZM82.8953 136.644C83.1034 136.644 83.2796 136.718 83.424 136.867C83.5726 137.011 83.6469 137.185 83.6469 137.389C83.6469 137.597 83.5726 137.776 83.424 137.924C83.2796 138.069 83.1034 138.141 82.8953 138.141C82.6914 138.141 82.5152 138.069 82.3665 137.924C82.2221 137.776 82.15 137.597 82.15 137.389C82.15 137.181 82.2221 137.005 82.3665 136.86C82.5109 136.716 82.6872 136.644 82.8953 136.644ZM82.2328 146.046V140.243H81.2963V139.224H83.4431V146.046H82.2328ZM89.5649 146.046V142.078C89.5649 141.351 89.4544 140.844 89.2336 140.555C89.017 140.262 88.6518 140.116 88.1379 140.116C87.8619 140.116 87.5731 140.198 87.2716 140.364C86.9701 140.53 86.7386 140.734 86.5772 140.976V146.046H85.3669V139.224H86.195L86.5772 140.103C86.9764 139.432 87.6283 139.096 88.5329 139.096C90.0278 139.096 90.7752 140.005 90.7752 141.823V146.046H89.5649ZM92.9347 140.179H92.1448V139.224H92.9347V137.797L94.145 137.332V139.224H96.0179V140.179H94.145V143.568C94.145 144.142 94.2406 144.549 94.4317 144.791C94.627 145.033 94.9392 145.154 95.3681 145.154C95.6781 145.154 95.9988 145.076 96.33 144.919L96.5084 145.983C96.0072 146.11 95.4573 146.174 94.8585 146.174C94.3191 146.174 93.8626 145.974 93.4889 145.575C93.1194 145.171 92.9347 144.664 92.9347 144.052V140.179ZM98.9227 136.644C99.1308 136.644 99.307 136.718 99.4514 136.867C99.6 137.011 99.6744 137.185 99.6744 137.389C99.6744 137.597 99.6 137.776 99.4514 137.924C99.307 138.069 99.1308 138.141 98.9227 138.141C98.7188 138.141 98.5426 138.069 98.3939 137.924C98.2496 137.776 98.1774 137.597 98.1774 137.389C98.1774 137.181 98.2496 137.005 98.3939 136.86C98.5383 136.716 98.7146 136.644 98.9227 136.644ZM98.2602 146.046V140.243H97.3238V139.224H99.4705V146.046H98.2602ZM105.592 146.046V142.078C105.592 141.351 105.482 140.844 105.261 140.555C105.044 140.262 104.679 140.116 104.165 140.116C103.889 140.116 103.601 140.198 103.299 140.364C102.997 140.53 102.766 140.734 102.605 140.976V146.046H101.394V139.224H102.222L102.605 140.103C103.004 139.432 103.656 139.096 104.56 139.096C106.055 139.096 106.803 140.005 106.803 141.823V146.046H105.592ZM108.28 147.913L108.937 146.944C109.642 147.416 110.291 147.652 110.886 147.652C111.434 147.652 111.865 147.556 112.179 147.365C112.498 147.178 112.657 146.944 112.657 146.664C112.657 146.112 112.258 145.836 111.459 145.836C111.323 145.836 111.077 145.87 110.72 145.938C110.364 146.006 110.085 146.04 109.886 146.04C108.918 146.04 108.433 145.675 108.433 144.944C108.433 144.719 108.546 144.515 108.771 144.333C109 144.15 109.283 144.018 109.618 143.938C108.658 143.488 108.179 142.706 108.179 141.594C108.179 140.88 108.427 140.285 108.924 139.81C109.421 139.334 110.034 139.096 110.765 139.096C111.436 139.096 111.96 139.234 112.338 139.51L112.943 138.784L113.733 139.53L113.007 140.077C113.317 140.481 113.472 141.007 113.472 141.657C113.472 142.345 113.258 142.923 112.829 143.39C112.4 143.857 111.837 144.125 111.141 144.193L110.141 144.294C110.022 144.307 109.862 144.354 109.663 144.435C109.463 144.511 109.363 144.613 109.363 144.74C109.363 144.914 109.572 145.002 109.988 145.002C110.17 145.002 110.455 144.97 110.841 144.906C111.228 144.838 111.514 144.804 111.701 144.804C112.372 144.804 112.895 144.965 113.268 145.288C113.646 145.607 113.835 146.051 113.835 146.62C113.835 147.248 113.553 147.756 112.988 148.142C112.427 148.529 111.716 148.722 110.854 148.722C110.412 148.722 109.947 148.643 109.459 148.486C108.971 148.329 108.578 148.138 108.28 147.913ZM110.848 140.071C110.427 140.071 110.083 140.22 109.816 140.517C109.552 140.814 109.421 141.175 109.421 141.6C109.421 142.076 109.548 142.47 109.803 142.785C110.062 143.095 110.41 143.25 110.848 143.25C111.277 143.25 111.612 143.099 111.854 142.797C112.096 142.492 112.217 142.092 112.217 141.6C112.217 141.175 112.086 140.814 111.822 140.517C111.563 140.22 111.238 140.071 110.848 140.071ZM122.868 145.263C122.384 145.87 121.643 146.174 120.645 146.174C120.11 146.174 119.645 145.98 119.25 145.594C118.859 145.203 118.664 144.719 118.664 144.142C118.664 143.449 118.965 142.865 119.568 142.39C120.176 141.91 120.949 141.67 121.887 141.67C122.142 141.67 122.431 141.725 122.754 141.836C122.754 140.731 122.261 140.179 121.276 140.179C120.52 140.179 119.938 140.383 119.53 140.791L119.021 139.778C119.25 139.591 119.566 139.432 119.97 139.3C120.377 139.164 120.766 139.096 121.136 139.096C122.125 139.096 122.843 139.321 123.289 139.772C123.739 140.222 123.964 140.937 123.964 141.918V144.365C123.964 144.963 124.142 145.363 124.499 145.562V146.167C124.006 146.167 123.637 146.097 123.391 145.957C123.149 145.817 122.974 145.585 122.868 145.263ZM122.754 142.696C122.371 142.611 122.104 142.568 121.951 142.568C121.339 142.568 120.84 142.725 120.454 143.04C120.067 143.354 119.874 143.725 119.874 144.154C119.874 144.864 120.293 145.218 121.129 145.218C121.741 145.218 122.282 144.927 122.754 144.345V142.696ZM130.067 146.046V142.078C130.067 141.351 129.956 140.844 129.735 140.555C129.519 140.262 129.153 140.116 128.64 140.116C128.364 140.116 128.075 140.198 127.773 140.364C127.472 140.53 127.24 140.734 127.079 140.976V146.046H125.869V139.224H126.697L127.079 140.103C127.478 139.432 128.13 139.096 129.035 139.096C130.529 139.096 131.277 140.005 131.277 141.823V146.046H130.067ZM137.329 146.04V145.537C136.908 145.957 136.297 146.167 135.494 146.167C134.64 146.167 133.948 145.862 133.417 145.25C132.886 144.638 132.621 143.823 132.621 142.804C132.621 141.78 132.927 140.908 133.538 140.186C134.15 139.459 134.878 139.096 135.723 139.096C136.428 139.096 136.963 139.262 137.329 139.593V136.427H138.539V146.04H137.329ZM137.329 140.804C137.023 140.345 136.604 140.116 136.074 140.116C135.424 140.116 134.897 140.358 134.494 140.842C134.095 141.326 133.895 141.942 133.895 142.689C133.895 144.333 134.642 145.154 136.137 145.154C136.328 145.154 136.558 145.095 136.825 144.976C137.093 144.853 137.261 144.723 137.329 144.587V140.804ZM144.648 140.179H143.858V139.224H144.648V137.797L145.858 137.332V139.224H147.731V140.179H145.858V143.568C145.858 144.142 145.954 144.549 146.145 144.791C146.34 145.033 146.652 145.154 147.081 145.154C147.391 145.154 147.712 145.076 148.043 144.919L148.222 145.983C147.72 146.11 147.171 146.174 146.572 146.174C146.032 146.174 145.576 145.974 145.202 145.575C144.833 145.171 144.648 144.664 144.648 144.052V140.179ZM151.993 147.206C151.836 147.639 151.504 148 150.999 148.289C150.498 148.577 149.937 148.722 149.317 148.722V147.639C149.823 147.639 150.256 147.52 150.617 147.282C150.978 147.049 151.158 146.762 151.158 146.422C151.158 146.048 151.092 145.681 150.961 145.32C150.829 144.955 150.659 144.505 150.451 143.97L148.604 139.224H149.84L151.846 144.498L153.649 139.224H154.885L151.993 147.206ZM157.032 145.67V148.722H155.821V139.224H157.032V139.784C157.49 139.326 158.044 139.096 158.694 139.096C159.662 139.096 160.416 139.398 160.956 140.001C161.495 140.604 161.765 141.487 161.765 142.651C161.765 143.687 161.493 144.534 160.949 145.193C160.406 145.847 159.62 146.174 158.592 146.174C158.303 146.174 157.993 146.123 157.662 146.021C157.335 145.919 157.125 145.802 157.032 145.67ZM157.032 140.695V144.67C157.108 144.785 157.269 144.895 157.516 145.002C157.762 145.103 158.002 145.154 158.236 145.154C159.739 145.154 160.491 144.305 160.491 142.606C160.491 141.744 160.312 141.114 159.955 140.714C159.599 140.315 159.028 140.116 158.242 140.116C158.072 140.116 157.864 140.175 157.618 140.294C157.371 140.413 157.176 140.547 157.032 140.695ZM168.842 142.753H163.924C163.924 143.551 164.143 144.165 164.58 144.594C164.967 144.968 165.464 145.154 166.071 145.154C166.763 145.154 167.341 144.953 167.804 144.549L168.313 145.422C168.126 145.609 167.84 145.77 167.453 145.906C166.969 146.084 166.43 146.174 165.835 146.174C164.977 146.174 164.249 145.883 163.65 145.301C162.983 144.66 162.65 143.798 162.65 142.715C162.65 141.589 162.992 140.687 163.676 140.007C164.287 139.4 165.011 139.096 165.848 139.096C166.82 139.096 167.583 139.37 168.135 139.918C168.67 140.445 168.937 141.143 168.937 142.014C168.937 142.281 168.906 142.528 168.842 142.753ZM165.905 140.116C165.366 140.116 164.914 140.29 164.548 140.638C164.2 140.969 164.003 141.381 163.956 141.874H167.733C167.733 141.385 167.581 140.978 167.275 140.651C166.939 140.294 166.483 140.116 165.905 140.116ZM169.772 145.639L170.199 144.492C170.874 144.934 171.418 145.154 171.83 145.154C172.577 145.154 172.951 144.84 172.951 144.212C172.951 143.761 172.59 143.375 171.868 143.052C171.311 142.797 170.936 142.604 170.74 142.473C170.549 142.341 170.381 142.192 170.237 142.027C170.097 141.857 169.991 141.678 169.918 141.492C169.851 141.3 169.817 141.097 169.817 140.88C169.817 140.319 170.02 139.882 170.428 139.568C170.836 139.254 171.369 139.096 172.027 139.096C172.524 139.096 173.15 139.254 173.906 139.568L173.562 140.689C173.082 140.307 172.6 140.116 172.116 140.116C171.827 140.116 171.583 140.184 171.384 140.319C171.188 140.455 171.091 140.627 171.091 140.835C171.091 141.273 171.339 141.604 171.836 141.829L172.702 142.224C173.233 142.466 173.62 142.742 173.862 143.052C174.104 143.362 174.225 143.751 174.225 144.218C174.225 144.83 174.01 145.309 173.581 145.658C173.152 146.002 172.558 146.174 171.798 146.174C171.08 146.174 170.405 145.995 169.772 145.639ZM181.251 142.753H176.333C176.333 143.551 176.552 144.165 176.989 144.594C177.376 144.968 177.873 145.154 178.48 145.154C179.172 145.154 179.75 144.953 180.213 144.549L180.722 145.422C180.535 145.609 180.249 145.77 179.862 145.906C179.378 146.084 178.839 146.174 178.244 146.174C177.386 146.174 176.658 145.883 176.059 145.301C175.393 144.66 175.059 143.798 175.059 142.715C175.059 141.589 175.401 140.687 176.085 140.007C176.696 139.4 177.42 139.096 178.257 139.096C179.23 139.096 179.992 139.37 180.544 139.918C181.079 140.445 181.347 141.143 181.347 142.014C181.347 142.281 181.315 142.528 181.251 142.753ZM178.314 140.116C177.775 140.116 177.323 140.29 176.958 140.638C176.609 140.969 176.412 141.381 176.365 141.874H180.143C180.143 141.385 179.99 140.978 179.684 140.651C179.348 140.294 178.892 140.116 178.314 140.116ZM183.06 140.179H182.27V139.224H183.06V137.797L184.271 137.332V139.224H186.143V140.179H184.271V143.568C184.271 144.142 184.366 144.549 184.557 144.791C184.753 145.033 185.065 145.154 185.494 145.154C185.804 145.154 186.124 145.076 186.455 144.919L186.634 145.983C186.133 146.11 185.583 146.174 184.984 146.174C184.445 146.174 183.988 145.974 183.614 145.575C183.245 145.171 183.06 144.664 183.06 144.052V140.179ZM188.233 140.179H187.443V139.224H188.233V137.797L189.443 137.332V139.224H191.316V140.179H189.443V143.568C189.443 144.142 189.539 144.549 189.73 144.791C189.925 145.033 190.237 145.154 190.666 145.154C190.976 145.154 191.297 145.076 191.628 144.919L191.806 145.983C191.305 146.11 190.755 146.174 190.157 146.174C189.617 146.174 189.161 145.974 188.787 145.575C188.418 145.171 188.233 144.664 188.233 144.052V140.179ZM194.221 136.644C194.429 136.644 194.605 136.718 194.749 136.867C194.898 137.011 194.972 137.185 194.972 137.389C194.972 137.597 194.898 137.776 194.749 137.924C194.605 138.069 194.429 138.141 194.221 138.141C194.017 138.141 193.841 138.069 193.692 137.924C193.548 137.776 193.475 137.597 193.475 137.389C193.475 137.181 193.548 137.005 193.692 136.86C193.836 136.716 194.013 136.644 194.221 136.644ZM193.558 146.046V140.243H192.622V139.224H194.769V146.046H193.558ZM200.89 146.046V142.078C200.89 141.351 200.78 140.844 200.559 140.555C200.342 140.262 199.977 140.116 199.463 140.116C199.187 140.116 198.899 140.198 198.597 140.364C198.296 140.53 198.064 140.734 197.903 140.976V146.046H196.692V139.224H197.52L197.903 140.103C198.302 139.432 198.954 139.096 199.858 139.096C201.353 139.096 202.101 140.005 202.101 141.823V146.046H200.89ZM203.579 147.913L204.235 146.944C204.94 147.416 205.589 147.652 206.184 147.652C206.732 147.652 207.163 147.556 207.477 147.365C207.796 147.178 207.955 146.944 207.955 146.664C207.955 146.112 207.556 145.836 206.757 145.836C206.621 145.836 206.375 145.87 206.018 145.938C205.662 146.006 205.383 146.04 205.184 146.04C204.216 146.04 203.731 145.675 203.731 144.944C203.731 144.719 203.844 144.515 204.069 144.333C204.298 144.15 204.581 144.018 204.916 143.938C203.957 143.488 203.477 142.706 203.477 141.594C203.477 140.88 203.725 140.285 204.222 139.81C204.719 139.334 205.332 139.096 206.063 139.096C206.734 139.096 207.258 139.234 207.636 139.51L208.242 138.784L209.031 139.53L208.305 140.077C208.615 140.481 208.77 141.007 208.77 141.657C208.77 142.345 208.556 142.923 208.127 143.39C207.698 143.857 207.135 144.125 206.439 144.193L205.439 144.294C205.32 144.307 205.16 144.354 204.961 144.435C204.761 144.511 204.661 144.613 204.661 144.74C204.661 144.914 204.87 145.002 205.286 145.002C205.468 145.002 205.753 144.97 206.139 144.906C206.526 144.838 206.812 144.804 206.999 144.804C207.67 144.804 208.193 144.965 208.566 145.288C208.944 145.607 209.133 146.051 209.133 146.62C209.133 147.248 208.851 147.756 208.286 148.142C207.726 148.529 207.014 148.722 206.152 148.722C205.71 148.722 205.245 148.643 204.757 148.486C204.269 148.329 203.876 148.138 203.579 147.913ZM206.146 140.071C205.725 140.071 205.381 140.22 205.114 140.517C204.85 140.814 204.719 141.175 204.719 141.6C204.719 142.076 204.846 142.47 205.101 142.785C205.36 143.095 205.708 143.25 206.146 143.25C206.575 143.25 206.91 143.099 207.152 142.797C207.394 142.492 207.515 142.092 207.515 141.6C207.515 141.175 207.384 140.814 207.12 140.517C206.861 140.22 206.536 140.071 206.146 140.071ZM215.561 136.644C215.769 136.644 215.945 136.718 216.09 136.867C216.238 137.011 216.313 137.185 216.313 137.389C216.313 137.597 216.238 137.776 216.09 137.924C215.945 138.069 215.769 138.141 215.561 138.141C215.357 138.141 215.181 138.069 215.032 137.924C214.888 137.776 214.816 137.597 214.816 137.389C214.816 137.181 214.888 137.005 215.032 136.86C215.177 136.716 215.353 136.644 215.561 136.644ZM214.898 146.046V140.243H213.962V139.224H216.109V146.046H214.898ZM222.23 146.046V142.078C222.23 141.351 222.12 140.844 221.899 140.555C221.683 140.262 221.317 140.116 220.804 140.116C220.528 140.116 220.239 140.198 219.937 140.364C219.636 140.53 219.404 140.734 219.243 140.976V146.046H218.033V139.224H218.861L219.243 140.103C219.642 139.432 220.294 139.096 221.199 139.096C222.693 139.096 223.441 140.005 223.441 141.823V146.046H222.23ZM229.493 146.04V145.537C229.072 145.957 228.461 146.167 227.658 146.167C226.804 146.167 226.112 145.862 225.581 145.25C225.05 144.638 224.785 143.823 224.785 142.804C224.785 141.78 225.091 140.908 225.702 140.186C226.314 139.459 227.042 139.096 227.887 139.096C228.592 139.096 229.127 139.262 229.493 139.593V136.427H230.703V146.04H229.493ZM229.493 140.804C229.187 140.345 228.768 140.116 228.238 140.116C227.588 140.116 227.061 140.358 226.658 140.842C226.259 141.326 226.059 141.942 226.059 142.689C226.059 144.333 226.806 145.154 228.301 145.154C228.492 145.154 228.722 145.095 228.989 144.976C229.257 144.853 229.425 144.723 229.493 144.587V140.804ZM233.589 139.224V143.575C233.589 144.628 234.045 145.154 234.958 145.154C235.357 145.154 235.723 145.04 236.054 144.81C236.385 144.581 236.604 144.316 236.71 144.014V139.224H237.92V146.046H236.71V145.103C236.574 145.371 236.3 145.617 235.888 145.842C235.48 146.063 235.081 146.174 234.691 146.174C233.943 146.174 233.37 145.959 232.971 145.53C232.576 145.101 232.378 144.492 232.378 143.702V139.224H233.589ZM239.131 145.639L239.557 144.492C240.233 144.934 240.776 145.154 241.188 145.154C241.936 145.154 242.309 144.84 242.309 144.212C242.309 143.761 241.948 143.375 241.226 143.052C240.67 142.797 240.294 142.604 240.099 142.473C239.908 142.341 239.74 142.192 239.596 142.027C239.455 141.857 239.349 141.678 239.277 141.492C239.209 141.3 239.175 141.097 239.175 140.88C239.175 140.319 239.379 139.882 239.787 139.568C240.194 139.254 240.727 139.096 241.386 139.096C241.883 139.096 242.509 139.254 243.265 139.568L242.921 140.689C242.441 140.307 241.959 140.116 241.475 140.116C241.186 140.116 240.942 140.184 240.742 140.319C240.547 140.455 240.449 140.627 240.449 140.835C240.449 141.273 240.698 141.604 241.195 141.829L242.061 142.224C242.592 142.466 242.978 142.742 243.22 143.052C243.462 143.362 243.583 143.751 243.583 144.218C243.583 144.83 243.369 145.309 242.94 145.658C242.511 146.002 241.916 146.174 241.156 146.174C240.439 146.174 239.763 145.995 239.131 145.639ZM245.297 140.179H244.507V139.224H245.297V137.797L246.507 137.332V139.224H248.38V140.179H246.507V143.568C246.507 144.142 246.603 144.549 246.794 144.791C246.989 145.033 247.301 145.154 247.73 145.154C248.04 145.154 248.361 145.076 248.692 144.919L248.871 145.983C248.37 146.11 247.82 146.174 247.221 146.174C246.681 146.174 246.225 145.974 245.851 145.575C245.482 145.171 245.297 144.664 245.297 144.052V140.179ZM253.744 140.39C253.481 140.207 253.215 140.116 252.948 140.116C252.519 140.116 252.143 140.313 251.82 140.708C251.502 141.103 251.342 141.579 251.342 142.135V146.046H250.132V139.224H251.342V140.313C251.784 139.502 252.44 139.096 253.311 139.096C253.527 139.096 253.839 139.135 254.247 139.211L253.744 140.39ZM257.712 147.206C257.555 147.639 257.224 148 256.719 148.289C256.218 148.577 255.657 148.722 255.037 148.722V147.639C255.542 147.639 255.976 147.52 256.336 147.282C256.697 147.049 256.878 146.762 256.878 146.422C256.878 146.048 256.812 145.681 256.68 145.32C256.549 144.955 256.379 144.505 256.171 143.97L254.324 139.224H255.559L257.566 144.498L259.369 139.224H260.605L257.712 147.206ZM262.936 144.256C263.199 144.256 263.424 144.35 263.611 144.537C263.798 144.723 263.892 144.948 263.892 145.212C263.892 145.475 263.798 145.702 263.611 145.893C263.424 146.08 263.199 146.174 262.936 146.174C262.673 146.174 262.448 146.08 262.261 145.893C262.074 145.702 261.98 145.475 261.98 145.212C261.98 144.948 262.074 144.723 262.261 144.537C262.448 144.35 262.673 144.256 262.936 144.256ZM270.364 146.046V136.714H271.638V144.9H275.855V146.046H270.364ZM276.434 142.619C276.434 141.566 276.717 140.717 277.282 140.071C277.851 139.421 278.598 139.096 279.524 139.096C280.501 139.096 281.259 139.409 281.798 140.033C282.337 140.653 282.607 141.515 282.607 142.619C282.607 143.719 282.331 144.587 281.779 145.225C281.227 145.857 280.475 146.174 279.524 146.174C278.551 146.174 277.793 145.853 277.25 145.212C276.706 144.571 276.434 143.706 276.434 142.619ZM277.708 142.619C277.708 144.331 278.314 145.186 279.524 145.186C280.089 145.186 280.53 144.957 280.849 144.498C281.172 144.04 281.333 143.413 281.333 142.619C281.333 140.929 280.73 140.084 279.524 140.084C278.972 140.084 278.53 140.309 278.199 140.759C277.872 141.209 277.708 141.829 277.708 142.619ZM287.595 140.39C287.332 140.207 287.066 140.116 286.799 140.116C286.37 140.116 285.994 140.313 285.671 140.708C285.353 141.103 285.193 141.579 285.193 142.135V146.046H283.983V139.224H285.193V140.313C285.635 139.502 286.291 139.096 287.162 139.096C287.378 139.096 287.691 139.135 288.098 139.211L287.595 140.39ZM294.704 142.753H289.786C289.786 143.551 290.005 144.165 290.443 144.594C290.829 144.968 291.326 145.154 291.933 145.154C292.625 145.154 293.203 144.953 293.666 144.549L294.175 145.422C293.989 145.609 293.702 145.77 293.315 145.906C292.831 146.084 292.292 146.174 291.697 146.174C290.84 146.174 290.111 145.883 289.512 145.301C288.846 144.66 288.512 143.798 288.512 142.715C288.512 141.589 288.854 140.687 289.538 140.007C290.149 139.4 290.874 139.096 291.71 139.096C292.683 139.096 293.445 139.37 293.997 139.918C294.532 140.445 294.8 141.143 294.8 142.014C294.8 142.281 294.768 142.528 294.704 142.753ZM291.768 140.116C291.228 140.116 290.776 140.29 290.411 140.638C290.062 140.969 289.865 141.381 289.818 141.874H293.596C293.596 141.385 293.443 140.978 293.137 140.651C292.802 140.294 292.345 140.116 291.768 140.116ZM303.979 146.046V141.727C303.979 140.653 303.514 140.116 302.584 140.116C302.291 140.116 302.017 140.207 301.762 140.39C301.508 140.568 301.333 140.772 301.24 141.001V146.046H300.03V141.199C300.03 140.863 299.902 140.6 299.647 140.409C299.397 140.213 299.064 140.116 298.647 140.116C298.405 140.116 298.146 140.209 297.87 140.396C297.598 140.583 297.405 140.789 297.29 141.014V146.046H296.08V139.224H296.87L297.271 140.014C297.739 139.402 298.322 139.096 299.023 139.096C300 139.096 300.684 139.4 301.074 140.007C301.21 139.748 301.463 139.532 301.832 139.358C302.202 139.183 302.582 139.096 302.973 139.096C303.678 139.096 304.223 139.307 304.61 139.727C304.996 140.143 305.19 140.729 305.19 141.485V146.046H303.979ZM311.165 146.046V136.714H312.439V146.046H311.165ZM315.688 145.67V148.722H314.477V139.224H315.688V139.784C316.146 139.326 316.7 139.096 317.35 139.096C318.318 139.096 319.072 139.398 319.612 140.001C320.151 140.604 320.421 141.487 320.421 142.651C320.421 143.687 320.149 144.534 319.605 145.193C319.062 145.847 318.276 146.174 317.248 146.174C316.959 146.174 316.649 146.123 316.318 146.021C315.991 145.919 315.781 145.802 315.688 145.67ZM315.688 140.695V144.67C315.764 144.785 315.925 144.895 316.172 145.002C316.418 145.103 316.658 145.154 316.892 145.154C318.395 145.154 319.147 144.305 319.147 142.606C319.147 141.744 318.968 141.114 318.611 140.714C318.255 140.315 317.684 140.116 316.898 140.116C316.728 140.116 316.52 140.175 316.274 140.294C316.027 140.413 315.832 140.547 315.688 140.695ZM321.306 145.639L321.733 144.492C322.408 144.934 322.952 145.154 323.364 145.154C324.111 145.154 324.485 144.84 324.485 144.212C324.485 143.761 324.124 143.375 323.402 143.052C322.846 142.797 322.47 142.604 322.274 142.473C322.083 142.341 321.916 142.192 321.771 142.027C321.631 141.857 321.525 141.678 321.453 141.492C321.385 141.3 321.351 141.097 321.351 140.88C321.351 140.319 321.555 139.882 321.962 139.568C322.37 139.254 322.903 139.096 323.561 139.096C324.058 139.096 324.684 139.254 325.44 139.568L325.096 140.689C324.616 140.307 324.134 140.116 323.65 140.116C323.362 140.116 323.117 140.184 322.918 140.319C322.722 140.455 322.625 140.627 322.625 140.835C322.625 141.273 322.873 141.604 323.37 141.829L324.236 142.224C324.767 142.466 325.154 142.742 325.396 143.052C325.638 143.362 325.759 143.751 325.759 144.218C325.759 144.83 325.544 145.309 325.115 145.658C324.687 146.002 324.092 146.174 323.332 146.174C322.614 146.174 321.939 145.995 321.306 145.639ZM328.186 139.224V143.575C328.186 144.628 328.642 145.154 329.555 145.154C329.955 145.154 330.32 145.04 330.651 144.81C330.982 144.581 331.201 144.316 331.307 144.014V139.224H332.518V146.046H331.307V145.103C331.171 145.371 330.897 145.617 330.486 145.842C330.078 146.063 329.679 146.174 329.288 146.174C328.54 146.174 327.967 145.959 327.568 145.53C327.173 145.101 326.976 144.492 326.976 143.702V139.224H328.186ZM342.073 146.046V141.727C342.073 140.653 341.608 140.116 340.678 140.116C340.385 140.116 340.111 140.207 339.856 140.39C339.601 140.568 339.427 140.772 339.334 141.001V146.046H338.123V141.199C338.123 140.863 337.996 140.6 337.741 140.409C337.491 140.213 337.157 140.116 336.741 140.116C336.499 140.116 336.24 140.209 335.964 140.396C335.692 140.583 335.499 140.789 335.384 141.014V146.046H334.174V139.224H334.964L335.365 140.014C335.832 139.402 336.416 139.096 337.117 139.096C338.094 139.096 338.777 139.4 339.168 140.007C339.304 139.748 339.557 139.532 339.926 139.358C340.296 139.183 340.676 139.096 341.066 139.096C341.771 139.096 342.317 139.307 342.704 139.727C343.09 140.143 343.283 140.729 343.283 141.485V146.046H342.073ZM77.4551 161.046V156.759C77.4551 156.25 77.3298 155.848 77.0793 155.555C76.8287 155.262 76.4762 155.116 76.0218 155.116C75.7288 155.116 75.4337 155.203 75.1364 155.377C74.8433 155.547 74.6183 155.746 74.4611 155.976V161.046H73.2508V151.427H74.4611V154.975C74.6225 154.725 74.8816 154.517 75.2383 154.351C75.5993 154.181 75.9709 154.096 76.3531 154.096C77.075 154.096 77.6399 154.334 78.0476 154.81C78.4595 155.285 78.6655 155.935 78.6655 156.759V161.046H77.4551ZM84.2394 160.263C83.7552 160.87 83.0142 161.174 82.0162 161.174C81.4811 161.174 81.0161 160.98 80.6211 160.594C80.2304 160.203 80.0351 159.719 80.0351 159.142C80.0351 158.449 80.3366 157.865 80.9396 157.39C81.5469 156.91 82.3198 156.67 83.2584 156.67C83.5132 156.67 83.802 156.725 84.1247 156.836C84.1247 155.731 83.6321 155.179 82.6468 155.179C81.8909 155.179 81.3091 155.383 80.9014 155.791L80.3918 154.778C80.6211 154.591 80.9375 154.432 81.3409 154.3C81.7486 154.164 82.1372 154.096 82.5067 154.096C83.4962 154.096 84.2139 154.321 84.6598 154.772C85.11 155.222 85.3351 155.937 85.3351 156.918V159.365C85.3351 159.963 85.5134 160.363 85.8701 160.562V161.167C85.3775 161.167 85.0081 161.097 84.7617 160.957C84.5197 160.817 84.3456 160.585 84.2394 160.263ZM84.1247 157.696C83.7425 157.611 83.475 157.568 83.3221 157.568C82.7105 157.568 82.2115 157.725 81.8251 158.04C81.4386 158.354 81.2454 158.725 81.2454 159.154C81.2454 159.864 81.6637 160.218 82.5003 160.218C83.1119 160.218 83.6533 159.927 84.1247 159.345V157.696ZM86.7938 160.639L87.2206 159.492C87.8959 159.934 88.4395 160.154 88.8514 160.154C89.5988 160.154 89.9726 159.84 89.9726 159.212C89.9726 158.761 89.6116 158.375 88.8896 158.052C88.3333 157.797 87.9575 157.604 87.7621 157.473C87.571 157.341 87.4032 157.192 87.2589 157.027C87.1187 156.857 87.0125 156.678 86.9403 156.492C86.8724 156.3 86.8384 156.097 86.8384 155.88C86.8384 155.319 87.0423 154.882 87.45 154.568C87.8577 154.254 88.3906 154.096 89.0489 154.096C89.5458 154.096 90.1722 154.254 90.9281 154.568L90.5841 155.689C90.1042 155.307 89.6222 155.116 89.1381 155.116C88.8493 155.116 88.6051 155.184 88.4055 155.319C88.2101 155.455 88.1125 155.627 88.1125 155.835C88.1125 156.273 88.3609 156.604 88.8578 156.829L89.7241 157.224C90.255 157.466 90.6414 157.742 90.8835 158.052C91.1256 158.362 91.2466 158.751 91.2466 159.218C91.2466 159.83 91.0321 160.309 90.6032 160.658C90.1743 161.002 89.5797 161.174 88.8196 161.174C88.1018 161.174 87.4266 160.995 86.7938 160.639ZM97.4958 160.556L97.0689 161.174H96.4638V151.427H97.6741V154.727C97.7888 154.57 98.0032 154.426 98.3175 154.294C98.636 154.162 98.9482 154.096 99.2539 154.096C100.188 154.096 100.944 154.419 101.522 155.065C102.104 155.71 102.394 156.526 102.394 157.511C102.394 158.649 102.104 159.545 101.522 160.199C100.94 160.849 100.152 161.174 99.1584 161.174C98.8356 161.174 98.5171 161.114 98.2028 160.995C97.8928 160.872 97.6571 160.726 97.4958 160.556ZM97.6741 155.651V159.587C97.6741 159.655 97.8249 159.768 98.1264 159.925C98.4279 160.078 98.6572 160.154 98.8144 160.154C99.6383 160.154 100.229 159.957 100.585 159.562C100.942 159.167 101.12 158.505 101.12 157.575C101.12 156.802 100.912 156.199 100.496 155.765C100.08 155.332 99.5193 155.116 98.8144 155.116C98.6657 155.116 98.4576 155.179 98.1901 155.307C97.9268 155.434 97.7548 155.549 97.6741 155.651ZM109.484 157.753H104.567C104.567 158.551 104.785 159.165 105.223 159.594C105.609 159.968 106.106 160.154 106.713 160.154C107.406 160.154 107.983 159.953 108.446 159.549L108.956 160.422C108.769 160.609 108.482 160.77 108.096 160.906C107.612 161.084 107.072 161.174 106.478 161.174C105.62 161.174 104.892 160.883 104.293 160.301C103.626 159.66 103.293 158.798 103.293 157.715C103.293 156.589 103.634 155.687 104.318 155.007C104.93 154.4 105.654 154.096 106.49 154.096C107.463 154.096 108.225 154.37 108.777 154.918C109.312 155.445 109.58 156.143 109.58 157.014C109.58 157.281 109.548 157.528 109.484 157.753ZM106.548 155.116C106.008 155.116 105.556 155.29 105.191 155.638C104.843 155.969 104.645 156.381 104.599 156.874H108.376C108.376 156.385 108.223 155.978 107.917 155.651C107.582 155.294 107.125 155.116 106.548 155.116ZM116.606 157.753H111.689C111.689 158.551 111.907 159.165 112.345 159.594C112.731 159.968 113.228 160.154 113.835 160.154C114.528 160.154 115.105 159.953 115.568 159.549L116.078 160.422C115.891 160.609 115.604 160.77 115.218 160.906C114.733 161.084 114.194 161.174 113.6 161.174C112.742 161.174 112.013 160.883 111.415 160.301C110.748 159.66 110.415 158.798 110.415 157.715C110.415 156.589 110.756 155.687 111.44 155.007C112.052 154.4 112.776 154.096 113.612 154.096C114.585 154.096 115.347 154.37 115.899 154.918C116.434 155.445 116.702 156.143 116.702 157.014C116.702 157.281 116.67 157.528 116.606 157.753ZM113.67 155.116C113.13 155.116 112.678 155.29 112.313 155.638C111.965 155.969 111.767 156.381 111.72 156.874H115.498C115.498 156.385 115.345 155.978 115.039 155.651C114.704 155.294 114.247 155.116 113.67 155.116ZM122.18 161.046V157.078C122.18 156.351 122.07 155.844 121.849 155.555C121.632 155.262 121.267 155.116 120.753 155.116C120.477 155.116 120.189 155.198 119.887 155.364C119.585 155.53 119.354 155.734 119.193 155.976V161.046H117.982V154.224H118.81L119.193 155.103C119.592 154.432 120.244 154.096 121.148 154.096C122.643 154.096 123.391 155.005 123.391 156.823V161.046H122.18ZM129.487 155.179H128.697V154.224H129.487V152.797L130.697 152.332V154.224H132.57V155.179H130.697V158.568C130.697 159.142 130.793 159.549 130.984 159.791C131.179 160.033 131.491 160.154 131.92 160.154C132.23 160.154 132.551 160.076 132.882 159.919L133.061 160.983C132.559 161.11 132.009 161.174 131.411 161.174C130.871 161.174 130.415 160.974 130.041 160.575C129.672 160.171 129.487 159.664 129.487 159.052V155.179ZM138.431 161.046V156.759C138.431 156.25 138.305 155.848 138.055 155.555C137.804 155.262 137.452 155.116 136.997 155.116C136.704 155.116 136.409 155.203 136.112 155.377C135.819 155.547 135.594 155.746 135.437 155.976V161.046H134.226V151.427H135.437V154.975C135.598 154.725 135.857 154.517 136.214 154.351C136.575 154.181 136.946 154.096 137.329 154.096C138.051 154.096 138.615 154.334 139.023 154.81C139.435 155.285 139.641 155.935 139.641 156.759V161.046H138.431ZM147.107 157.753H142.189C142.189 158.551 142.408 159.165 142.845 159.594C143.232 159.968 143.728 160.154 144.336 160.154C145.028 160.154 145.606 159.953 146.068 159.549L146.578 160.422C146.391 160.609 146.105 160.77 145.718 160.906C145.234 161.084 144.695 161.174 144.1 161.174C143.242 161.174 142.514 160.883 141.915 160.301C141.248 159.66 140.915 158.798 140.915 157.715C140.915 156.589 141.257 155.687 141.941 155.007C142.552 154.4 143.276 154.096 144.113 154.096C145.085 154.096 145.848 154.37 146.4 154.918C146.935 155.445 147.202 156.143 147.202 157.014C147.202 157.281 147.171 157.528 147.107 157.753ZM144.17 155.116C143.631 155.116 143.179 155.29 142.813 155.638C142.465 155.969 142.268 156.381 142.221 156.874H145.998C145.998 156.385 145.846 155.978 145.54 155.651C145.204 155.294 144.748 155.116 144.17 155.116ZM153.668 151.644C153.876 151.644 154.052 151.718 154.197 151.867C154.345 152.011 154.42 152.185 154.42 152.389C154.42 152.597 154.345 152.776 154.197 152.924C154.052 153.069 153.876 153.141 153.668 153.141C153.464 153.141 153.288 153.069 153.139 152.924C152.995 152.776 152.923 152.597 152.923 152.389C152.923 152.181 152.995 152.005 153.139 151.86C153.284 151.716 153.46 151.644 153.668 151.644ZM153.006 161.046V155.243H152.069V154.224H154.216V161.046H153.006ZM160.338 161.046V157.078C160.338 156.351 160.227 155.844 160.006 155.555C159.79 155.262 159.425 155.116 158.911 155.116C158.635 155.116 158.346 155.198 158.044 155.364C157.743 155.53 157.511 155.734 157.35 155.976V161.046H156.14V154.224H156.968L157.35 155.103C157.749 154.432 158.401 154.096 159.306 154.096C160.801 154.096 161.548 155.005 161.548 156.823V161.046H160.338ZM167.6 161.04V160.537C167.179 160.957 166.568 161.167 165.765 161.167C164.911 161.167 164.219 160.862 163.688 160.25C163.158 159.638 162.892 158.823 162.892 157.804C162.892 156.78 163.198 155.908 163.809 155.186C164.421 154.459 165.149 154.096 165.994 154.096C166.699 154.096 167.234 154.262 167.6 154.593V151.427H168.81V161.04H167.6ZM167.6 155.804C167.294 155.345 166.876 155.116 166.345 155.116C165.695 155.116 165.168 155.358 164.765 155.842C164.366 156.326 164.166 156.942 164.166 157.689C164.166 159.333 164.914 160.154 166.408 160.154C166.6 160.154 166.829 160.095 167.096 159.976C167.364 159.853 167.532 159.723 167.6 159.587V155.804ZM171.696 154.224V158.575C171.696 159.628 172.152 160.154 173.065 160.154C173.465 160.154 173.83 160.04 174.161 159.81C174.492 159.581 174.711 159.316 174.817 159.014V154.224H176.027V161.046H174.817V160.103C174.681 160.371 174.407 160.617 173.995 160.842C173.588 161.063 173.188 161.174 172.798 161.174C172.05 161.174 171.477 160.959 171.078 160.53C170.683 160.101 170.485 159.492 170.485 158.702V154.224H171.696ZM177.238 160.639L177.665 159.492C178.34 159.934 178.883 160.154 179.295 160.154C180.043 160.154 180.417 159.84 180.417 159.212C180.417 158.761 180.056 158.375 179.334 158.052C178.777 157.797 178.401 157.604 178.206 157.473C178.015 157.341 177.847 157.192 177.703 157.027C177.563 156.857 177.457 156.678 177.384 156.492C177.316 156.3 177.282 156.097 177.282 155.88C177.282 155.319 177.486 154.882 177.894 154.568C178.302 154.254 178.835 154.096 179.493 154.096C179.99 154.096 180.616 154.254 181.372 154.568L181.028 155.689C180.548 155.307 180.066 155.116 179.582 155.116C179.293 155.116 179.049 155.184 178.849 155.319C178.654 155.455 178.556 155.627 178.556 155.835C178.556 156.273 178.805 156.604 179.302 156.829L180.168 157.224C180.699 157.466 181.085 157.742 181.327 158.052C181.57 158.362 181.691 158.751 181.691 159.218C181.691 159.83 181.476 160.309 181.047 160.658C180.618 161.002 180.024 161.174 179.264 161.174C178.546 161.174 177.871 160.995 177.238 160.639ZM183.404 155.179H182.614V154.224H183.404V152.797L184.615 152.332V154.224H186.487V155.179H184.615V158.568C184.615 159.142 184.71 159.549 184.901 159.791C185.097 160.033 185.409 160.154 185.838 160.154C186.148 160.154 186.468 160.076 186.799 159.919L186.978 160.983C186.477 161.11 185.927 161.174 185.328 161.174C184.789 161.174 184.332 160.974 183.958 160.575C183.589 160.171 183.404 159.664 183.404 159.052V155.179ZM191.851 155.39C191.588 155.207 191.322 155.116 191.055 155.116C190.626 155.116 190.25 155.313 189.927 155.708C189.609 156.103 189.449 156.579 189.449 157.135V161.046H188.239V154.224H189.449V155.313C189.891 154.502 190.547 154.096 191.418 154.096C191.634 154.096 191.947 154.135 192.354 154.211L191.851 155.39ZM195.82 162.206C195.663 162.639 195.331 163 194.826 163.289C194.325 163.577 193.764 163.722 193.144 163.722V162.639C193.65 162.639 194.083 162.52 194.444 162.282C194.805 162.049 194.985 161.762 194.985 161.422C194.985 161.048 194.919 160.681 194.788 160.32C194.656 159.955 194.486 159.505 194.278 158.97L192.431 154.224H193.667L195.673 159.498L197.476 154.224H198.712L195.82 162.206ZM200.247 154.128H199.4L199.247 151.701H200.419L200.247 154.128ZM201.292 160.639L201.718 159.492C202.394 159.934 202.937 160.154 203.349 160.154C204.097 160.154 204.47 159.84 204.47 159.212C204.47 158.761 204.109 158.375 203.387 158.052C202.831 157.797 202.455 157.604 202.26 157.473C202.069 157.341 201.901 157.192 201.757 157.027C201.617 156.857 201.51 156.678 201.438 156.492C201.37 156.3 201.336 156.097 201.336 155.88C201.336 155.319 201.54 154.882 201.948 154.568C202.355 154.254 202.888 154.096 203.547 154.096C204.044 154.096 204.67 154.254 205.426 154.568L205.082 155.689C204.602 155.307 204.12 155.116 203.636 155.116C203.347 155.116 203.103 155.184 202.903 155.319C202.708 155.455 202.61 155.627 202.61 155.835C202.61 156.273 202.859 156.604 203.356 156.829L204.222 157.224C204.753 157.466 205.139 157.742 205.381 158.052C205.623 158.362 205.744 158.751 205.744 159.218C205.744 159.83 205.53 160.309 205.101 160.658C204.672 161.002 204.078 161.174 203.317 161.174C202.6 161.174 201.924 160.995 201.292 160.639ZM210.516 160.639L210.943 159.492C211.618 159.934 212.161 160.154 212.573 160.154C213.321 160.154 213.694 159.84 213.694 159.212C213.694 158.761 213.333 158.375 212.611 158.052C212.055 157.797 211.679 157.604 211.484 157.473C211.293 157.341 211.125 157.192 210.981 157.027C210.841 156.857 210.734 156.678 210.662 156.492C210.594 156.3 210.56 156.097 210.56 155.88C210.56 155.319 210.764 154.882 211.172 154.568C211.58 154.254 212.112 154.096 212.771 154.096C213.268 154.096 213.894 154.254 214.65 154.568L214.306 155.689C213.826 155.307 213.344 155.116 212.86 155.116C212.571 155.116 212.327 155.184 212.127 155.319C211.932 155.455 211.834 155.627 211.834 155.835C211.834 156.273 212.083 156.604 212.58 156.829L213.446 157.224C213.977 157.466 214.363 157.742 214.605 158.052C214.847 158.362 214.968 158.751 214.968 159.218C214.968 159.83 214.754 160.309 214.325 160.658C213.896 161.002 213.302 161.174 212.541 161.174C211.824 161.174 211.148 160.995 210.516 160.639ZM216.682 155.179H215.892V154.224H216.682V152.797L217.892 152.332V154.224H219.765V155.179H217.892V158.568C217.892 159.142 217.988 159.549 218.179 159.791C218.374 160.033 218.687 160.154 219.115 160.154C219.425 160.154 219.746 160.076 220.077 159.919L220.256 160.983C219.755 161.11 219.205 161.174 218.606 161.174C218.067 161.174 217.61 160.974 217.236 160.575C216.867 160.171 216.682 159.664 216.682 159.052V155.179ZM225.275 160.263C224.791 160.87 224.05 161.174 223.052 161.174C222.517 161.174 222.052 160.98 221.657 160.594C221.266 160.203 221.071 159.719 221.071 159.142C221.071 158.449 221.373 157.865 221.976 157.39C222.583 156.91 223.356 156.67 224.294 156.67C224.549 156.67 224.838 156.725 225.161 156.836C225.161 155.731 224.668 155.179 223.683 155.179C222.927 155.179 222.345 155.383 221.937 155.791L221.428 154.778C221.657 154.591 221.974 154.432 222.377 154.3C222.785 154.164 223.173 154.096 223.543 154.096C224.532 154.096 225.25 154.321 225.696 154.772C226.146 155.222 226.371 155.937 226.371 156.918V159.365C226.371 159.963 226.549 160.363 226.906 160.562V161.167C226.414 161.167 226.044 161.097 225.798 160.957C225.556 160.817 225.382 160.585 225.275 160.263ZM225.161 157.696C224.779 157.611 224.511 157.568 224.358 157.568C223.747 157.568 223.248 157.725 222.861 158.04C222.475 158.354 222.281 158.725 222.281 159.154C222.281 159.864 222.7 160.218 223.536 160.218C224.148 160.218 224.689 159.927 225.161 159.345V157.696ZM232.474 161.046V157.078C232.474 156.351 232.363 155.844 232.143 155.555C231.926 155.262 231.561 155.116 231.047 155.116C230.771 155.116 230.482 155.198 230.18 155.364C229.879 155.53 229.648 155.734 229.486 155.976V161.046H228.276V154.224H229.104L229.486 155.103C229.885 154.432 230.537 154.096 231.442 154.096C232.937 154.096 233.684 155.005 233.684 156.823V161.046H232.474ZM239.736 161.04V160.537C239.315 160.957 238.704 161.167 237.901 161.167C237.048 161.167 236.355 160.862 235.824 160.25C235.294 159.638 235.028 158.823 235.028 157.804C235.028 156.78 235.334 155.908 235.946 155.186C236.557 154.459 237.285 154.096 238.13 154.096C238.835 154.096 239.371 154.262 239.736 154.593V151.427H240.946V161.04H239.736ZM239.736 155.804C239.43 155.345 239.012 155.116 238.481 155.116C237.831 155.116 237.304 155.358 236.901 155.842C236.502 156.326 236.302 156.942 236.302 157.689C236.302 159.333 237.05 160.154 238.545 160.154C238.736 160.154 238.965 160.095 239.233 159.976C239.5 159.853 239.668 159.723 239.736 159.587V155.804ZM246.539 160.263C246.055 160.87 245.314 161.174 244.316 161.174C243.781 161.174 243.316 160.98 242.921 160.594C242.53 160.203 242.335 159.719 242.335 159.142C242.335 158.449 242.636 157.865 243.239 157.39C243.847 156.91 244.62 156.67 245.558 156.67C245.813 156.67 246.102 156.725 246.424 156.836C246.424 155.731 245.932 155.179 244.947 155.179C244.191 155.179 243.609 155.383 243.201 155.791L242.692 154.778C242.921 154.591 243.237 154.432 243.641 154.3C244.048 154.164 244.437 154.096 244.806 154.096C245.796 154.096 246.514 154.321 246.96 154.772C247.41 155.222 247.635 155.937 247.635 156.918V159.365C247.635 159.963 247.813 160.363 248.17 160.562V161.167C247.677 161.167 247.308 161.097 247.061 160.957C246.819 160.817 246.645 160.585 246.539 160.263ZM246.424 157.696C246.042 157.611 245.775 157.568 245.622 157.568C245.01 157.568 244.511 157.725 244.125 158.04C243.738 158.354 243.545 158.725 243.545 159.154C243.545 159.864 243.963 160.218 244.8 160.218C245.412 160.218 245.953 159.927 246.424 159.345V157.696ZM253.247 155.39C252.984 155.207 252.718 155.116 252.451 155.116C252.022 155.116 251.646 155.313 251.323 155.708C251.005 156.103 250.845 156.579 250.845 157.135V161.046H249.635V154.224H250.845V155.313C251.287 154.502 251.943 154.096 252.814 154.096C253.03 154.096 253.343 154.135 253.75 154.211L253.247 155.39ZM258.936 161.04V160.537C258.515 160.957 257.904 161.167 257.101 161.167C256.247 161.167 255.555 160.862 255.024 160.25C254.493 159.638 254.228 158.823 254.228 157.804C254.228 156.78 254.534 155.908 255.145 155.186C255.757 154.459 256.485 154.096 257.33 154.096C258.035 154.096 258.57 154.262 258.936 154.593V151.427H260.146V161.04H258.936ZM258.936 155.804C258.63 155.345 258.211 155.116 257.681 155.116C257.031 155.116 256.504 155.358 256.101 155.842C255.702 156.326 255.502 156.942 255.502 157.689C255.502 159.333 256.249 160.154 257.744 160.154C257.935 160.154 258.165 160.095 258.432 159.976C258.7 159.853 258.868 159.723 258.936 159.587V155.804ZM270.147 161.04V160.537C269.727 160.957 269.115 161.167 268.312 161.167C267.459 161.167 266.767 160.862 266.236 160.25C265.705 159.638 265.44 158.823 265.44 157.804C265.44 156.78 265.745 155.908 266.357 155.186C266.968 154.459 267.697 154.096 268.542 154.096C269.247 154.096 269.782 154.262 270.147 154.593V151.427H271.357V161.04H270.147ZM270.147 155.804C269.841 155.345 269.423 155.116 268.892 155.116C268.242 155.116 267.716 155.358 267.312 155.842C266.913 156.326 266.714 156.942 266.714 157.689C266.714 159.333 267.461 160.154 268.956 160.154C269.147 160.154 269.376 160.095 269.644 159.976C269.911 159.853 270.079 159.723 270.147 159.587V155.804ZM274.243 154.224V158.575C274.243 159.628 274.7 160.154 275.613 160.154C276.012 160.154 276.377 160.04 276.708 159.81C277.04 159.581 277.258 159.316 277.365 159.014V154.224H278.575V161.046H277.365V160.103C277.229 160.371 276.955 160.617 276.543 160.842C276.135 161.063 275.736 161.174 275.345 161.174C274.598 161.174 274.024 160.959 273.625 160.53C273.23 160.101 273.033 159.492 273.033 158.702V154.224H274.243ZM288.13 161.046V156.727C288.13 155.653 287.665 155.116 286.735 155.116C286.442 155.116 286.168 155.207 285.913 155.39C285.658 155.568 285.484 155.772 285.391 156.001V161.046H284.181V156.199C284.181 155.863 284.053 155.6 283.798 155.409C283.548 155.213 283.214 155.116 282.798 155.116C282.556 155.116 282.297 155.209 282.021 155.396C281.749 155.583 281.556 155.789 281.441 156.014V161.046H280.231V154.224H281.021L281.422 155.014C281.889 154.402 282.473 154.096 283.174 154.096C284.151 154.096 284.835 154.4 285.225 155.007C285.361 154.748 285.614 154.532 285.983 154.358C286.353 154.183 286.733 154.096 287.124 154.096C287.829 154.096 288.374 154.307 288.761 154.727C289.147 155.143 289.34 155.729 289.34 156.485V161.046H288.13ZM298.959 161.046V156.727C298.959 155.653 298.494 155.116 297.564 155.116C297.271 155.116 296.997 155.207 296.743 155.39C296.488 155.568 296.314 155.772 296.22 156.001V161.046H295.01V156.199C295.01 155.863 294.883 155.6 294.628 155.409C294.377 155.213 294.044 155.116 293.628 155.116C293.386 155.116 293.126 155.209 292.85 155.396C292.579 155.583 292.385 155.789 292.271 156.014V161.046H291.06V154.224H291.85L292.252 155.014C292.719 154.402 293.303 154.096 294.003 154.096C294.98 154.096 295.664 154.4 296.055 155.007C296.191 154.748 296.443 154.532 296.813 154.358C297.182 154.183 297.562 154.096 297.953 154.096C298.658 154.096 299.204 154.307 299.59 154.727C299.977 155.143 300.17 155.729 300.17 156.485V161.046H298.959ZM304.495 162.206C304.338 162.639 304.007 163 303.501 163.289C303 163.577 302.44 163.722 301.82 163.722V162.639C302.325 162.639 302.758 162.52 303.119 162.282C303.48 162.049 303.661 161.762 303.661 161.422C303.661 161.048 303.595 160.681 303.463 160.32C303.332 159.955 303.162 159.505 302.954 158.97L301.106 154.224H302.342L304.349 159.498L306.151 154.224H307.387L304.495 162.206ZM312.694 155.179H311.904V154.224H312.694V152.797L313.904 152.332V154.224H315.777V155.179H313.904V158.568C313.904 159.142 313.999 159.549 314.191 159.791C314.386 160.033 314.698 160.154 315.127 160.154C315.437 160.154 315.758 160.076 316.089 159.919L316.267 160.983C315.766 161.11 315.216 161.174 314.617 161.174C314.078 161.174 313.622 160.974 313.248 160.575C312.878 160.171 312.694 159.664 312.694 159.052V155.179ZM323.179 157.753H318.261C318.261 158.551 318.48 159.165 318.917 159.594C319.304 159.968 319.801 160.154 320.408 160.154C321.1 160.154 321.678 159.953 322.141 159.549L322.65 160.422C322.463 160.609 322.177 160.77 321.79 160.906C321.306 161.084 320.767 161.174 320.172 161.174C319.314 161.174 318.586 160.883 317.987 160.301C317.32 159.66 316.987 158.798 316.987 157.715C316.987 156.589 317.329 155.687 318.013 155.007C318.624 154.4 319.348 154.096 320.185 154.096C321.157 154.096 321.92 154.37 322.472 154.918C323.007 155.445 323.274 156.143 323.274 157.014C323.274 157.281 323.243 157.528 323.179 157.753ZM320.242 155.116C319.703 155.116 319.251 155.29 318.885 155.638C318.537 155.969 318.34 156.381 318.293 156.874H322.071C322.071 156.385 321.918 155.978 321.612 155.651C321.276 155.294 320.82 155.116 320.242 155.116ZM328.708 161.046L326.848 158.562L325.186 161.046H323.771L326.249 157.555L323.975 154.224H325.338L326.867 156.568L328.581 154.224H329.919L327.441 157.555L330.154 161.046H328.708ZM331.524 155.179H330.734V154.224H331.524V152.797L332.734 152.332V154.224H334.607V155.179H332.734V158.568C332.734 159.142 332.83 159.549 333.021 159.791C333.216 160.033 333.528 160.154 333.957 160.154C334.267 160.154 334.588 160.076 334.919 159.919L335.098 160.983C334.596 161.11 334.046 161.174 333.448 161.174C332.908 161.174 332.452 160.974 332.078 160.575C331.709 160.171 331.524 159.664 331.524 159.052V155.179ZM337.658 159.256C337.922 159.256 338.147 159.35 338.334 159.537C338.52 159.723 338.614 159.948 338.614 160.212C338.614 160.475 338.52 160.702 338.334 160.893C338.147 161.08 337.922 161.174 337.658 161.174C337.395 161.174 337.17 161.08 336.983 160.893C336.796 160.702 336.703 160.475 336.703 160.212C336.703 159.948 336.796 159.723 336.983 159.537C337.17 159.35 337.395 159.256 337.658 159.256Z" fill="#222222"/>
<rect y="481.077" width="410.954" height="48.9231" fill="#D9D9D9"/>
<rect x="47.4118" y="184.396" width="33.6146" height="17.6993" stroke="#D8D8D8" stroke-width="0.239179"/>
<line x1="47.3482" y1="184.171" x2="81.202" y2="202.11" stroke="#D8D8D8" stroke-width="0.239179"/>
<line x1="47.2362" y1="202.11" x2="81.09" y2="184.171" stroke="#D8D8D8" stroke-width="0.239179"/>
<rect x="70.5579" y="215.696" width="122.235" height="64.361" stroke="#D8D8D8" stroke-width="0.869743"/>
<line x1="70.3267" y1="214.877" x2="193.431" y2="280.108" stroke="#D8D8D8" stroke-width="0.869743"/>
<line x1="69.9194" y1="280.108" x2="193.024" y2="214.877" stroke="#D8D8D8" stroke-width="0.869743"/>
<rect x="218.958" y="215.696" width="122.235" height="64.361" stroke="#D8D8D8" stroke-width="0.869743"/>
<line x1="218.727" y1="214.877" x2="341.831" y2="280.108" stroke="#D8D8D8" stroke-width="0.869743"/>
<line x1="218.319" y1="280.108" x2="341.424" y2="214.877" stroke="#D8D8D8" stroke-width="0.869743"/>
<line x1="47.2922" y1="183.461" x2="368.554" y2="183.461" stroke="#D8D8D8" stroke-width="1.63077"/>
<path d="M107.204 197.908H105.325V188.575C106.522 188.533 107.289 188.512 107.624 188.512C108.928 188.512 109.96 188.909 110.72 189.703C111.48 190.493 111.86 191.546 111.86 192.862C111.86 196.226 110.308 197.908 107.204 197.908ZM106.599 189.722V196.697C106.883 196.74 107.236 196.761 107.656 196.761C108.548 196.761 109.249 196.428 109.758 195.761C110.268 195.09 110.523 194.16 110.523 192.971C110.523 190.762 109.531 189.658 107.548 189.658C107.429 189.658 107.113 189.679 106.599 189.722ZM112.784 194.48C112.784 193.427 113.067 192.578 113.631 191.932C114.2 191.283 114.948 190.958 115.874 190.958C116.85 190.958 117.609 191.27 118.148 191.894C118.687 192.514 118.957 193.376 118.957 194.48C118.957 195.58 118.681 196.449 118.129 197.086C117.577 197.719 116.825 198.035 115.874 198.035C114.901 198.035 114.143 197.714 113.6 197.073C113.056 196.432 112.784 195.568 112.784 194.48ZM114.058 194.48C114.058 196.192 114.663 197.048 115.874 197.048C116.439 197.048 116.88 196.818 117.199 196.36C117.521 195.901 117.683 195.275 117.683 194.48C117.683 192.79 117.08 191.945 115.874 191.945C115.322 191.945 114.88 192.17 114.549 192.62C114.222 193.07 114.058 193.691 114.058 194.48ZM128.136 197.908V193.589C128.136 192.514 127.671 191.977 126.741 191.977C126.448 191.977 126.174 192.068 125.92 192.251C125.665 192.429 125.491 192.633 125.397 192.862V197.908H124.187V193.06C124.187 192.724 124.059 192.461 123.805 192.27C123.554 192.075 123.221 191.977 122.804 191.977C122.562 191.977 122.303 192.07 122.027 192.257C121.756 192.444 121.562 192.65 121.448 192.875V197.908H120.237V191.085H121.027L121.429 191.875C121.896 191.263 122.48 190.958 123.18 190.958C124.157 190.958 124.841 191.261 125.232 191.869C125.367 191.61 125.62 191.393 125.99 191.219C126.359 191.045 126.739 190.958 127.13 190.958C127.835 190.958 128.381 191.168 128.767 191.588C129.153 192.005 129.347 192.591 129.347 193.347V197.908H128.136ZM136.813 194.614H131.895C131.895 195.413 132.113 196.026 132.551 196.455C132.937 196.829 133.434 197.016 134.041 197.016C134.734 197.016 135.311 196.814 135.774 196.411L136.284 197.283C136.097 197.47 135.81 197.632 135.424 197.767C134.94 197.946 134.4 198.035 133.806 198.035C132.948 198.035 132.22 197.744 131.621 197.162C130.954 196.521 130.621 195.659 130.621 194.576C130.621 193.451 130.963 192.548 131.646 191.869C132.258 191.261 132.982 190.958 133.819 190.958C134.791 190.958 135.553 191.232 136.105 191.779C136.641 192.306 136.908 193.005 136.908 193.875C136.908 194.143 136.876 194.389 136.813 194.614ZM133.876 191.977C133.337 191.977 132.884 192.151 132.519 192.499C132.171 192.831 131.973 193.242 131.927 193.735H135.704C135.704 193.247 135.551 192.839 135.245 192.512C134.91 192.155 134.453 191.977 133.876 191.977ZM137.743 197.5L138.169 196.353C138.845 196.795 139.388 197.016 139.8 197.016C140.548 197.016 140.921 196.702 140.921 196.073C140.921 195.623 140.56 195.236 139.838 194.914C139.282 194.659 138.906 194.466 138.711 194.334C138.52 194.202 138.352 194.054 138.208 193.888C138.067 193.718 137.961 193.54 137.889 193.353C137.821 193.162 137.787 192.958 137.787 192.741C137.787 192.181 137.991 191.743 138.399 191.429C138.806 191.115 139.339 190.958 139.998 190.958C140.494 190.958 141.121 191.115 141.877 191.429L141.533 192.55C141.053 192.168 140.571 191.977 140.087 191.977C139.798 191.977 139.554 192.045 139.354 192.181C139.159 192.317 139.061 192.489 139.061 192.697C139.061 193.134 139.31 193.465 139.807 193.691L140.673 194.085C141.204 194.328 141.59 194.604 141.832 194.914C142.074 195.224 142.195 195.612 142.195 196.079C142.195 196.691 141.981 197.171 141.552 197.519C141.123 197.863 140.528 198.035 139.768 198.035C139.051 198.035 138.375 197.857 137.743 197.5ZM143.909 192.041H143.119V191.085H143.909V189.658L145.119 189.193V191.085H146.992V192.041H145.119V195.43C145.119 196.003 145.215 196.411 145.406 196.653C145.601 196.895 145.913 197.016 146.342 197.016C146.652 197.016 146.973 196.937 147.304 196.78L147.483 197.844C146.981 197.971 146.432 198.035 145.833 198.035C145.293 198.035 144.837 197.835 144.463 197.436C144.094 197.033 143.909 196.525 143.909 195.914V192.041ZM149.897 188.505C150.105 188.505 150.281 188.58 150.426 188.728C150.574 188.873 150.649 189.047 150.649 189.251C150.649 189.459 150.574 189.637 150.426 189.786C150.281 189.93 150.105 190.002 149.897 190.002C149.693 190.002 149.517 189.93 149.368 189.786C149.224 189.637 149.152 189.459 149.152 189.251C149.152 189.042 149.224 188.866 149.368 188.722C149.513 188.577 149.689 188.505 149.897 188.505ZM149.234 197.908V192.104H148.298V191.085H150.445V197.908H149.234ZM157.516 191.639L156.917 192.493C156.794 192.37 156.575 192.253 156.261 192.143C155.951 192.032 155.645 191.977 155.343 191.977C154.685 191.977 154.163 192.208 153.776 192.671C153.39 193.13 153.197 193.761 153.197 194.563C153.197 195.362 153.394 195.971 153.789 196.391C154.184 196.808 154.732 197.016 155.433 197.016C155.976 197.016 156.524 196.806 157.076 196.385L157.554 197.404C156.904 197.825 156.099 198.035 155.14 198.035C154.21 198.035 153.441 197.723 152.834 197.099C152.226 196.474 151.923 195.629 151.923 194.563C151.923 193.476 152.237 192.603 152.865 191.945C153.498 191.287 154.362 190.958 155.458 190.958C155.811 190.958 156.193 191.032 156.605 191.181C157.017 191.329 157.32 191.482 157.516 191.639Z" fill="#222222"/>
<path d="M242.532 197.908V188.575H243.806V197.908H242.532ZM250.043 197.908V193.939C250.043 193.213 249.932 192.705 249.711 192.416C249.495 192.123 249.13 191.977 248.616 191.977C248.34 191.977 248.051 192.06 247.749 192.225C247.448 192.391 247.216 192.595 247.055 192.837V197.908H245.845V191.085H246.673L247.055 191.964C247.454 191.293 248.106 190.958 249.011 190.958C250.506 190.958 251.253 191.867 251.253 193.684V197.908H250.043ZM253.413 192.041H252.623V191.085H253.413V189.658L254.623 189.193V191.085H256.496V192.041H254.623V195.43C254.623 196.003 254.718 196.411 254.91 196.653C255.105 196.895 255.417 197.016 255.846 197.016C256.156 197.016 256.477 196.937 256.808 196.78L256.986 197.844C256.485 197.971 255.935 198.035 255.336 198.035C254.797 198.035 254.34 197.835 253.967 197.436C253.597 197.033 253.413 196.525 253.413 195.914V192.041ZM263.898 194.614H258.98C258.98 195.413 259.199 196.026 259.636 196.455C260.023 196.829 260.52 197.016 261.127 197.016C261.819 197.016 262.397 196.814 262.86 196.411L263.369 197.283C263.182 197.47 262.896 197.632 262.509 197.767C262.025 197.946 261.486 198.035 260.891 198.035C260.033 198.035 259.305 197.744 258.706 197.162C258.039 196.521 257.706 195.659 257.706 194.576C257.706 193.451 258.048 192.548 258.732 191.869C259.343 191.261 260.067 190.958 260.904 190.958C261.876 190.958 262.639 191.232 263.191 191.779C263.726 192.306 263.993 193.005 263.993 193.875C263.993 194.143 263.962 194.389 263.898 194.614ZM260.961 191.977C260.422 191.977 259.97 192.151 259.604 192.499C259.256 192.831 259.059 193.242 259.012 193.735H262.789C262.789 193.247 262.637 192.839 262.331 192.512C261.995 192.155 261.539 191.977 260.961 191.977ZM268.981 192.251C268.718 192.068 268.453 191.977 268.185 191.977C267.756 191.977 267.38 192.174 267.057 192.569C266.739 192.964 266.58 193.44 266.58 193.996V197.908H265.369V191.085H266.58V192.174C267.021 191.363 267.678 190.958 268.548 190.958C268.765 190.958 269.077 190.996 269.485 191.072L268.981 192.251ZM274.542 197.908V193.939C274.542 193.213 274.432 192.705 274.211 192.416C273.995 192.123 273.629 191.977 273.116 191.977C272.839 191.977 272.551 192.06 272.249 192.225C271.948 192.391 271.716 192.595 271.555 192.837V197.908H270.345V191.085H271.173L271.555 191.964C271.954 191.293 272.606 190.958 273.51 190.958C275.005 190.958 275.753 191.867 275.753 193.684V197.908H274.542ZM281.333 197.124C280.849 197.731 280.108 198.035 279.11 198.035C278.575 198.035 278.11 197.842 277.715 197.455C277.324 197.065 277.129 196.58 277.129 196.003C277.129 195.311 277.43 194.727 278.033 194.251C278.641 193.771 279.414 193.531 280.352 193.531C280.607 193.531 280.896 193.586 281.218 193.697C281.218 192.593 280.726 192.041 279.741 192.041C278.985 192.041 278.403 192.244 277.995 192.652L277.485 191.639C277.715 191.452 278.031 191.293 278.435 191.162C278.842 191.026 279.231 190.958 279.6 190.958C280.59 190.958 281.308 191.183 281.754 191.633C282.204 192.083 282.429 192.799 282.429 193.78V196.226C282.429 196.825 282.607 197.224 282.964 197.423V198.029C282.471 198.029 282.102 197.959 281.855 197.818C281.613 197.678 281.439 197.447 281.333 197.124ZM281.218 194.557C280.836 194.472 280.569 194.429 280.416 194.429C279.804 194.429 279.305 194.587 278.919 194.901C278.532 195.215 278.339 195.587 278.339 196.016C278.339 196.725 278.757 197.079 279.594 197.079C280.206 197.079 280.747 196.789 281.218 196.207V194.557ZM284.767 192.041H283.977V191.085H284.767V189.658L285.977 189.193V191.085H287.85V192.041H285.977V195.43C285.977 196.003 286.073 196.411 286.264 196.653C286.459 196.895 286.771 197.016 287.2 197.016C287.51 197.016 287.831 196.937 288.162 196.78L288.34 197.844C287.839 197.971 287.289 198.035 286.69 198.035C286.151 198.035 285.695 197.835 285.321 197.436C284.951 197.033 284.767 196.525 284.767 195.914V192.041ZM290.755 188.505C290.963 188.505 291.139 188.58 291.283 188.728C291.432 188.873 291.506 189.047 291.506 189.251C291.506 189.459 291.432 189.637 291.283 189.786C291.139 189.93 290.963 190.002 290.755 190.002C290.551 190.002 290.375 189.93 290.226 189.786C290.081 189.637 290.009 189.459 290.009 189.251C290.009 189.042 290.081 188.866 290.226 188.722C290.37 188.577 290.547 188.505 290.755 188.505ZM290.092 197.908V192.104H289.156V191.085H291.302V197.908H290.092ZM292.78 194.48C292.78 193.427 293.063 192.578 293.628 191.932C294.197 191.283 294.944 190.958 295.87 190.958C296.847 190.958 297.605 191.27 298.144 191.894C298.683 192.514 298.953 193.376 298.953 194.48C298.953 195.58 298.677 196.449 298.125 197.086C297.573 197.719 296.821 198.035 295.87 198.035C294.897 198.035 294.139 197.714 293.596 197.073C293.052 196.432 292.78 195.568 292.78 194.48ZM294.054 194.48C294.054 196.192 294.66 197.048 295.87 197.048C296.435 197.048 296.876 196.818 297.195 196.36C297.518 195.901 297.679 195.275 297.679 194.48C297.679 192.79 297.076 191.945 295.87 191.945C295.318 191.945 294.876 192.17 294.545 192.62C294.218 193.07 294.054 193.691 294.054 194.48ZM304.431 197.908V193.939C304.431 193.213 304.321 192.705 304.1 192.416C303.884 192.123 303.518 191.977 303.004 191.977C302.728 191.977 302.44 192.06 302.138 192.225C301.837 192.391 301.605 192.595 301.444 192.837V197.908H300.233V191.085H301.062L301.444 191.964C301.843 191.293 302.495 190.958 303.399 190.958C304.894 190.958 305.642 191.867 305.642 193.684V197.908H304.431ZM311.222 197.124C310.738 197.731 309.997 198.035 308.999 198.035C308.464 198.035 307.999 197.842 307.604 197.455C307.213 197.065 307.018 196.58 307.018 196.003C307.018 195.311 307.319 194.727 307.922 194.251C308.53 193.771 309.302 193.531 310.241 193.531C310.496 193.531 310.785 193.586 311.107 193.697C311.107 192.593 310.615 192.041 309.629 192.041C308.874 192.041 308.292 192.244 307.884 192.652L307.374 191.639C307.604 191.452 307.92 191.293 308.324 191.162C308.731 191.026 309.12 190.958 309.489 190.958C310.479 190.958 311.197 191.183 311.642 191.633C312.093 192.083 312.318 192.799 312.318 193.78V196.226C312.318 196.825 312.496 197.224 312.853 197.423V198.029C312.36 198.029 311.991 197.959 311.744 197.818C311.502 197.678 311.328 197.447 311.222 197.124ZM311.107 194.557C310.725 194.472 310.458 194.429 310.305 194.429C309.693 194.429 309.194 194.587 308.808 194.901C308.421 195.215 308.228 195.587 308.228 196.016C308.228 196.725 308.646 197.079 309.483 197.079C310.095 197.079 310.636 196.789 311.107 196.207V194.557ZM314.318 195.977V188.289H315.528V195.774C315.528 196.139 315.632 196.428 315.84 196.64C316.053 196.848 316.329 196.952 316.669 196.952V198.035C315.101 198.035 314.318 197.349 314.318 195.977Z" fill="#222222"/>
<rect x="70.5579" y="326.589" width="122.235" height="64.361" stroke="#D8D8D8" stroke-width="0.869743"/>
<line x1="70.3267" y1="325.77" x2="193.431" y2="391" stroke="#D8D8D8" stroke-width="0.869743"/>
<line x1="69.9194" y1="391.001" x2="193.024" y2="325.77" stroke="#D8D8D8" stroke-width="0.869743"/>
<rect x="218.958" y="326.589" width="122.235" height="64.361" stroke="#D8D8D8" stroke-width="0.869743"/>
<line x1="218.727" y1="325.77" x2="341.831" y2="391" stroke="#D8D8D8" stroke-width="0.869743"/>
<line x1="218.319" y1="391.001" x2="341.424" y2="325.77" stroke="#D8D8D8" stroke-width="0.869743"/>
<line x1="47.2922" y1="294.354" x2="368.554" y2="294.354" stroke="#D8D8D8" stroke-width="1.63077"/>
<path d="M107.204 308.8H105.325V299.468C106.522 299.425 107.289 299.404 107.624 299.404C108.928 299.404 109.96 299.801 110.72 300.595C111.48 301.385 111.86 302.438 111.86 303.755C111.86 307.118 110.308 308.8 107.204 308.8ZM106.599 300.614V307.59C106.883 307.632 107.236 307.654 107.656 307.654C108.548 307.654 109.249 307.32 109.758 306.653C110.268 305.982 110.523 305.052 110.523 303.863C110.523 301.655 109.531 300.551 107.548 300.551C107.429 300.551 107.113 300.572 106.599 300.614ZM112.784 305.373C112.784 304.32 113.067 303.47 113.631 302.825C114.2 302.175 114.948 301.85 115.874 301.85C116.85 301.85 117.609 302.162 118.148 302.787C118.687 303.407 118.957 304.269 118.957 305.373C118.957 306.473 118.681 307.341 118.129 307.978C117.577 308.611 116.825 308.928 115.874 308.928C114.901 308.928 114.143 308.607 113.6 307.966C113.056 307.324 112.784 306.46 112.784 305.373ZM114.058 305.373C114.058 307.084 114.663 307.94 115.874 307.94C116.439 307.94 116.88 307.711 117.199 307.252C117.521 306.794 117.683 306.167 117.683 305.373C117.683 303.683 117.08 302.838 115.874 302.838C115.322 302.838 114.88 303.063 114.549 303.513C114.222 303.963 114.058 304.583 114.058 305.373ZM128.136 308.8V304.481C128.136 303.407 127.671 302.87 126.741 302.87C126.448 302.87 126.174 302.961 125.92 303.143C125.665 303.322 125.491 303.526 125.397 303.755V308.8H124.187V303.952C124.187 303.617 124.059 303.354 123.805 303.163C123.554 302.967 123.221 302.87 122.804 302.87C122.562 302.87 122.303 302.963 122.027 303.15C121.756 303.337 121.562 303.543 121.448 303.768V308.8H120.237V301.978H121.027L121.429 302.768C121.896 302.156 122.48 301.85 123.18 301.85C124.157 301.85 124.841 302.154 125.232 302.761C125.367 302.502 125.62 302.286 125.99 302.111C126.359 301.937 126.739 301.85 127.13 301.85C127.835 301.85 128.381 302.061 128.767 302.481C129.153 302.897 129.347 303.483 129.347 304.239V308.8H128.136ZM136.813 305.507H131.895C131.895 306.305 132.113 306.919 132.551 307.348C132.937 307.721 133.434 307.908 134.041 307.908C134.734 307.908 135.311 307.707 135.774 307.303L136.284 308.176C136.097 308.363 135.81 308.524 135.424 308.66C134.94 308.838 134.4 308.928 133.806 308.928C132.948 308.928 132.22 308.637 131.621 308.055C130.954 307.414 130.621 306.551 130.621 305.469C130.621 304.343 130.963 303.441 131.646 302.761C132.258 302.154 132.982 301.85 133.819 301.85C134.791 301.85 135.553 302.124 136.105 302.672C136.641 303.199 136.908 303.897 136.908 304.768C136.908 305.035 136.876 305.282 136.813 305.507ZM133.876 302.87C133.337 302.87 132.884 303.044 132.519 303.392C132.171 303.723 131.973 304.135 131.927 304.628H135.704C135.704 304.139 135.551 303.732 135.245 303.405C134.91 303.048 134.453 302.87 133.876 302.87ZM137.743 308.392L138.169 307.246C138.845 307.688 139.388 307.908 139.8 307.908C140.548 307.908 140.921 307.594 140.921 306.966C140.921 306.515 140.56 306.129 139.838 305.806C139.282 305.551 138.906 305.358 138.711 305.226C138.52 305.095 138.352 304.946 138.208 304.781C138.067 304.611 137.961 304.432 137.889 304.245C137.821 304.054 137.787 303.851 137.787 303.634C137.787 303.073 137.991 302.636 138.399 302.322C138.806 302.007 139.339 301.85 139.998 301.85C140.494 301.85 141.121 302.007 141.877 302.322L141.533 303.443C141.053 303.061 140.571 302.87 140.087 302.87C139.798 302.87 139.554 302.937 139.354 303.073C139.159 303.209 139.061 303.381 139.061 303.589C139.061 304.027 139.31 304.358 139.807 304.583L140.673 304.978C141.204 305.22 141.59 305.496 141.832 305.806C142.074 306.116 142.195 306.505 142.195 306.972C142.195 307.583 141.981 308.063 141.552 308.412C141.123 308.756 140.528 308.928 139.768 308.928C139.051 308.928 138.375 308.749 137.743 308.392ZM143.909 302.933H143.119V301.978H143.909V300.551L145.119 300.086V301.978H146.992V302.933H145.119V306.322C145.119 306.895 145.215 307.303 145.406 307.545C145.601 307.787 145.913 307.908 146.342 307.908C146.652 307.908 146.973 307.83 147.304 307.673L147.483 308.736C146.981 308.864 146.432 308.928 145.833 308.928C145.293 308.928 144.837 308.728 144.463 308.329C144.094 307.925 143.909 307.418 143.909 306.806V302.933ZM149.897 299.398C150.105 299.398 150.281 299.472 150.426 299.621C150.574 299.765 150.649 299.939 150.649 300.143C150.649 300.351 150.574 300.53 150.426 300.678C150.281 300.823 150.105 300.895 149.897 300.895C149.693 300.895 149.517 300.823 149.368 300.678C149.224 300.53 149.152 300.351 149.152 300.143C149.152 299.935 149.224 299.759 149.368 299.614C149.513 299.47 149.689 299.398 149.897 299.398ZM149.234 308.8V302.997H148.298V301.978H150.445V308.8H149.234ZM157.516 302.532L156.917 303.386C156.794 303.262 156.575 303.146 156.261 303.035C155.951 302.925 155.645 302.87 155.343 302.87C154.685 302.87 154.163 303.101 153.776 303.564C153.39 304.023 153.197 304.653 153.197 305.456C153.197 306.254 153.394 306.864 153.789 307.284C154.184 307.7 154.732 307.908 155.433 307.908C155.976 307.908 156.524 307.698 157.076 307.278L157.554 308.297C156.904 308.717 156.099 308.928 155.14 308.928C154.21 308.928 153.441 308.615 152.834 307.991C152.226 307.367 151.923 306.522 151.923 305.456C151.923 304.369 152.237 303.496 152.865 302.838C153.498 302.179 154.362 301.85 155.458 301.85C155.811 301.85 156.193 301.925 156.605 302.073C157.017 302.222 157.32 302.375 157.516 302.532Z" fill="#222222"/>
<path d="M242.532 308.8V299.468H243.806V308.8H242.532ZM250.043 308.8V304.832C250.043 304.105 249.932 303.598 249.711 303.309C249.495 303.016 249.13 302.87 248.616 302.87C248.34 302.87 248.051 302.952 247.749 303.118C247.448 303.284 247.216 303.487 247.055 303.729V308.8H245.845V301.978H246.673L247.055 302.857C247.454 302.186 248.106 301.85 249.011 301.85C250.506 301.85 251.253 302.759 251.253 304.577V308.8H250.043ZM253.413 302.933H252.623V301.978H253.413V300.551L254.623 300.086V301.978H256.496V302.933H254.623V306.322C254.623 306.895 254.718 307.303 254.91 307.545C255.105 307.787 255.417 307.908 255.846 307.908C256.156 307.908 256.477 307.83 256.808 307.673L256.986 308.736C256.485 308.864 255.935 308.928 255.336 308.928C254.797 308.928 254.34 308.728 253.967 308.329C253.597 307.925 253.413 307.418 253.413 306.806V302.933ZM263.898 305.507H258.98C258.98 306.305 259.199 306.919 259.636 307.348C260.023 307.721 260.52 307.908 261.127 307.908C261.819 307.908 262.397 307.707 262.86 307.303L263.369 308.176C263.182 308.363 262.896 308.524 262.509 308.66C262.025 308.838 261.486 308.928 260.891 308.928C260.033 308.928 259.305 308.637 258.706 308.055C258.039 307.414 257.706 306.551 257.706 305.469C257.706 304.343 258.048 303.441 258.732 302.761C259.343 302.154 260.067 301.85 260.904 301.85C261.876 301.85 262.639 302.124 263.191 302.672C263.726 303.199 263.993 303.897 263.993 304.768C263.993 305.035 263.962 305.282 263.898 305.507ZM260.961 302.87C260.422 302.87 259.97 303.044 259.604 303.392C259.256 303.723 259.059 304.135 259.012 304.628H262.789C262.789 304.139 262.637 303.732 262.331 303.405C261.995 303.048 261.539 302.87 260.961 302.87ZM268.981 303.143C268.718 302.961 268.453 302.87 268.185 302.87C267.756 302.87 267.38 303.067 267.057 303.462C266.739 303.857 266.58 304.333 266.58 304.889V308.8H265.369V301.978H266.58V303.067C267.021 302.256 267.678 301.85 268.548 301.85C268.765 301.85 269.077 301.889 269.485 301.965L268.981 303.143ZM274.542 308.8V304.832C274.542 304.105 274.432 303.598 274.211 303.309C273.995 303.016 273.629 302.87 273.116 302.87C272.839 302.87 272.551 302.952 272.249 303.118C271.948 303.284 271.716 303.487 271.555 303.729V308.8H270.345V301.978H271.173L271.555 302.857C271.954 302.186 272.606 301.85 273.51 301.85C275.005 301.85 275.753 302.759 275.753 304.577V308.8H274.542ZM281.333 308.017C280.849 308.624 280.108 308.928 279.11 308.928C278.575 308.928 278.11 308.734 277.715 308.348C277.324 307.957 277.129 307.473 277.129 306.895C277.129 306.203 277.43 305.619 278.033 305.144C278.641 304.664 279.414 304.424 280.352 304.424C280.607 304.424 280.896 304.479 281.218 304.589C281.218 303.485 280.726 302.933 279.741 302.933C278.985 302.933 278.403 303.137 277.995 303.545L277.485 302.532C277.715 302.345 278.031 302.186 278.435 302.054C278.842 301.918 279.231 301.85 279.6 301.85C280.59 301.85 281.308 302.075 281.754 302.526C282.204 302.976 282.429 303.691 282.429 304.672V307.118C282.429 307.717 282.607 308.116 282.964 308.316V308.921C282.471 308.921 282.102 308.851 281.855 308.711C281.613 308.571 281.439 308.339 281.333 308.017ZM281.218 305.449C280.836 305.365 280.569 305.322 280.416 305.322C279.804 305.322 279.305 305.479 278.919 305.793C278.532 306.108 278.339 306.479 278.339 306.908C278.339 307.617 278.757 307.972 279.594 307.972C280.206 307.972 280.747 307.681 281.218 307.099V305.449ZM284.767 302.933H283.977V301.978H284.767V300.551L285.977 300.086V301.978H287.85V302.933H285.977V306.322C285.977 306.895 286.073 307.303 286.264 307.545C286.459 307.787 286.771 307.908 287.2 307.908C287.51 307.908 287.831 307.83 288.162 307.673L288.34 308.736C287.839 308.864 287.289 308.928 286.69 308.928C286.151 308.928 285.695 308.728 285.321 308.329C284.951 307.925 284.767 307.418 284.767 306.806V302.933ZM290.755 299.398C290.963 299.398 291.139 299.472 291.283 299.621C291.432 299.765 291.506 299.939 291.506 300.143C291.506 300.351 291.432 300.53 291.283 300.678C291.139 300.823 290.963 300.895 290.755 300.895C290.551 300.895 290.375 300.823 290.226 300.678C290.081 300.53 290.009 300.351 290.009 300.143C290.009 299.935 290.081 299.759 290.226 299.614C290.37 299.47 290.547 299.398 290.755 299.398ZM290.092 308.8V302.997H289.156V301.978H291.302V308.8H290.092ZM292.78 305.373C292.78 304.32 293.063 303.47 293.628 302.825C294.197 302.175 294.944 301.85 295.87 301.85C296.847 301.85 297.605 302.162 298.144 302.787C298.683 303.407 298.953 304.269 298.953 305.373C298.953 306.473 298.677 307.341 298.125 307.978C297.573 308.611 296.821 308.928 295.87 308.928C294.897 308.928 294.139 308.607 293.596 307.966C293.052 307.324 292.78 306.46 292.78 305.373ZM294.054 305.373C294.054 307.084 294.66 307.94 295.87 307.94C296.435 307.94 296.876 307.711 297.195 307.252C297.518 306.794 297.679 306.167 297.679 305.373C297.679 303.683 297.076 302.838 295.87 302.838C295.318 302.838 294.876 303.063 294.545 303.513C294.218 303.963 294.054 304.583 294.054 305.373ZM304.431 308.8V304.832C304.431 304.105 304.321 303.598 304.1 303.309C303.884 303.016 303.518 302.87 303.004 302.87C302.728 302.87 302.44 302.952 302.138 303.118C301.837 303.284 301.605 303.487 301.444 303.729V308.8H300.233V301.978H301.062L301.444 302.857C301.843 302.186 302.495 301.85 303.399 301.85C304.894 301.85 305.642 302.759 305.642 304.577V308.8H304.431ZM311.222 308.017C310.738 308.624 309.997 308.928 308.999 308.928C308.464 308.928 307.999 308.734 307.604 308.348C307.213 307.957 307.018 307.473 307.018 306.895C307.018 306.203 307.319 305.619 307.922 305.144C308.53 304.664 309.302 304.424 310.241 304.424C310.496 304.424 310.785 304.479 311.107 304.589C311.107 303.485 310.615 302.933 309.629 302.933C308.874 302.933 308.292 303.137 307.884 303.545L307.374 302.532C307.604 302.345 307.92 302.186 308.324 302.054C308.731 301.918 309.12 301.85 309.489 301.85C310.479 301.85 311.197 302.075 311.642 302.526C312.093 302.976 312.318 303.691 312.318 304.672V307.118C312.318 307.717 312.496 308.116 312.853 308.316V308.921C312.36 308.921 311.991 308.851 311.744 308.711C311.502 308.571 311.328 308.339 311.222 308.017ZM311.107 305.449C310.725 305.365 310.458 305.322 310.305 305.322C309.693 305.322 309.194 305.479 308.808 305.793C308.421 306.108 308.228 306.479 308.228 306.908C308.228 307.617 308.646 307.972 309.483 307.972C310.095 307.972 310.636 307.681 311.107 307.099V305.449ZM314.318 306.87V299.181H315.528V306.666C315.528 307.031 315.632 307.32 315.84 307.533C316.053 307.741 316.329 307.845 316.669 307.845V308.928C315.101 308.928 314.318 308.242 314.318 306.87Z" fill="#222222"/>
<rect x="47.4118" y="295.289" width="33.6146" height="17.6993" stroke="#D8D8D8" stroke-width="0.239179"/>
<line x1="47.3482" y1="295.064" x2="81.202" y2="313.002" stroke="#D8D8D8" stroke-width="0.239179"/>
<line x1="47.2362" y1="313.002" x2="81.09" y2="295.064" stroke="#D8D8D8" stroke-width="0.239179"/>
<rect x="218.958" y="401.604" width="122.235" height="64.361" stroke="#D8D8D8" stroke-width="0.869743"/>
<line x1="218.727" y1="400.785" x2="341.831" y2="466.016" stroke="#D8D8D8" stroke-width="0.869743"/>
<line x1="218.32" y1="466.016" x2="341.424" y2="400.785" stroke="#D8D8D8" stroke-width="0.869743"/>
</g>
<rect x="0.815385" y="0.815385" width="409.323" height="528.369" stroke="#222222" stroke-width="1.63077"/>
<defs>
<clipPath id="clip0_804_252">
<rect width="410.954" height="530" fill="white"/>
</clipPath>
</defs>
</svg>
